**ABCDEFGHIJKLMNOPQRSTUVWXYZabcdefghijklmnopqrstuvwxyz**************************
**PARASOLID !"#$%&'()*+,-./:;<=>?@[\]^_`{|}~0123456789**************************
**PART1;
MC=AMD64;
MC_MODEL=Intel64 Family 6 Model 60 Stepping 3, GenuineIntel;
MC_ID=unknown;
OS=Windows_NT;
OS_RELEASE=unknown;
FRU=Parasolid Version 27.0, build 207,  1-23-2015;
APPL=SOLIDWORKS 2015-2015313;
SITE=;
USER=unknown;
FORMAT=text;
GUISE=transmit;
KEY=BEARING_PLATE;
FILE=BEARING_PLATE.x_t;
DATE=Tue Apr 26 21:50:56 2016;
**PART2;
SCH=SCH_2700207_26105;
USFLD_SIZE=0;
**PART3;
**END_OF_HEADER*****************************************************************
T51 : TRANSMIT FILE created by modeller version 270020723 SCH_2700207_26105_1300
6196 0 12 30 CCCCCCCCCCCCCDI5 owner1040 0 CCCCCCCCCA13 boundary_mesh1006 0 A16 i
ndex_map_offset0 0 1 dA9 index_map82 0 A17 node_id_index_map82 0 A20 schema_embe
dding_map82 0 A5 child12 0 A14 lowest_node_id0 0 1 dZ1 873 2 3 0 0 0 0 1e3 1e-8
 0 4 0 1 0 1 1 5 6 7 8 9 10 11 0 0 0 0 0 0 0 81 255 2 2 665 12 1 0 0 0 0 13 0 70
 11 CI9 list_type0 0 1 uI10 notransmit0 0 1 lCCCDCCDI12 finger_index0 0 1 dI12 f
inger_block1012 0 CZ3 0 4 T1 0 0 3 20 1 14 14 13 255 5 174 0 1 0 15 0 0 16 0 51
 255 6 173 0 17 18 0 0 --.01475 .003 .0285 0 -1 0 .005 0 0 -1 30 255 7 538 0 10
 19 0 0 +-.002549901936085335 738e-6 -.02652236328125 0 1 0 29 255 8 530 0 11 20
 0 .002549901936085335 .001476 -.02652236328125 19 8 CCCCCCCA5 owner12 0 Z9 52 0
 1 16 0 21 V0 16 255 10 536 0 ?22 0 23 7 0 0 1 18 255 11 528 0 24 0 25 8 ?1 17 2
55 24 0 26 27 22 11 28 29 0 30 +18 25 49 0 31 11 32 33 ?1 17 31 0 34 35 36 25 37
 38 0 39 +18 32 46 0 36 25 40 41 ?1 29 33 51 0 25 41 42 -.01975 .003 .0285 29 41
 48 0 32 43 33 -.01975 .003 -.0285 29 42 133 0 44 33 45 -.01475 0 .0335 18 44 11
6 0 46 47 48 42 ?1 29 45 132 0 47 42 49 .01475 0 .0335 18 47 115 0 50 51 44 45 ?
1 29 49 131 0 51 45 52 .01975 0 .0285 18 51 114 0 53 54 47 49 ?1 29 52 130 0 54
 49 55 .01975 0 -.0285 18 54 113 0 56 57 51 52 ?1 29 55 129 0 57 52 58 .01475 0
 -.0335 18 57 112 0 59 60 54 55 ?1 29 58 128 0 60 55 61 -.01475 0 -.0335 18 60 1
11 0 62 63 57 58 ?1 29 61 127 0 63 58 20 -.01975 0 -.0285 18 63 110 0 64 65 60 6
1 ?1 29 20 126 0 65 61 8 -.01975 0 .0285 18 65 109 0 66 67 63 20 ?1 17 66 0 68 3
9 69 65 70 71 0 72 +18 67 28 0 73 74 65 75 ?1 17 73 0 76 77 78 67 79 80 0 35 -18
 74 31 0 79 81 67 82 ?1 29 75 30 0 67 83 82 -.01475 .003 .0335 29 83 623 0 48 84
 75 -.002549901936085335 .001476 -.02652236328125 29 82 33 0 74 75 85 .01475 .00
3 .0335 29 85 36 0 81 82 86 .01975 .003 .0285 18 81 34 0 87 88 74 85 ?1 29 86 39
 0 88 85 89 .01975 .003 -.0285 18 88 37 0 90 91 81 86 ?1 29 89 42 0 91 86 43 .01
475 .003 -.0335 18 91 40 0 92 40 88 89 ?1 29 43 45 0 40 89 41 -.01475 .003 -.033
5 18 40 43 0 93 32 91 43 ?1 17 93 0 34 36 92 40 94 95 0 96 +15 255 34 3 0 35 15
 97 17 36 0 34 31 93 32 98 99 0 100 +17 92 0 34 93 90 91 101 102 0 103 +17 94 0
 104 105 96 91 93 95 0 0 -16 95 19 0 ?93 99 102 106 0 0 1 17 96 0 104 94 62 40 1
07 108 0 98 -15 104 146 0 62 109 0 17 62 0 104 96 105 60 110 111 0 107 +17 107 0
 112 64 98 60 96 108 0 113 +16 108 136 0 ?107 114 115 116 0 0 1 17 98 0 112 107
 100 40 36 99 0 0 -15 112 144 0 64 117 0 17 100 0 112 98 64 32 69 115 0 37 -16 9
9 22 0 ?36 38 95 118 0 0 1 16 38 25 0 ?31 119 99 120 0 0 1 31 255 118 23 0 99 10
6 120 0 +-.01475 .003 -.0285 0 1 0 0 0 1 .005 30 106 20 0 95 121 118 0 +.01475 .
003 -.0335 -1 0 23521674250533e-29 30 120 26 0 38 118 122 0 +-.01975 .003 .0285
 0 0 1 31 122 125 0 123 120 124 0 +-.01475 0 .0285 0 1 0 0 0 -1 .005 16 123 105
 0 ?125 126 127 122 0 0 1 30 124 124 0 126 122 128 0 +.01475 0 .0335 1 0 2352167
4250533e-29 16 126 101 0 ?50 129 123 124 0 0 1 31 128 123 0 129 124 130 0 +.0147
5 0 .0285 0 1 0 0 0 1 .005 16 129 97 0 ?53 131 126 128 0 0 1 30 130 122 0 131 12
8 132 0 +.01975 0 .0285 -2434699615406045e-31 0 -1 16 131 93 0 ?56 133 129 130 0
 0 1 31 132 121 0 133 130 134 0 +.01475 0 -.0285 0 1 0 0 0 1 .005 16 133 89 0 ?5
9 111 131 132 0 0 1 30 134 120 0 111 132 135 0 +.01475 0 -.0335 -1 0 23521674250
533e-29 16 111 85 0 ?62 136 133 134 0 0 1 31 135 119 0 136 134 137 0 +-.01475 0
 -.0285 0 1 0 0 0 1 .005 16 136 81 0 ?64 71 111 135 0 0 1 30 137 118 0 71 135 13
8 0 +-.01975 0 .0285 0 0 1 16 71 77 0 ?66 139 136 137 0 0 1 30 138 158 0 119 137
 140 0 +-.01975 .003 .0285 0 -1 0 16 119 134 0 ?72 115 38 138 0 0 1 30 140 159 0
 115 138 116 0 +-.01975 .003 -.0285 0 -1 0 16 115 135 0 ?69 108 119 140 0 0 1 30
 116 160 0 108 140 141 0 +-.01475 .003 -.0335 0 -1 0 30 141 161 0 114 116 142 0
 +.01475 .003 -.0335 0 -1 0 16 114 137 0 ?105 143 108 141 0 0 1 30 142 162 0 143
 141 144 0 +.01975 .003 -.0285 0 -1 0 16 143 138 0 ?145 146 114 142 0 0 1 30 144
 163 0 146 142 147 0 +.01975 .003 .0285 0 -1 0 16 146 139 0 ?148 149 143 144 0 0
 1 30 147 164 0 149 144 150 0 +.01475 .003 .0335 0 -1 0 16 149 140 0 ?151 152 14
6 147 0 0 1 30 150 165 0 152 147 153 0 +-.01475 .003 .0335 0 -1 0 16 152 141 0 ?
77 154 149 150 0 0 1 30 153 531 0 154 150 19 0 -.002549901936085335 738e-6 -.026
52236328125 0 1 0 16 154 529 0 ?27 23 152 153 0 0 1 31 19 535 0 23 153 7 0 +0 .0
01476 -.0265 0 -1 0 0 0 -1 .00255 16 23 533 0 ?30 10 154 19 0 0 1 17 30 0 155 28
 28 11 156 23 0 157 +15 155 603 0 30 158 159 17 28 0 155 30 30 48 24 29 0 156 -1
7 156 0 160 161 157 48 30 23 0 0 -17 157 0 160 156 162 11 27 154 0 0 -15 160 537
 0 161 163 0 17 162 0 160 157 161 164 165 127 0 0 -17 27 0 26 166 24 164 157 154
 0 167 +15 26 599 0 22 168 0 17 166 0 26 22 27 169 167 170 0 161 -18 164 569 0 2
7 169 0 171 ?1 17 167 0 172 165 165 164 166 170 0 162 +15 172 543 0 167 173 174
 17 165 0 172 167 167 169 162 127 0 0 +16 170 564 0 ?167 175 29 176 0 0 1 16 175
 436 0 ?177 178 170 179 0 0 1 16 29 565 0 ?24 170 180 181 0 0 1 31 176 619 0 170
 181 182 0 +489858719658942e-33 867361737988404e-33 -.0225 0 1 0 0 0 1 .0047625
 31 181 620 0 29 183 176 0 +489858719658942e-33 .001476 -.0225 0 1 0 0 0 1 .0047
625 31 182 459 0 178 176 179 0 +-.01 .003 .00529 0 1 0 0 0 1 .00255 16 178 439 0
 ?184 185 175 182 0 0 1 31 179 458 0 175 182 186 0 +-.01 0 .00529 0 1 0 0 0 1 .0
0255 31 186 421 0 187 179 188 0 +-.01 .003 .02529 0 1 0 0 0 1 .00255 16 187 401
 0 ?189 190 185 186 0 0 1 31 188 420 0 185 186 191 0 +-.01 0 .02529 0 1 0 0 0 1
 .00255 16 185 398 0 ?192 187 178 188 0 0 1 31 191 383 0 193 188 194 0 +52041704
2793042e-32 .003 .00529 0 1 0 0 0 1 .00255 16 193 363 0 ?195 196 190 191 0 0 1 3
1 194 382 0 190 191 197 0 +520417042793042e-32 0 .00529 0 1 0 0 0 1 .00255 16 19
0 360 0 ?198 193 187 194 0 0 1 31 197 345 0 199 194 200 0 +693889390390723e-32 .
003 .02529 0 1 0 0 0 1 .00255 16 199 325 0 ?201 202 196 197 0 0 1 31 200 344 0 1
96 197 203 0 +693889390390723e-32 0 .02529 0 1 0 0 0 1 .00255 16 196 322 0 ?204
 199 193 200 0 0 1 31 203 307 0 205 200 206 0 +.01 .003 .00529 0 1 0 0 0 1 .0025
5 16 205 287 0 ?207 208 202 203 0 0 1 31 206 306 0 202 203 209 0 +.01 0 .00529 0
 1 0 0 0 1 .00255 16 202 284 0 ?210 205 199 206 0 0 1 31 209 269 0 211 206 212 0
 +.01 .003 .02529 0 1 0 0 0 1 .00255 16 211 249 0 ?213 127 208 209 0 0 1 31 212
 268 0 208 209 214 0 +.01 0 .02529 0 1 0 0 0 1 .00255 16 208 246 0 ?215 211 205
 212 0 0 1 31 214 230 0 127 212 216 0 +0 0 -.0265 0 1 0 0 0 1 .00255 16 127 208
 0 ?165 123 211 214 0 0 1 31 216 5 0 139 214 217 0 +-.01475 .003 .0285 0 1 0 0 0
 -1 .005 16 139 4 0 ?35 80 71 216 0 0 1 30 217 8 0 80 216 218 0 +.01475 .003 .03
35 1 0 23521674250533e-29 16 80 7 0 ?79 219 139 217 0 0 1 31 218 11 0 219 217 22
0 0 +.01475 .003 .0285 0 1 0 0 0 1 .005 16 219 10 0 ?87 221 80 218 0 0 1 30 220
 14 0 221 218 121 0 +.01975 .003 .0285 -2434699615406045e-31 0 -1 16 221 13 0 ?9
0 102 219 220 0 0 1 31 121 17 0 102 220 106 0 +.01475 .003 -.0285 0 1 0 0 0 1 .0
05 16 102 16 0 ?92 95 221 121 0 0 1 17 90 0 34 92 87 88 222 221 0 223 +17 87 0 3
4 90 79 81 224 219 0 225 +17 222 0 226 148 223 81 90 221 0 0 -17 223 0 226 222 5
6 88 145 143 0 101 -15 226 150 0 56 227 0 17 56 0 226 223 148 54 228 131 0 145 +
17 145 0 229 59 101 54 223 143 0 230 +17 101 0 229 145 103 88 92 102 0 0 -15 229
 148 0 59 231 0 17 103 0 229 101 59 91 105 114 0 94 -17 59 0 229 103 145 57 230
 133 0 105 +17 105 0 104 62 94 57 103 114 0 110 +17 110 0 232 230 113 57 62 111
 0 0 -15 232 76 0 233 173 234 17 230 0 232 228 110 54 59 133 0 0 -17 113 0 232 1
10 70 60 64 136 0 0 -17 70 0 232 113 233 63 66 71 0 0 -17 64 0 112 100 107 63 11
3 136 0 69 +17 69 0 68 66 37 63 100 115 0 70 +15 68 142 0 66 235 0 17 37 0 68 69
 39 32 31 38 0 0 -17 39 0 68 37 66 25 72 119 0 236 -17 72 0 237 125 236 65 39 11
9 0 233 +17 236 0 237 72 238 25 35 139 0 0 -15 237 156 0 125 17 0 17 238 0 237 2
36 125 67 77 152 0 0 -17 35 0 34 79 31 67 236 139 0 238 +17 79 0 34 87 35 74 73
 80 0 78 +17 78 0 76 73 50 74 151 149 0 224 -15 76 154 0 50 239 0 17 50 0 76 78
 77 47 46 126 0 151 +17 151 0 240 53 224 47 78 149 0 241 +17 224 0 240 151 225 7
4 87 219 0 0 -15 240 152 0 53 242 0 17 225 0 240 224 53 81 148 146 0 222 -17 53
 0 240 225 151 51 241 129 0 148 +17 148 0 226 56 222 51 225 146 0 228 +17 228 0
 232 241 230 51 56 131 0 0 -17 241 0 232 46 228 47 53 129 0 0 -17 46 0 232 233 2
41 44 50 126 0 77 -17 233 0 232 70 46 65 125 123 0 0 -17 77 0 76 50 73 44 238 15
2 0 125 +17 125 0 237 238 72 44 233 123 0 0 +14 255 242 153 243 ?227 239 240 5 2
44 -0 0 227 239 21 81 1 243 854 245 242 246 0 0 247 248 14 227 151 247 ?231 242
 226 5 249 -0 0 231 242 21 14 239 155 250 ?242 17 76 5 18 -0 0 242 17 21 51 244
 171 0 242 249 18 0 -.01475 .003 .0285 0 -1 0 .005 0 0 -1 13 21 53 0 0 0 0 0 0 9
 15 14 15 433 251 ?173 0 252 5 253 -0 0 173 0 21 81 1 251 857 245 15 254 0 250 2
55 256 14 173 427 255 ?17 15 172 5 257 +0 0 17 15 21 15 252 549 0 258 15 34 50 2
55 253 2 0 15 259 257 0 +-.01475 .003 .0285 0 -1 0 0 0 -1 51 259 227 0 163 260 2
53 0 -0 .003 -.0265 0 -1 0 .00255 0 0 -1 50 257 117 0 173 253 261 0 +-.01475 0 .
0285 0 -1 0 0 0 -1 50 261 166 0 235 257 262 0 +-.01975 .003 .0285 1 0 0 0 0 -1 1
4 235 143 263 ?163 117 68 5 261 -0 0 163 117 21 51 262 167 0 117 261 264 0 --.01
475 .003 -.0285 0 -1 0 .005 0 0 -1 14 117 145 265 ?235 109 112 5 262 -0 0 235 10
9 21 50 264 168 0 109 262 266 0 +.01475 .003 -.0335 23521674250533e-29 0 1 1 0 -
23521674250533e-29 14 109 147 267 ?117 231 104 5 264 -0 0 117 231 21 51 266 169
 0 231 264 249 0 -.01475 .003 -.0285 0 -1 0 .005 0 0 -1 14 231 149 268 ?109 227
 229 5 266 -0 0 109 227 21 50 249 170 0 227 266 244 0 +.01975 .003 .0285 -1 0 24
34699615406045e-31 2434699615406045e-31 0 1 81 1 268 862 245 231 269 0 267 270 2
71 80 255 1 245 272 273 9000 1 1 1 1 1 1 1 1 0 FFFFTFTFFFFFFF1 81 1 269 798 274
 231 0 268 275 276 277 81 1 267 861 245 109 276 0 265 268 278 81 1 270 863 245 1
63 279 0 268 280 281 82 255 1 271 -299302639 14 163 214 270 ?282 235 160 5 259 +
0 0 282 235 21 81 1 279 802 274 163 0 270 283 284 285 81 1 280 864 245 282 284 0
 270 286 287 82 1 281 1238106404 14 282 252 280 ?288 163 289 5 260 +0 0 288 163
 21 81 1 284 803 274 282 0 280 279 290 291 81 1 286 865 245 288 290 0 280 292 29
3 82 1 287 -292421359 14 288 290 286 ?294 282 295 5 296 +0 0 294 282 21 81 1 290
 804 274 288 0 286 284 297 298 81 1 292 866 245 294 297 0 286 299 300 82 1 293 -
288358127 14 294 328 292 ?301 288 302 5 303 +0 0 301 288 21 81 1 297 805 274 294
 0 292 290 304 305 81 1 299 867 245 301 304 0 292 306 307 82 1 300 -284294895 14
 301 366 299 ?308 294 309 5 310 +0 0 308 294 21 81 1 304 806 274 301 0 299 297 3
11 312 81 1 306 868 245 308 311 0 299 313 314 82 1 307 -280231663 14 308 404 306
 ?315 301 316 5 317 +0 0 315 301 21 81 1 311 807 274 308 0 306 304 318 319 81 1
 313 869 245 315 318 0 306 320 321 82 1 314 -276168431 14 315 442 313 ?168 308 3
22 5 323 +0 0 168 308 21 81 1 318 808 274 315 0 313 311 324 325 81 1 320 870 245
 168 324 0 313 326 327 82 1 321 -272105199 14 168 596 320 ?158 315 26 5 328 -0 0
 158 315 21 81 1 324 809 274 168 0 320 318 329 330 81 1 326 871 245 158 329 0 32
0 331 332 82 1 327 -1323368156 14 158 600 326 ?333 168 155 5 334 -0 0 333 168 21
 81 1 329 810 274 158 0 326 324 335 336 81 1 331 872 245 333 335 0 326 337 338 8
2 1 332 -1323957980 14 333 605 331 ?0 158 339 5 340 -0 0 0 158 21 81 1 335 811 2
74 333 0 331 329 0 341 81 1 337 873 245 17 342 0 331 0 343 82 1 338 -1324547804
 14 17 157 337 ?239 173 237 5 6 -0 0 239 173 21 81 1 342 794 274 17 0 337 344 34
5 346 82 1 343 -298254063 80 1 274 0 347 8001 0 0 0 0 3 5 0 0 0 FFFFTFTFFFFFFF2
 81 1 344 793 274 173 0 255 254 342 348 81 1 345 795 274 239 0 250 342 246 349 8
3 255 3 346 .898039215686275 .917647058823529 .929411764705882 81 1 250 856 245
 239 345 0 247 251 350 81 1 246 796 274 242 0 243 345 275 351 83 3 349 .89803921
5686275 .917647058823529 .929411764705882 81 1 275 797 274 227 0 247 246 269 352
 83 3 351 .898039215686275 .917647058823529 .929411764705882 81 1 247 855 245 22
7 275 0 243 250 353 83 3 352 .898039215686275 .917647058823529 .929411764705882
 82 1 353 -299040495 82 1 350 -298516207 81 1 255 858 245 173 344 0 251 263 354
 81 1 254 792 274 15 0 251 0 344 355 83 3 348 .898039215686275 .917647058823529
 .929411764705882 83 3 355 .898039215686275 .917647058823529 .929411764705882 81
 1 263 859 245 235 283 0 255 265 356 82 1 354 1236533540 81 1 283 801 274 235 0
 263 357 279 358 81 1 265 860 245 117 357 0 263 267 359 82 1 356 -300089071 81 1
 357 800 274 117 0 265 276 283 360 82 1 359 -299826927 81 1 276 799 274 109 0 26
7 269 357 361 83 3 360 .898039215686275 .917647058823529 .929411764705882 83 3 3
61 .898039215686275 .917647058823529 .929411764705882 83 3 358 .898039215686275
 .917647058823529 .929411764705882 79 255 15 347 SDL/TYSA_COLOUR83 3 341 .898039
215686275 .917647058823529 .929411764705882 15 339 608 0 362 333 363 51 340 616
 0 333 0 334 0 +489858719658942e-33 .003 -.0225 0 1 0 .0080518 0 0 1 50 334 615
 0 158 340 328 0 +.0047625 .001476 -.0225 0 -1 0 0 0 -1 51 328 614 0 168 334 323
 0 +489858719658942e-33 .003 -.0225 0 1 0 .0047625 0 0 1 51 323 455 0 315 328 31
7 0 --.01 .003 .00529 0 -1 0 .00255 0 0 -1 51 317 417 0 308 323 310 0 --.01 .003
 .02529 0 -1 0 .00255 0 0 -1 51 310 379 0 301 317 303 0 -520417042793042e-32 .00
3 .00529 0 -1 0 .00255 0 0 -1 51 303 341 0 294 310 296 0 -693889390390723e-32 .0
03 .02529 0 -1 0 .00255 0 0 -1 51 296 303 0 288 303 260 0 -.01 .003 .00529 0 -1
 0 .00255 0 0 -1 51 260 265 0 282 296 259 0 -.01 .003 .02529 0 -1 0 .00255 0 0 -
1 17 362 0 339 362 362 0 364 180 0 0 -15 363 609 0 365 333 0 17 365 0 363 365 36
5 0 258 366 0 0 +17 258 0 252 258 258 0 365 366 0 0 -16 366 563 0 ?365 180 0 367
 0 0 1 16 180 566 0 ?364 29 366 183 0 0 1 31 367 622 0 366 0 183 0 +489858719658
942e-33 .003 -.0225 0 1 0 0 0 1 .0080518 31 183 621 0 180 367 181 0 +48985871965
8942e-33 .001476 -.0225 0 1 0 0 0 1 .0080518 17 364 0 159 364 364 0 362 180 0 0
 +15 159 604 0 364 158 0 83 3 336 .898039215686275 .917647058823529 .92941176470
5882 83 3 330 .898039215686275 .917647058823529 .929411764705882 83 3 325 .89803
9215686275 .917647058823529 .929411764705882 15 322 445 0 184 315 368 17 184 0 3
22 184 184 0 369 178 0 0 +15 368 446 0 370 315 0 17 370 0 368 370 370 0 177 175
 0 0 -17 177 0 371 177 177 0 370 175 0 0 +15 371 424 0 177 173 0 17 369 0 372 36
9 369 0 184 178 0 0 -15 372 431 0 369 15 0 83 3 319 .898039215686275 .9176470588
23529 .929411764705882 15 316 407 0 189 308 373 17 189 0 316 189 189 0 374 187 0
 0 +15 373 408 0 375 308 0 17 375 0 373 375 375 0 192 185 0 0 -17 192 0 174 192
 192 0 375 185 0 0 +15 174 386 0 192 173 376 15 376 310 0 204 173 377 17 204 0 3
76 204 204 0 378 196 0 0 +15 377 234 0 215 173 232 17 215 0 377 215 215 0 379 20
8 0 0 +17 379 0 380 379 379 0 215 208 0 0 -15 380 256 0 379 282 0 17 378 0 381 3
78 378 0 204 196 0 0 -15 381 332 0 378 294 0 17 374 0 382 374 374 0 189 187 0 0
 -15 382 393 0 374 15 372 83 3 312 .898039215686275 .917647058823529 .9294117647
05882 15 309 369 0 195 301 383 17 195 0 309 195 195 0 384 193 0 0 +15 383 370 0
 385 301 0 17 385 0 383 385 385 0 198 190 0 0 -17 198 0 386 198 198 0 385 190 0
 0 +15 386 348 0 198 173 371 17 384 0 387 384 384 0 195 193 0 0 -15 387 355 0 38
4 15 382 83 3 305 .898039215686275 .917647058823529 .929411764705882 15 302 331
 0 201 294 381 17 201 0 302 201 201 0 388 199 0 0 +17 388 0 389 388 388 0 201 19
9 0 0 -15 389 317 0 388 15 387 83 3 298 .898039215686275 .917647058823529 .92941
1764705882 15 295 293 0 207 288 390 17 207 0 295 207 207 0 391 205 0 0 +15 390 2
94 0 392 288 0 17 392 0 390 392 392 0 210 202 0 0 -17 210 0 234 210 210 0 392 20
2 0 0 +15 234 272 0 210 173 386 17 391 0 393 391 391 0 207 205 0 0 -15 393 279 0
 391 15 389 83 3 291 .898039215686275 .917647058823529 .929411764705882 15 289 2
55 0 213 282 380 17 213 0 289 213 213 0 394 211 0 0 +17 394 0 97 394 394 0 213 2
11 0 0 -15 97 241 0 394 15 393 83 3 285 .898039215686275 .917647058823529 .92941
1764705882 82 1 278 -299564783 83 3 277 .898039215686275 .917647058823529 .92941
1764705882 79 14 273 SWEntUnchanged82 1 256 1236402468 50 18 172 0 239 244 6 0 +
.01475 .003 .0335 23521674250533e-29 0 -1 -1 0 -23521674250533e-29 82 1 248 -298
778351 18 169 567 0 166 48 164 84 ?1 18 48 570 0 22 44 169 83 ?1 29 84 625 0 169
 171 83 -.00254990193608533 867361737988404e-33 -.02652236328125 29 171 626 0 16
4 0 84 .002549901936085335 867361737988404e-33 -.02652236328125 17 22 0 26 24 16
6 48 161 10 0 28 +17 161 0 160 162 156 169 22 10 0 165 -19 16 175 0 1 0 9 5 S0 7
4 4 CI16 index_map_offset0 0 1 dCCZ20 14 3 0 0 337 2 335 0 0 0 0 0 0 0 0 0 0 0 0
 0 0 0 0 0 80 2 12 395 396 8004 0 0 0 0 3 5 0 0 0 FFTFFFFFFFFFFF2 3 83 1 13 27e2
 79 16 396 SDL/TYSA_DENSITY1 0 
