**ABCDEFGHIJKLMNOPQRSTUVWXYZabcdefghijklmnopqrstuvwxyz**************************
**PARASOLID !"#$%&'()*+,-./:;<=>?@[\]^_`{|}~0123456789**************************
**PART1;
MC=AMD64;
MC_MODEL=Intel64 Family 6 Model 60 Stepping 3, GenuineIntel;
MC_ID=unknown;
OS=Windows_NT;
OS_RELEASE=unknown;
FRU=Parasolid Version 27.0, build 207,  1-23-2015;
APPL=SOLIDWORKS 2015-2015313;
SITE=;
USER=unknown;
FORMAT=text;
GUISE=transmit;
KEY=ENCODER_PLATE;
FILE=ENCODER_PLATE.x_t;
DATE=Tue Apr 26 21:51:46 2016;
**PART2;
SCH=SCH_2700207_26105;
USFLD_SIZE=0;
**PART3;
**END_OF_HEADER*****************************************************************
T51 : TRANSMIT FILE created by modeller version 270020723 SCH_2700207_26105_1300
6196 0 12 30 CCCCCCCCCCCCCDI5 owner1040 0 CCCCCCCCCA13 boundary_mesh1006 0 A16 i
ndex_map_offset0 0 1 dA9 index_map82 0 A17 node_id_index_map82 0 A20 schema_embe
dding_map82 0 A5 child12 0 A14 lowest_node_id0 0 1 dZ1 988 2 3 0 0 0 0 1e3 1e-8
 0 4 0 1 0 1 1 5 6 7 8 9 10 11 0 0 0 0 0 0 0 81 255 2 2 866 12 1 0 0 0 0 13 0 70
 11 CI9 list_type0 0 1 uI10 notransmit0 0 1 lCCCDCCDI12 finger_index0 0 1 dI12 f
inger_block1012 0 CZ3 0 4 T1 0 0 3 20 1 14 14 13 255 5 174 0 1 0 15 0 0 16 0 51
 255 6 173 0 17 18 0 0 --.01475 .003 .0285 0 -1 0 .005 0 0 -1 30 255 7 165 0 10
 19 0 0 +-.01475 .003 .0335 0 -1 0 29 255 8 126 0 20 21 0 -.01975 0 .0285 19 8 C
CCCCCCA5 owner12 0 Z9 52 0 1 16 0 22 V0 16 255 10 141 0 ?23 0 24 7 0 0 1 18 255
 11 49 0 25 0 26 27 ?1 17 255 25 0 28 29 30 11 31 32 0 33 +18 26 46 0 30 11 34 3
5 ?1 29 27 51 0 11 35 36 -.01975 .003 .0285 29 35 48 0 26 37 27 -.01975 .003 -.0
285 29 36 133 0 38 27 39 -.01475 0 .0335 18 38 116 0 40 41 0 36 ?1 29 39 132 0 4
1 36 42 .01475 0 .0335 18 41 115 0 43 44 38 39 ?1 29 42 131 0 44 39 45 .01975 0
 .0285 18 44 114 0 46 47 41 42 ?1 29 45 130 0 47 42 48 .01975 0 -.0285 18 47 113
 0 49 50 44 45 ?1 29 48 129 0 50 45 51 .01475 0 -.0335 18 50 112 0 52 53 47 48 ?
1 29 51 128 0 53 48 21 -.01475 0 -.0335 18 53 111 0 54 55 50 51 ?1 29 21 127 0 5
5 51 8 -.01975 0 -.0285 18 55 110 0 56 20 53 21 ?1 17 56 0 57 58 59 55 60 61 0 6
2 +18 20 109 0 63 64 55 8 ?1 17 63 0 65 33 62 20 66 67 0 68 +18 64 28 0 69 70 20
 71 ?1 17 69 0 72 23 73 64 74 75 0 29 -18 70 31 0 74 76 64 77 ?1 29 71 30 0 64 0
 77 -.01475 .003 .0335 29 77 33 0 70 71 78 .01475 .003 .0335 29 78 36 0 76 77 79
 .01975 .003 .0285 18 76 34 0 80 81 70 78 ?1 29 79 39 0 81 78 82 .01975 .003 -.0
285 18 81 37 0 83 84 76 79 ?1 29 82 42 0 84 79 37 .01475 .003 -.0335 18 84 40 0
 85 34 81 82 ?1 29 37 45 0 34 82 35 -.01475 .003 -.0335 18 34 43 0 86 26 84 37 ?
1 17 86 0 28 30 85 34 87 88 0 89 +15 255 28 3 0 29 15 90 17 30 0 28 25 86 26 91
 92 0 58 +17 85 0 28 86 83 84 93 94 0 95 +17 87 0 96 97 89 84 86 88 0 0 -16 88 1
9 0 ?86 92 94 98 0 0 1 17 89 0 96 87 54 34 59 99 0 91 -15 96 146 0 54 100 0 17 5
4 0 96 89 97 53 101 102 0 59 +17 59 0 57 56 91 53 89 99 0 60 +16 99 136 0 ?59 10
3 104 105 0 0 1 17 91 0 57 59 58 34 30 92 0 0 -15 57 144 0 56 106 0 17 58 0 57 9
1 56 26 62 104 0 31 -16 92 22 0 ?30 32 88 107 0 0 1 16 32 25 0 ?25 108 92 109 0
 0 1 31 255 107 23 0 92 98 109 0 +-.01475 .003 -.0285 0 1 0 0 0 1 .005 30 98 20
 0 88 110 107 0 +.01475 .003 -.0335 -1 0 23521674250533e-29 30 109 26 0 32 107 1
11 0 +-.01975 .003 .0285 0 0 1 31 111 125 0 112 109 113 0 +-.01475 0 .0285 0 1 0
 0 0 -1 .005 16 112 105 0 ?114 115 116 111 0 0 1 30 113 124 0 115 111 117 0 +.01
475 0 .0335 1 0 23521674250533e-29 16 115 101 0 ?43 118 112 113 0 0 1 31 117 123
 0 118 113 119 0 +.01475 0 .0285 0 1 0 0 0 1 .005 16 118 97 0 ?46 120 115 117 0
 0 1 30 119 122 0 120 117 121 0 +.01975 0 .0285 -2434699615406045e-31 0 -1 16 12
0 93 0 ?49 122 118 119 0 0 1 31 121 121 0 122 119 123 0 +.01475 0 -.0285 0 1 0 0
 0 1 .005 16 122 89 0 ?52 102 120 121 0 0 1 30 123 120 0 102 121 124 0 +.01475 0
 -.0335 -1 0 23521674250533e-29 16 102 85 0 ?54 61 122 123 0 0 1 31 124 119 0 61
 123 125 0 +-.01475 0 -.0285 0 1 0 0 0 1 .005 16 61 81 0 ?56 67 102 124 0 0 1 30
 125 118 0 67 124 126 0 +-.01975 0 .0285 0 0 1 16 67 77 0 ?63 127 61 125 0 0 1 3
0 126 158 0 108 125 128 0 +-.01975 .003 .0285 0 -1 0 16 108 134 0 ?68 104 32 126
 0 0 1 30 128 159 0 104 126 105 0 +-.01975 .003 -.0285 0 -1 0 16 104 135 0 ?62 9
9 108 128 0 0 1 30 105 160 0 99 128 129 0 +-.01475 .003 -.0335 0 -1 0 30 129 161
 0 103 105 130 0 +.01475 .003 -.0335 0 -1 0 16 103 137 0 ?97 131 99 129 0 0 1 30
 130 162 0 131 129 132 0 +.01975 .003 -.0285 0 -1 0 16 131 138 0 ?133 134 103 13
0 0 0 1 30 132 163 0 134 130 19 0 +.01975 .003 .0285 0 -1 0 16 134 139 0 ?135 24
 131 132 0 0 1 30 19 164 0 24 132 7 0 +.01475 .003 .0335 0 -1 0 16 24 140 0 ?136
 10 134 19 0 0 1 17 136 0 137 46 138 41 73 24 0 139 +15 137 152 0 46 140 0 17 46
 0 137 141 136 44 139 118 0 135 +17 138 0 137 136 141 70 80 142 0 0 -17 73 0 72
 69 43 70 136 24 0 138 -17 139 0 143 40 144 41 46 118 0 0 -15 143 76 0 145 146 1
47 17 40 0 143 145 139 38 43 115 0 23 -17 144 0 143 139 148 44 49 120 0 0 -17 14
8 0 143 144 101 47 52 122 0 0 -17 49 0 149 150 135 47 144 120 0 133 +15 149 150
 0 49 151 0 17 150 0 149 152 49 81 133 131 0 93 -17 135 0 149 49 152 44 141 134
 0 144 +17 133 0 153 52 93 47 150 131 0 148 +15 153 148 0 52 154 0 17 52 0 153 9
5 133 50 148 122 0 97 +17 93 0 153 133 95 81 85 94 0 0 -17 95 0 153 93 52 84 97
 103 0 87 -16 94 16 0 ?85 88 155 110 0 0 1 16 155 13 0 ?83 94 142 156 0 0 1 31 1
10 17 0 94 156 98 0 +.01475 .003 -.0285 0 1 0 0 0 1 .005 30 156 14 0 155 157 110
 0 +.01975 .003 .0285 -2434699615406045e-31 0 -1 31 157 11 0 142 158 156 0 +.014
75 .003 .0285 0 1 0 0 0 1 .005 16 142 10 0 ?80 155 75 157 0 0 1 30 158 8 0 75 15
9 157 0 +.01475 .003 .0335 1 0 23521674250533e-29 16 75 7 0 ?74 142 127 158 0 0
 1 31 159 5 0 127 160 158 0 +-.01475 .003 .0285 0 1 0 0 0 -1 .005 16 127 4 0 ?29
 75 67 159 0 0 1 31 160 268 0 161 162 159 0 +.01 0 .02529 0 1 0 0 0 1 .00255 16
 161 246 0 ?163 116 164 160 0 0 1 31 162 269 0 116 165 160 0 +.01 .003 .02529 0
 1 0 0 0 1 .00255 16 116 249 0 ?166 112 161 162 0 0 1 31 165 306 0 167 168 162 0
 +.01 0 .00529 0 1 0 0 0 1 .00255 16 167 284 0 ?169 164 170 165 0 0 1 31 168 307
 0 164 171 165 0 +.01 .003 .00529 0 1 0 0 0 1 .00255 16 164 287 0 ?172 161 167 1
68 0 0 1 31 171 344 0 173 174 168 0 +693889390390723e-32 0 .02529 0 1 0 0 0 1 .0
0255 16 173 322 0 ?175 170 176 171 0 0 1 31 174 345 0 170 177 171 0 +69388939039
0723e-32 .003 .02529 0 1 0 0 0 1 .00255 16 170 325 0 ?178 167 173 174 0 0 1 31 1
77 382 0 179 180 174 0 +520417042793042e-32 0 .00529 0 1 0 0 0 1 .00255 16 179 3
60 0 ?181 176 182 177 0 0 1 31 180 383 0 176 183 177 0 +520417042793042e-32 .003
 .00529 0 1 0 0 0 1 .00255 16 176 363 0 ?184 173 179 180 0 0 1 31 183 420 0 185
 186 180 0 +-.01 0 .02529 0 1 0 0 0 1 .00255 16 185 398 0 ?187 182 188 183 0 0 1
 31 186 421 0 182 189 183 0 +-.01 .003 .02529 0 1 0 0 0 1 .00255 16 182 401 0 ?1
90 179 185 186 0 0 1 31 189 458 0 191 192 186 0 +-.01 0 .00529 0 1 0 0 0 1 .0025
5 16 191 436 0 ?193 188 194 189 0 0 1 31 192 459 0 188 195 189 0 +-.01 .003 .005
29 0 1 0 0 0 1 .00255 16 188 439 0 ?196 185 191 192 0 0 1 31 195 567 0 197 198 1
92 0 +165327317884893e-32 .003 -.02 0 1 0 0 0 1 .0105 16 197 538 0 ?199 194 200
 195 0 0 1 31 198 568 0 194 201 195 0 +165327317884893e-32 0 -.02 0 1 0 0 0 1 .0
105 16 194 534 0 ?202 191 197 198 0 0 1 31 201 635 0 200 203 198 0 +165327317884
893e-32 867361737988404e-33 -.00494 0 1 0 0 0 1 .0018 16 200 609 0 ?204 197 205
 201 0 0 1 31 203 636 0 205 206 201 0 +165327317884893e-32 .00115 -.00494 0 1 0
 0 0 1 .0018 16 205 610 0 ?207 200 208 203 0 0 1 31 206 637 0 208 209 203 0 +165
327317884893e-32 .003 -.00494 0 1 0 0 0 1 .00365 16 208 608 0 ?210 205 211 206 0
 0 1 31 209 685 0 211 212 206 0 +.0130423425809936 867361737988404e-33 -.02753 0
 1 0 0 0 1 .0018 16 211 659 0 ?213 208 214 209 0 0 1 31 212 686 0 214 215 209 0
 +.0130423425809936 .00115 -.02753 0 1 0 0 0 1 .0018 16 214 660 0 ?216 211 217 2
12 0 0 1 31 215 687 0 217 218 212 0 +.0130423425809936 .003 -.02753 0 1 0 0 0 1
 .00365 16 217 658 0 ?219 214 220 215 0 0 1 31 218 735 0 220 221 215 0 +-.013042
3425809937 867361737988404e-33 -.02753 0 1 0 0 0 1 .0018 16 220 709 0 ?222 217 2
23 218 0 0 1 31 221 736 0 223 224 218 0 +-.0130423425809937 .00115 -.02753 0 1 0
 0 0 1 .0018 16 223 710 0 ?225 220 226 221 0 0 1 31 224 737 0 226 0 221 0 +-.013
0423425809937 .003 -.02753 0 1 0 0 0 1 .00365 16 226 708 0 ?227 223 0 224 0 0 1
 17 227 0 228 227 227 0 229 226 0 0 +15 228 728 0 227 230 0 17 229 0 231 229 229
 0 227 226 0 0 -15 231 699 0 229 15 232 14 255 15 602 233 ?146 0 231 5 234 -0 0
 146 0 22 15 232 649 0 235 15 236 17 235 0 232 235 235 0 219 217 0 0 -15 236 527
 0 237 15 28 17 237 0 236 237 237 0 199 197 0 0 -17 199 0 238 199 199 0 237 197
 0 0 +15 238 551 0 199 239 0 14 239 547 240 ?241 242 243 5 244 -0 0 241 242 22 8
1 1 240 967 245 239 246 0 233 247 248 14 241 619 247 ?249 239 250 5 251 -0 0 249
 239 22 14 242 442 252 ?239 253 254 5 255 +0 0 239 253 22 15 243 550 0 256 239 2
38 51 244 562 0 239 251 255 0 +165327317884893e-32 0 -.02 0 1 0 .0105 0 0 1 13 2
2 53 0 0 0 0 0 0 9 15 51 251 633 0 241 257 244 0 +165327317884893e-32 .003 -.004
94 0 1 0 .0018 0 0 1 51 255 455 0 242 244 258 0 --.01 .003 .00529 0 -1 0 .00255
 0 0 -1 51 258 417 0 253 255 259 0 --.01 .003 .02529 0 -1 0 .00255 0 0 -1 14 253
 404 260 ?242 261 262 5 258 +0 0 242 261 22 51 259 379 0 261 258 263 0 -52041704
2793042e-32 .003 .00529 0 -1 0 .00255 0 0 -1 14 261 366 264 ?253 265 266 5 259 +
0 0 253 265 22 51 263 341 0 265 259 267 0 -693889390390723e-32 .003 .02529 0 -1
 0 .00255 0 0 -1 14 265 328 268 ?261 269 270 5 263 +0 0 261 269 22 51 267 303 0
 269 263 271 0 -.01 .003 .00529 0 -1 0 .00255 0 0 -1 14 269 290 272 ?265 273 274
 5 267 +0 0 265 273 22 51 271 265 0 273 267 234 0 -.01 .003 .02529 0 -1 0 .00255
 0 0 -1 14 273 252 275 ?269 276 277 5 271 +0 0 269 276 22 50 255 234 2 0 15 271
 278 0 +-.01475 .003 .0285 0 -1 0 0 0 -1 50 278 117 0 146 234 279 0 +-.01475 0 .
0285 0 -1 0 0 0 -1 14 146 427 280 ?17 15 281 5 278 +0 0 17 15 22 50 279 166 0 27
6 278 282 0 +-.01975 .003 .0285 1 0 0 0 0 -1 14 276 143 283 ?273 106 65 5 279 -0
 0 273 106 22 51 282 167 0 106 279 284 0 --.01475 .003 -.0285 0 -1 0 .005 0 0 -1
 14 106 145 285 ?276 100 57 5 282 -0 0 276 100 22 50 284 168 0 100 282 286 0 +.0
1475 .003 -.0335 23521674250533e-29 0 1 1 0 -23521674250533e-29 14 100 147 287 ?
106 154 96 5 284 -0 0 106 154 22 51 286 169 0 154 284 288 0 -.01475 .003 -.0285
 0 -1 0 .005 0 0 -1 14 154 149 289 ?100 151 153 5 286 -0 0 100 151 22 50 288 170
 0 151 286 290 0 +.01975 .003 .0285 -1 0 2434699615406045e-31 2434699615406045e-
31 0 1 14 151 151 291 ?154 140 149 5 288 -0 0 154 140 22 51 290 171 0 140 288 18
 0 -.01475 .003 .0285 0 -1 0 .005 0 0 -1 14 140 153 292 ?151 293 137 5 290 -0 0
 151 293 22 50 18 172 0 293 290 6 0 +.01475 .003 .0335 23521674250533e-29 0 -1 -
1 0 -23521674250533e-29 14 293 155 294 ?140 17 72 5 18 -0 0 140 17 22 81 1 294 9
82 245 293 295 0 292 296 297 14 17 157 296 ?293 146 298 5 6 -0 0 293 146 22 15 7
2 154 0 43 293 0 17 43 0 72 73 23 41 40 115 0 136 +17 23 0 72 43 69 38 299 10 0
 114 +17 299 0 298 300 114 64 23 10 0 0 -17 114 0 298 299 68 38 145 112 0 0 +15
 298 156 0 114 17 0 17 68 0 298 114 300 20 33 108 0 145 +17 145 0 143 66 40 20 1
14 112 0 0 -17 66 0 143 60 145 55 63 67 0 0 -17 60 0 143 101 66 53 56 61 0 0 -17
 101 0 143 148 60 50 54 102 0 0 -17 300 0 298 68 299 11 29 127 0 0 -17 33 0 65 3
1 63 11 68 108 0 300 -15 65 142 0 63 276 0 17 31 0 65 62 33 26 25 32 0 0 -17 62
 0 65 63 31 55 58 104 0 66 +17 29 0 28 74 25 64 300 127 0 299 +17 74 0 28 80 29
 70 69 75 0 73 +17 80 0 28 83 74 76 138 142 0 141 +17 83 0 28 85 80 81 152 155 0
 150 +17 141 0 137 138 46 76 135 134 0 152 -17 152 0 149 135 150 76 83 155 0 0 -
81 1 296 983 245 17 301 0 294 302 303 80 255 1 245 304 305 9000 1 1 1 1 1 1 1 1
 0 FFFFTFTFFFFFFF1 81 1 301 897 306 17 0 296 307 295 308 81 1 302 984 245 249 30
9 0 296 310 311 82 255 1 303 -2025848575 14 249 624 302 ?312 241 313 5 257 -0 0
 312 241 22 81 1 309 913 306 249 0 302 314 315 316 81 1 310 985 245 312 315 0 30
2 317 318 82 1 311 186384688 14 312 669 310 ?319 249 320 5 321 -0 0 319 249 22 8
1 1 315 914 306 312 0 310 309 322 323 81 1 317 986 245 319 322 0 310 324 325 82
 1 318 206045488 14 319 674 317 ?326 312 327 5 328 -0 0 326 312 22 81 1 322 915
 306 319 0 317 315 329 330 81 1 324 987 245 326 329 0 317 331 332 82 1 325 20545
5664 14 326 719 324 ?230 319 333 5 334 -0 0 230 319 22 81 1 329 916 306 326 0 32
4 322 335 336 81 1 331 988 245 230 335 0 324 0 337 82 1 332 225050928 14 230 724
 331 ?0 326 338 5 339 -0 0 0 326 22 81 1 335 917 306 230 0 331 329 0 340 82 1 33
7 224461104 80 1 306 0 341 8001 0 0 0 0 3 5 0 0 0 FFFFTFTFFFFFFF2 83 255 3 340 .
898039215686275 .917647058823529 .929411764705882 79 255 15 341 SDL/TYSA_COLOUR1
5 338 727 0 342 230 228 52 255 339 734 0 230 0 334 0 +-.0130423425809937 .003 -.
02753 0 1 0 .00365 .707106781186548 .707106781186548 0 0 1 51 334 733 0 326 339
 328 0 +-.0130423425809937 .003 -.02753 0 1 0 .0018 0 0 1 52 328 684 0 319 334 3
21 0 +.0130423425809936 .003 -.02753 0 1 0 .00365 .707106781186548 .707106781186
548 0 0 1 51 321 683 0 312 328 257 0 +.0130423425809936 .003 -.02753 0 1 0 .0018
 0 0 1 52 257 634 0 249 321 251 0 +165327317884893e-32 .003 -.00494 0 1 0 .00365
 .707106781186548 .707106781186548 0 0 1 17 342 0 338 342 342 0 225 223 0 0 -17
 225 0 343 225 225 0 342 223 0 0 +15 343 723 0 225 326 0 83 3 336 .8980392156862
75 .917647058823529 .929411764705882 15 333 722 0 344 326 343 17 344 0 333 344 3
44 0 222 220 0 0 -17 222 0 281 222 222 0 344 220 0 0 +15 281 691 0 222 146 345 1
5 345 641 0 213 146 346 17 213 0 345 213 213 0 347 211 0 0 +15 346 592 0 204 146
 348 17 204 0 346 204 204 0 349 200 0 0 +15 348 522 0 202 146 350 17 202 0 348 2
02 202 0 256 194 0 0 +15 350 386 0 187 146 351 17 187 0 350 187 187 0 352 185 0
 0 +15 351 310 0 175 146 353 17 175 0 351 175 175 0 354 173 0 0 +15 353 234 0 16
3 146 143 17 163 0 353 163 163 0 355 161 0 0 +17 355 0 356 355 355 0 163 161 0 0
 -15 356 256 0 355 273 0 17 354 0 357 354 354 0 175 173 0 0 -15 357 332 0 354 26
5 0 17 352 0 358 352 352 0 187 185 0 0 -15 358 408 0 352 253 0 17 256 0 243 256
 256 0 202 194 0 0 -17 349 0 250 349 349 0 204 200 0 0 -15 250 622 0 349 241 359
 15 359 623 0 207 241 0 17 207 0 359 207 207 0 360 205 0 0 +17 360 0 313 360 360
 0 207 205 0 0 -15 313 627 0 360 249 361 15 361 628 0 210 249 0 17 210 0 361 210
 210 0 362 208 0 0 +17 362 0 363 362 362 0 210 208 0 0 -15 363 601 0 362 15 0 17
 347 0 320 347 347 0 213 211 0 0 -15 320 672 0 347 312 364 15 364 673 0 216 312
 0 17 216 0 364 216 216 0 365 214 0 0 +17 365 0 327 365 365 0 216 214 0 0 -15 32
7 677 0 365 319 366 15 366 678 0 219 319 0 17 219 0 366 219 219 0 235 217 0 0 +8
3 3 330 .898039215686275 .917647058823529 .929411764705882 83 3 323 .89803921568
6275 .917647058823529 .929411764705882 81 1 314 912 306 241 0 247 246 309 367 83
 3 316 .898039215686275 .917647058823529 .929411764705882 81 1 247 968 245 241 3
14 0 240 252 368 81 1 246 911 306 239 0 240 369 314 370 83 3 367 .89803921568627
5 .917647058823529 .929411764705882 81 1 369 910 306 242 0 252 371 246 372 83 3
 370 .898039215686275 .917647058823529 .929411764705882 81 1 252 969 245 242 369
 0 247 260 373 81 1 371 909 306 253 0 260 374 369 375 83 3 372 .898039215686275
 .917647058823529 .929411764705882 81 1 260 970 245 253 371 0 252 264 376 81 1 3
74 908 306 261 0 264 377 371 378 83 3 375 .898039215686275 .917647058823529 .929
411764705882 81 1 264 971 245 261 374 0 260 268 379 81 1 377 907 306 265 0 268 3
80 374 381 83 3 378 .898039215686275 .917647058823529 .929411764705882 81 1 268
 972 245 265 377 0 264 272 382 81 1 380 906 306 269 0 272 383 377 384 83 3 381 .
898039215686275 .917647058823529 .929411764705882 81 1 272 973 245 269 380 0 268
 275 385 81 1 383 905 306 273 0 275 386 380 387 83 3 384 .898039215686275 .91764
7058823529 .929411764705882 81 1 275 974 245 273 383 0 272 280 388 81 1 386 904
 306 276 0 283 389 383 390 83 3 387 .898039215686275 .917647058823529 .929411764
705882 81 1 283 976 245 276 386 0 280 285 391 81 1 389 903 306 106 0 285 392 386
 393 83 3 390 .898039215686275 .917647058823529 .929411764705882 81 1 285 977 24
5 106 389 0 283 287 394 81 1 392 902 306 100 0 287 395 389 396 83 3 393 .8980392
15686275 .917647058823529 .929411764705882 81 1 287 978 245 100 392 0 285 289 39
7 81 1 395 901 306 154 0 289 398 392 399 83 3 396 .898039215686275 .917647058823
529 .929411764705882 81 1 289 979 245 154 395 0 287 291 400 81 1 398 900 306 151
 0 291 401 395 402 83 3 399 .898039215686275 .917647058823529 .929411764705882 8
1 1 291 980 245 151 398 0 289 292 403 81 1 401 899 306 140 0 292 295 398 404 83
 3 402 .898039215686275 .917647058823529 .929411764705882 81 1 292 981 245 140 4
01 0 291 294 405 81 1 295 898 306 293 0 294 301 401 406 83 3 404 .89803921568627
5 .917647058823529 .929411764705882 83 3 406 .898039215686275 .917647058823529 .
929411764705882 82 1 405 -2026372863 82 1 403 -2026635007 82 1 400 -2026897151 8
2 1 397 -2027159295 82 1 394 -2027421439 81 1 280 975 245 146 307 0 275 283 407
 82 1 391 -2027683583 81 1 307 896 306 146 0 280 408 301 409 82 1 407 1268318512
 81 1 408 895 306 15 0 233 0 307 410 83 3 409 .898039215686275 .917647058823529
 .929411764705882 81 1 233 966 245 15 408 0 0 240 411 83 3 410 .898039215686275
 .917647058823529 .929411764705882 82 1 411 230752560 82 1 388 -2020015871 82 1
 385 -2015952639 82 1 382 -2011889407 82 1 379 -2007826175 82 1 376 -2003762943
 82 1 373 -1999699711 82 1 368 186974512 83 3 308 .898039215686275 .917647058823
529 .929411764705882 79 14 305 SWEntUnchanged82 1 297 -2026110719 15 277 255 0 1
66 273 356 17 166 0 277 166 166 0 412 116 0 0 +17 412 0 90 412 412 0 166 116 0 0
 -15 90 241 0 412 15 413 15 413 279 0 414 15 415 17 414 0 413 414 414 0 172 164
 0 0 -15 415 317 0 416 15 417 17 416 0 415 416 416 0 178 170 0 0 -15 417 355 0 4
18 15 419 17 418 0 417 418 418 0 184 176 0 0 -15 419 393 0 420 15 421 17 420 0 4
19 420 420 0 190 182 0 0 -15 421 431 0 422 15 363 17 422 0 421 422 422 0 196 188
 0 0 -17 196 0 254 196 196 0 422 188 0 0 +15 254 445 0 196 242 423 15 423 446 0
 424 242 0 17 424 0 423 424 424 0 193 191 0 0 -17 193 0 425 193 193 0 424 191 0
 0 +15 425 424 0 193 146 0 17 190 0 262 190 190 0 420 182 0 0 +15 262 407 0 190
 253 358 17 184 0 266 184 184 0 418 176 0 0 +15 266 369 0 184 261 426 15 426 370
 0 427 261 0 17 427 0 426 427 427 0 181 179 0 0 -17 181 0 428 181 181 0 427 179
 0 0 +15 428 348 0 181 146 425 17 178 0 270 178 178 0 416 170 0 0 +15 270 331 0
 178 265 357 17 172 0 274 172 172 0 414 164 0 0 +15 274 293 0 172 269 429 15 429
 294 0 430 269 0 17 430 0 429 430 430 0 169 167 0 0 -17 169 0 147 169 169 0 430
 167 0 0 +15 147 272 0 169 146 428 82 1 248 961282346 17 97 0 96 54 87 50 95 103
 0 101 +19 16 175 0 1 0 9 5 S0 74 4 CI16 index_map_offset0 0 1 dCCZ20 14 3 0 0 3
31 2 335 0 0 0 0 0 0 0 0 0 0 0 0 0 0 0 0 0 80 2 12 431 432 8004 0 0 0 0 3 5 0 0
 0 FFTFFFFFFFFFFF2 3 83 1 13 27e2 79 16 432 SDL/TYSA_DENSITY1 0 
