**ABCDEFGHIJKLMNOPQRSTUVWXYZabcdefghijklmnopqrstuvwxyz**************************
**PARASOLID !"#$%&'()*+,-./:;<=>?@[\]^_`{|}~0123456789**************************
**PART1;
MC=AMD64;
MC_MODEL=Intel64 Family 6 Model 60 Stepping 3, GenuineIntel;
MC_ID=unknown;
OS=Windows_NT;
OS_RELEASE=unknown;
FRU=Parasolid Version 27.0, build 207,  1-23-2015;
APPL=SOLIDWORKS 2015-2015313;
SITE=;
USER=unknown;
FORMAT=text;
GUISE=transmit;
KEY=L_BRACKET;
FILE=L_BRACKET.x_t;
DATE=Tue Apr 26 21:56:47 2016;
**PART2;
SCH=SCH_2700207_26105;
USFLD_SIZE=0;
**PART3;
**END_OF_HEADER*****************************************************************
T51 : TRANSMIT FILE created by modeller version 270020723 SCH_2700207_26105_1300
6196 0 12 30 CCCCCCCCCCCCCDI5 owner1040 0 CCCCCCCCCA13 boundary_mesh1006 0 A16 i
ndex_map_offset0 0 1 dA9 index_map82 0 A17 node_id_index_map82 0 A20 schema_embe
dding_map82 0 A5 child12 0 A14 lowest_node_id0 0 1 dZ1 1088 2 3 0 0 0 0 1e3 1e-8
 0 4 0 1 0 1 1 5 6 7 8 9 10 11 0 0 0 0 0 0 0 81 255 2 2 871 12 1 0 0 0 0 13 0 70
 11 CI9 list_type0 0 1 uI10 notransmit0 0 1 lCCCDCCDI12 finger_index0 0 1 dI12 f
inger_block1012 0 CZ3 0 4 T1 0 0 3 20 1 14 14 13 255 5 155 0 1 0 15 0 0 16 0 50
 255 6 154 0 15 17 0 0 +.0192532 0 -.0018034 1 0 0 0 0 -1 30 255 7 594 0 10 18 0
 0 +.00716511376555004 .02355002182678025 -9017e-7 0 0 1 29 255 8 696 0 11 19 0
 -.0023368 .0192532 0 19 8 CCCCCCCA5 owner12 0 Z9 51 0 1 16 0 20 V0 16 255 10 59
2 0 ?21 0 22 7 0 0 1 18 255 11 694 0 23 0 24 8 ?1 17 255 23 0 25 26 27 11 28 29
 0 30 +18 24 580 0 31 11 32 19 ?1 17 31 0 33 34 35 24 36 37 0 38 -18 32 47 0 39
 24 40 41 ?1 29 19 581 0 24 42 8 .00716511376555017 .02765637817321985 -.0018034
 29 42 119 0 43 44 19 .0192532 .0192532 0 18 43 106 0 45 46 47 42 ?1 29 44 122 0
 47 48 42 .0319532 .0319532 0 18 47 109 0 49 43 50 44 ?1 29 48 123 0 50 51 44 .0
319532 -.0319532 0 18 50 110 0 52 47 53 48 ?1 29 51 124 0 53 41 48 .0192532 -.03
19532 0 18 53 111 0 54 50 55 51 ?1 29 41 49 0 32 56 51 .0192532 .0192532 -.00180
34 29 56 40 0 40 57 41 .0319532 .0319532 -.0018034 18 40 38 0 58 32 59 56 ?1 29
 57 37 0 59 60 56 .0319532 -.0319532 -.0018034 18 59 35 0 61 40 46 57 ?1 29 60 3
4 0 46 62 57 .0192532 -.0319532 -.0018034 18 46 32 0 63 59 43 60 ?1 29 62 662 0
 55 64 60 .00716511376555004 .02355002182678025 -2021891865391615e-37 18 55 627
 0 65 53 66 62 ?1 29 64 663 0 66 67 62 .00716511376555017 .02765637817321985 -20
21891865391615e-37 18 66 625 0 34 55 68 64 ?1 29 67 664 0 68 69 64 .007165113765
55004 .02355002182678025 -.0018034 18 68 626 0 35 66 70 67 ?1 29 69 841 0 70 71
 67 -.0023368 .0319532 -.0018034 18 70 767 0 72 68 73 69 ?1 29 71 842 0 73 74 69
 -.0023368 .0192532 -.0018034 18 73 769 0 27 70 75 71 ?1 29 74 845 0 75 0 71 -.0
023368 .0319532 0 18 75 764 0 26 73 0 74 ?1 17 26 0 25 72 23 75 30 76 0 77 +15 2
55 25 781 0 23 78 0 17 72 0 25 27 26 70 77 79 0 80 -17 30 0 81 45 82 11 26 76 0
 83 -16 76 742 0 ?26 29 0 84 0 0 1 17 77 0 85 86 87 75 72 79 0 82 +15 85 713 0 7
7 88 0 17 86 0 85 58 77 47 82 89 0 90 -17 87 0 85 77 58 70 91 92 0 0 +16 79 728
 0 ?77 93 29 94 0 0 1 17 82 0 81 30 90 75 86 89 0 0 +15 81 698 0 30 95 96 17 90
 0 81 82 97 47 98 99 0 0 +16 89 85 0 ?82 100 99 101 0 0 1 16 100 73 0 ?83 102 89
 103 0 0 1 16 99 90 0 ?90 89 104 105 0 0 1 30 101 115 0 89 105 103 0 +-346944695
1953615e-33 .0319532 0 -1 -1085790140566082e-31 0 30 105 116 0 99 106 101 0 +.03
19532 0 0 0 1 0 30 103 113 0 100 101 107 0 +0 .0192532 0 -1 0 0 30 107 143 0 108
 103 109 0 +.0192532 .0192532 -.0018034 0 0 1 16 108 125 0 ?110 22 111 107 0 0 1
 30 109 146 0 111 107 112 0 +.0319532 .0319532 -.0018034 0 0 1 16 111 128 0 ?49
 108 113 109 0 0 1 30 112 147 0 113 109 114 0 +.0319532 -.0319532 -.0018034 0 0
 1 16 113 129 0 ?52 111 115 112 0 0 1 30 114 148 0 115 112 18 0 +.0192532 -.0319
532 -.0018034 0 0 1 16 115 130 0 ?116 113 117 114 0 0 1 30 18 591 0 22 114 7 0 -
.00716511376555017 .02765637817321985 -9017e-7 0 0 1 16 22 590 0 ?38 10 108 18 0
 0 1 17 38 0 118 119 120 24 34 22 0 121 +15 118 342 0 119 122 0 17 119 0 118 21
 38 68 121 123 0 0 -17 120 0 118 38 21 66 124 125 0 0 +17 34 0 33 65 31 66 38 22
 0 126 -17 121 0 127 36 36 24 119 123 0 0 +15 127 318 0 121 128 129 17 36 0 127
 121 121 68 31 37 0 119 +16 123 583 0 ?121 130 125 131 0 0 1 16 130 100 0 ?132 1
04 123 133 0 0 1 16 125 588 0 ?120 123 134 135 0 0 1 31 255 131 348 0 123 135 13
6 0 +.0084328 .0256032 -.0018034 0 0 1 1 0 0 .002413 31 135 349 0 125 137 131 0
 +.0084328 .0256032 -2863309941682465e-34 0 0 1 1 0 0 .002413 30 136 6 0 102 131
 138 0 +.0192532 0 -.0018034 0 1 0 16 102 5 0 ?139 140 100 136 0 0 1 30 138 11 0
 140 136 141 0 +0 -.0319532 -.0018034 -1 0 0 16 140 10 0 ?63 142 102 138 0 0 1 3
0 141 15 0 142 138 143 0 +.0319532 0 -.0018034 0 1 0 16 142 14 0 ?144 92 140 141
 0 0 1 30 143 19 0 92 141 145 0 +-3469446951953615e-33 .0319532 -.0018034 -1 -10
85790140566082e-31 0 16 92 18 0 ?87 117 142 143 0 0 1 30 145 27 0 117 143 133 0
 +0 .0192532 -.0018034 -1 0 0 16 117 26 0 ?146 115 92 145 0 0 1 30 133 118 0 130
 145 106 0 +.0192532 0 0 0 1 0 30 106 117 0 104 133 105 0 +0 -.0319532 0 -1 0 0
 16 104 95 0 ?54 99 130 106 0 0 1 17 54 0 147 148 52 53 97 104 0 116 +15 147 139
 0 54 149 0 17 148 0 147 150 54 46 116 115 0 151 -17 52 0 147 54 150 50 61 113 0
 97 +17 97 0 81 90 152 50 54 104 0 98 -17 116 0 153 132 151 53 148 115 0 152 +15
 153 141 0 132 15 0 17 132 0 153 154 116 43 152 130 0 0 +17 151 0 153 116 154 46
 139 102 0 0 -17 152 0 81 97 45 53 132 130 0 0 -17 45 0 81 152 30 43 83 100 0 11
0 -17 83 0 155 28 110 11 45 100 0 0 +17 110 0 155 83 39 43 154 108 0 132 +15 155
 131 0 83 156 0 17 39 0 155 110 28 32 146 117 0 139 -17 154 0 153 151 132 32 110
 108 0 0 -17 28 0 155 39 83 73 23 29 0 146 -17 146 0 129 80 139 73 39 117 0 0 +1
7 139 0 129 146 63 32 151 102 0 154 +15 129 4 0 146 128 0 17 63 0 129 139 157 46
 150 140 0 148 +17 157 0 129 63 91 59 144 142 0 0 -17 150 0 147 52 148 59 63 140
 0 157 -17 91 0 129 157 80 40 87 92 0 144 -17 144 0 158 49 61 40 157 142 0 0 +15
 158 137 0 98 159 0 17 49 0 158 98 144 47 58 111 0 86 +17 61 0 158 144 98 59 52
 113 0 150 -17 98 0 158 61 49 50 90 99 0 0 -17 58 0 85 87 86 40 49 111 0 91 -14
 255 159 138 160 ?149 88 158 5 161 +0 0 149 88 20 81 1 160 1076 162 159 163 0 0
 164 165 14 149 140 164 ?128 159 147 5 17 -0 0 128 159 20 14 88 136 166 ?159 156
 85 5 167 +0 0 159 156 20 50 161 152 0 159 167 17 0 +.0319532 0 -.0018034 1 0 0
 0 0 -1 13 20 52 0 0 0 0 0 0 9 15 14 15 142 168 ?156 0 153 5 6 -0 0 156 0 20 81
 1 168 1079 162 15 169 0 166 170 171 14 156 132 170 ?88 15 155 5 172 -0 0 88 15
 20 81 1 170 1080 162 156 173 0 168 174 175 50 172 149 0 156 176 167 0 +0 .01925
32 -.0018034 0 1 0 0 0 1 50 176 112 0 95 177 172 0 +0 0 0 0 0 1 1 0 0 50 167 151
 0 88 172 161 0 +-3469446951953615e-33 .0319532 -.0018034 -1085790140566082e-31
 1 0 -1 -1085790140566082e-31 0 14 95 70 174 ?122 128 81 5 176 +0 0 122 128 20 5
0 177 2 0 128 178 176 0 +0 0 -.0018034 0 0 1 1 0 0 14 128 1 179 ?95 149 180 5 17
7 -0 0 95 149 20 51 255 178 347 0 122 181 177 0 +.0084328 .0256032 0 0 0 1 .0024
13 1 0 0 14 122 338 182 ?183 95 118 5 178 -0 0 183 95 20 51 181 458 0 183 184 17
8 0 +.0256032 .0256032 0 0 0 1 .002579751 1 0 0 14 183 449 185 ?186 122 187 5 18
1 -0 0 186 122 20 51 184 514 0 186 188 181 0 +.0256032 -.0193802 0 0 0 1 .002579
751 1 0 0 14 186 505 189 ?190 183 191 5 184 -0 0 190 183 20 51 188 573 0 190 192
 184 0 +.0256032 .0084328 0 0 0 1 .002579751 1 0 0 14 190 564 193 ?194 186 195 5
 188 -0 0 194 186 20 51 192 657 0 194 196 188 0 +.0056032 .0256032 0 0 0 1 .0025
79751 1 0 0 14 194 637 197 ?78 190 33 5 192 -0 0 78 190 20 50 196 821 0 78 0 192
 0 +-.0023368 .0319532 -.00254 1 0 0 0 0 -1 14 78 778 198 ?0 194 25 5 196 -0 0 0
 194 20 81 1 198 1088 162 78 199 0 197 0 200 80 255 1 162 201 202 9000 1 1 1 1 1
 1 1 1 0 FFFFTFTFFFFFFF1 81 1 199 1044 203 78 0 198 204 0 205 81 1 197 1087 162
 194 204 0 193 198 206 82 255 1 200 -695467824 81 1 204 1043 203 194 0 197 207 1
99 208 81 1 193 1086 162 190 207 0 189 197 209 82 1 206 -733806386 81 1 207 1042
 203 190 0 193 210 204 211 81 1 189 1085 162 186 210 0 185 193 212 82 1 209 -766
246706 81 1 210 1041 203 186 0 189 213 207 214 81 1 185 1084 162 183 213 0 182 1
89 215 82 1 212 -782171954 81 1 213 1040 203 183 0 185 216 210 217 81 1 182 1083
 162 122 216 0 179 185 218 82 1 215 -798162738 81 1 216 1039 203 122 0 182 219 2
13 220 81 1 179 1082 162 128 221 0 174 182 222 82 1 218 1475018958 81 1 221 1037
 203 128 0 179 223 219 224 81 1 174 1081 162 95 219 0 170 179 225 82 1 222 -1544
093488 81 1 219 1038 203 95 0 174 221 216 226 82 1 225 -1546125104 80 1 203 0 22
7 8001 0 0 0 0 3 5 0 0 0 FFFFTFTFFFFFFF2 83 255 3 226 .792156862745098 .81960784
3137255 .933333333333333 79 255 15 227 SDL/TYSA_COLOUR81 1 223 1036 203 149 0 16
4 163 221 228 83 3 224 .792156862745098 .819607843137255 .933333333333333 81 1 1
64 1077 162 149 223 0 160 166 229 81 1 163 1035 203 159 0 160 230 223 231 83 3 2
28 .792156862745098 .819607843137255 .933333333333333 81 1 230 1034 203 88 0 166
 173 163 232 83 3 231 .792156862745098 .819607843137255 .933333333333333 81 1 16
6 1078 162 88 230 0 164 168 233 81 1 173 1033 203 156 0 170 169 230 234 83 3 232
 .792156862745098 .819607843137255 .933333333333333 81 1 169 1032 203 15 0 168 0
 173 235 83 3 234 .792156862745098 .819607843137255 .933333333333333 83 3 235 .7
92156862745098 .819607843137255 .933333333333333 82 1 233 -1544486704 82 1 229 1
105985706 83 3 220 .792156862745098 .819607843137255 .933333333333333 83 3 217 .
792156862745098 .819607843137255 .933333333333333 83 3 214 .792156862745098 .819
607843137255 .933333333333333 83 3 211 .792156862745098 .819607843137255 .933333
333333333 83 3 208 .792156862745098 .819607843137255 .933333333333333 83 3 205 .
792156862745098 .819607843137255 .933333333333333 79 14 202 SWEntUnchanged15 33
 640 0 31 194 0 15 195 567 0 236 190 237 17 236 0 195 236 236 0 238 239 0 0 -15
 237 568 0 240 190 0 17 240 0 237 240 240 0 241 242 0 0 +17 241 0 243 241 241 0
 240 242 0 0 -16 242 542 0 ?240 239 37 244 0 0 1 16 239 545 0 ?238 245 242 246 0
 0 1 16 37 620 0 ?36 242 247 248 0 0 1 31 244 577 0 242 248 246 0 +.0256032 .008
4328 -2021891865391615e-37 0 0 1 1 0 0 .002579751 31 248 660 0 37 249 244 0 +.00
56032 .0256032 -.0018034 0 0 1 1 0 0 .002579751 31 246 576 0 239 244 250 0 +.025
6032 .0084328 -.0018034 0 0 1 1 0 0 .002579751 31 250 518 0 245 246 251 0 +.0256
032 -.0193802 -2021891865391615e-37 0 0 1 1 0 0 .002579751 16 245 483 0 ?252 253
 239 250 0 0 1 31 251 517 0 253 250 254 0 +.0256032 -.0193802 -.0018034 0 0 1 1
 0 0 .002579751 16 253 486 0 ?255 256 245 251 0 0 1 31 254 460 0 256 251 137 0 +
.0256032 .0256032 -2021891865391615e-37 0 0 1 1 0 0 .002579751 16 256 439 0 ?257
 134 253 254 0 0 1 31 137 459 0 134 254 135 0 +.0256032 .0256032 -.0018034 0 0 1
 1 0 0 .002579751 16 134 440 0 ?258 125 256 137 0 0 1 17 258 0 259 258 258 0 260
 134 0 0 +15 259 429 0 258 128 127 17 260 0 187 260 260 0 258 134 0 0 -15 187 45
2 0 260 183 261 15 261 453 0 257 183 0 17 257 0 261 257 257 0 262 256 0 0 +17 26
2 0 263 262 262 0 257 256 0 0 -15 263 420 0 262 95 0 17 255 0 264 255 255 0 265
 253 0 0 +15 264 473 0 255 128 259 17 265 0 191 265 265 0 255 253 0 0 -15 191 50
8 0 265 186 266 15 266 509 0 252 186 0 17 252 0 266 252 252 0 267 245 0 0 +17 26
7 0 268 267 267 0 252 245 0 0 -15 268 464 0 267 95 263 31 249 661 0 247 269 248
 0 +.0056032 .0256032 -2021891865391615e-37 0 0 1 1 0 0 .002579751 16 247 617 0
 ?65 37 93 249 0 0 1 30 269 825 0 93 270 249 0 +-.0023368 0 -.0018034 0 1 0 16 9
3 727 0 ?80 247 79 269 0 0 1 30 270 831 0 29 94 269 0 +-.0023368 .0192532 -.0025
4 0 0 1 16 29 730 0 ?23 79 76 270 0 0 1 30 94 832 0 79 84 270 0 +-.0023368 .0319
532 -.00254 0 0 1 30 84 833 0 76 0 94 0 +-.0023368 .0319532 0 0 1 0 17 80 0 129
 91 146 70 27 93 0 87 +17 27 0 25 23 72 73 80 93 0 28 -17 65 0 33 35 34 55 126 2
47 0 21 +17 35 0 33 31 65 68 21 10 0 36 -17 126 0 96 124 124 66 65 247 0 120 -17
 21 0 118 120 119 55 35 10 0 124 +17 124 0 96 126 126 55 120 125 0 0 -15 96 599
 0 126 95 243 15 243 523 0 241 95 268 17 238 0 180 238 238 0 236 239 0 0 +15 180
 532 0 238 128 264 82 1 175 -1545010992 82 1 171 1106313386 50 17 153 0 149 161
 6 0 +0 -.0319532 -.0018034 0 1 0 0 0 1 82 1 165 1105854634 19 16 156 0 1 0 9 5
 S0 74 4 CI16 index_map_offset0 0 1 dCCZ20 14 3 0 0 198 2 199 0 0 0 0 0 0 0 0 0
 0 0 0 0 0 0 0 0 80 2 12 271 272 8004 0 0 0 0 3 5 0 0 0 FFTFFFFFFFFFFF2 3 83 1 1
3 1e3 79 16 272 SDL/TYSA_DENSITY1 0 
