**ABCDEFGHIJKLMNOPQRSTUVWXYZabcdefghijklmnopqrstuvwxyz**************************
**PARASOLID !"#$%&'()*+,-./:;<=>?@[\]^_`{|}~0123456789**************************
**PART1;
MC=AMD64;
MC_MODEL=Intel64 Family 6 Model 60 Stepping 3, GenuineIntel;
MC_ID=unknown;
OS=Windows_NT;
OS_RELEASE=unknown;
FRU=Parasolid Version 27.0, build 207,  1-23-2015;
APPL=SOLIDWORKS 2015-2015313;
SITE=;
USER=unknown;
FORMAT=text;
GUISE=transmit;
KEY=LASER_PLATE;
FILE=LASER_PLATE.x_t;
DATE=Tue Apr 26 21:58:21 2016;
**PART2;
SCH=SCH_2700207_26105;
USFLD_SIZE=0;
**PART3;
**END_OF_HEADER*****************************************************************
T51 : TRANSMIT FILE created by modeller version 270020723 SCH_2700207_26105_1300
6196 0 12 30 CCCCCCCCCCCCCDI5 owner1040 0 CCCCCCCCCA13 boundary_mesh1006 0 A16 i
ndex_map_offset0 0 1 dA9 index_map82 0 A17 node_id_index_map82 0 A20 schema_embe
dding_map82 0 A5 child12 0 A14 lowest_node_id0 0 1 dZ1 1012 2 3 0 0 0 0 1e3 1e-8
 0 4 0 1 0 1 1 5 6 7 8 9 10 11 0 0 0 0 0 0 0 81 255 2 2 786 12 1 0 0 0 0 13 0 70
 11 CI9 list_type0 0 1 uI10 notransmit0 0 1 lCCCDCCDI12 finger_index0 0 1 dI12 f
inger_block1012 0 CZ3 0 4 T1 0 0 3 20 1 14 14 13 255 5 298 0 1 0 15 0 0 16 0 50
 255 6 297 0 17 18 0 0 +-.025 0 .00635 -1 0 0 0 0 1 30 255 7 285 0 19 20 0 0 +-.
025 -.0769874 .00635 0 0 -1 29 255 8 226 0 21 22 0 -.012827 -.0699897 0 19 8 CCC
CCCCA5 owner12 0 Z9 96 0 1 16 0 23 V0 16 255 10 241 0 ?24 0 25 26 0 0 1 18 255 1
1 91 0 27 0 28 29 ?1 17 255 27 0 30 31 32 11 33 34 0 35 +18 28 88 0 36 11 37 38
 ?1 29 29 93 0 11 38 39 -.012827 -.0699897 .00635 29 38 90 0 28 40 29 -.012827 -
.031341450548398 .00635 29 39 237 0 41 29 42 -.025 -.0769874 0 18 41 212 0 43 44
 0 39 ?1 29 42 236 0 44 39 45 .025 -.0769874 0 18 44 211 0 46 47 41 42 ?1 29 45
 235 0 47 42 48 .025 .025 0 18 47 210 0 49 50 44 45 ?1 29 48 234 0 50 45 51 -.02
5 .025 0 18 50 209 0 52 53 47 48 ?1 29 51 233 0 53 48 54 .012827 -.0699897 0 18
 53 208 0 55 56 50 51 ?1 29 54 232 0 56 51 57 .012827 -.031341450548398 0 18 56
 207 0 58 59 53 54 ?1 29 57 231 0 59 54 60 .019177 -.031341450548398 0 18 59 206
 0 61 62 56 57 ?1 29 60 230 0 62 57 63 .019177 -.0699897 0 18 62 205 0 64 65 59
 60 ?1 29 63 229 0 65 60 66 -.019177 -.0699897 0 18 65 204 0 24 67 62 63 ?1 29 6
6 228 0 67 63 22 -.019177 -.031341450548398 0 18 67 203 0 68 69 65 66 ?1 29 22 2
27 0 69 66 8 -.012827 -.031341450548398 0 18 69 202 0 70 21 67 22 ?1 17 70 0 71
 72 33 69 36 73 0 74 +18 21 201 0 75 76 69 8 ?1 17 75 0 77 78 79 21 35 80 0 72 +
18 76 58 0 81 82 21 83 ?1 17 81 0 84 85 86 76 43 19 0 87 -18 82 61 0 88 89 76 90
 ?1 29 83 60 0 76 0 90 -.025 -.0769874 .00635 29 90 63 0 82 83 91 .025 -.0769874
 .00635 29 91 66 0 89 90 92 .025 .025 .00635 18 89 64 0 93 94 82 91 ?1 29 92 69
 0 94 91 95 -.025 .025 .00635 18 94 67 0 96 97 89 92 ?1 29 95 72 0 97 92 98 .012
827 -.0699897 .00635 18 97 70 0 99 100 94 95 ?1 29 98 75 0 100 95 101 .012827 -.
031341450548398 .00635 18 100 73 0 102 103 97 98 ?1 29 101 78 0 103 98 104 .0191
77 -.031341450548398 .00635 18 103 76 0 105 106 100 101 ?1 29 104 81 0 106 101 1
07 .019177 -.0699897 .00635 18 106 79 0 108 109 103 104 ?1 29 107 84 0 109 104 4
0 -.019177 -.0699897 .00635 18 109 82 0 110 37 106 107 ?1 29 40 87 0 37 107 38 -
.019177 -.031341450548398 .00635 18 37 85 0 111 28 109 40 ?1 17 111 0 112 113 11
4 37 68 25 0 115 -15 255 112 254 0 114 116 0 17 113 0 112 24 111 109 115 117 0 0
 +17 114 0 112 111 24 67 118 119 0 120 -17 68 0 121 122 123 67 111 25 0 114 +16
 25 240 0 ?68 10 73 124 0 0 1 17 115 0 30 32 31 37 113 117 0 123 -15 30 5 0 31 1
25 0 17 32 0 30 27 115 28 123 126 0 0 -17 31 0 30 115 27 109 79 127 0 113 -16 11
7 46 0 ?113 126 127 128 0 0 1 17 123 0 121 68 36 37 32 126 0 0 +15 121 252 0 122
 129 0 17 36 0 121 123 122 28 70 73 0 33 -16 126 50 0 ?123 34 117 130 0 0 1 16 3
4 54 0 ?27 131 126 132 0 0 1 31 255 130 51 0 126 128 132 0 +-.016002 -.031341450
548398 .00635 0 0 1 1 0 0 .003175 30 128 47 0 117 133 130 0 +-.019177 -172151611
3709945e-33 .00635 897698343698152e-31 -1 0 30 132 55 0 34 130 134 0 +-.012827 -
172721649819243e-32 .00635 134654751554723e-30 -1 0 30 134 225 0 135 132 136 0 +
-.025 0 0 0 1 0 16 135 194 0 ?137 138 139 134 0 0 1 30 136 224 0 138 134 140 0 +
0 -.0769874 0 1 0 0 16 138 189 0 ?46 141 135 136 0 0 1 30 140 223 0 141 136 142
 0 +.025 0 0 0 1 0 16 141 182 0 ?49 143 138 140 0 0 1 30 142 222 0 143 140 144 0
 +-555111512312583e-31 .025 0 -1 -2220446049250315e-30 0 16 143 177 0 ?145 146 1
41 142 0 0 1 31 144 221 0 146 142 147 0 +.016002 -.0699897 0 0 0 1 1 0 0 .003175
 16 146 172 0 ?148 149 143 144 0 0 1 30 147 220 0 149 144 150 0 +.012827 2302955
33092324e-32 0 1795396687396305e-31 -1 0 16 149 167 0 ?151 152 146 147 0 0 1 31
 150 219 0 152 147 153 0 +.016002 -.031341450548398 0 0 0 1 1 0 0 .003175 16 152
 162 0 ?154 155 149 150 0 0 1 30 153 218 0 155 150 156 0 +.019177 17215161137099
45e-33 0 897698343698152e-31 -1 0 16 155 157 0 ?157 158 152 153 0 0 1 31 156 217
 0 158 153 159 0 +-.016002 -.0699897 0 0 0 1 1 0 0 .003175 16 158 152 0 ?160 119
 155 156 0 0 1 30 159 216 0 119 156 161 0 +-.019177 -1721516113709945e-33 0 8976
98343698152e-31 -1 0 16 119 147 0 ?118 162 158 159 0 0 1 31 161 215 0 162 159 16
3 0 +-.016002 -.031341450548398 0 0 0 1 1 0 0 .003175 16 162 142 0 ?120 164 119
 161 0 0 1 30 163 214 0 164 161 165 0 +-.012827 -172721649819243e-32 0 134654751
554723e-30 -1 0 16 164 137 0 ?72 166 162 163 0 0 1 30 165 274 0 80 163 167 0 +-.
012827 -.0699897 .00635 0 0 -1 16 80 238 0 ?75 73 168 165 0 0 1 30 167 275 0 73
 165 124 0 +-.012827 -.031341450548398 .00635 0 0 -1 16 73 239 0 ?70 25 80 167 0
 0 1 30 124 276 0 25 167 26 0 +-.019177 -.031341450548398 .00635 0 0 -1 30 26 27
7 0 10 124 169 0 +-.019177 -.0699897 .00635 0 0 -1 30 169 278 0 170 26 171 0 +.0
19177 -.0699897 .00635 0 0 -1 16 170 242 0 ?64 172 19 169 0 0 1 30 171 279 0 172
 169 173 0 +.019177 -.031341450548398 .00635 0 0 -1 16 172 243 0 ?61 174 170 171
 0 0 1 30 173 280 0 174 171 175 0 +.012827 -.031341450548398 .00635 0 0 -1 16 17
4 244 0 ?58 168 172 173 0 0 1 30 175 281 0 168 173 176 0 +.012827 -.0699897 .006
35 0 0 -1 16 168 245 0 ?55 80 174 175 0 0 1 30 176 282 0 131 175 177 0 +-.025 .0
25 .00635 0 0 -1 16 131 246 0 ?52 178 34 176 0 0 1 30 177 283 0 178 176 20 0 +.0
25 .025 .00635 0 0 -1 16 178 247 0 ?179 180 131 177 0 0 1 30 20 284 0 180 177 7
 0 +.025 -.0769874 .00635 0 0 -1 16 180 248 0 ?181 19 178 20 0 0 1 17 181 0 182
 49 183 44 184 180 0 185 +16 19 249 0 ?43 170 180 7 0 0 1 17 43 0 186 46 87 41 8
1 19 0 187 +15 186 270 0 46 188 0 17 46 0 186 184 43 44 187 138 0 181 +17 87 0 1
86 43 184 76 88 189 0 190 -17 187 0 191 137 185 41 46 138 0 86 -15 191 134 0 137
 192 193 17 137 0 191 194 187 50 86 135 0 0 +17 185 0 191 187 194 44 49 141 0 0
 -17 86 0 84 81 52 41 137 135 0 0 -15 84 272 0 86 17 0 17 52 0 84 86 85 50 195 1
31 0 145 +17 85 0 84 52 81 94 190 166 0 0 +17 195 0 196 197 145 94 52 131 0 85 -
17 145 0 196 195 179 50 194 143 0 137 +15 196 266 0 145 198 0 17 179 0 196 145 1
97 47 199 178 0 194 +17 194 0 191 185 137 47 145 143 0 0 -17 197 0 196 179 195 8
9 96 200 0 0 -17 199 0 182 183 49 89 179 178 0 197 -15 182 268 0 49 201 0 17 183
 0 182 181 199 82 93 202 0 0 -17 49 0 182 199 181 47 185 141 0 179 +17 93 0 203
 96 88 89 183 202 0 199 +16 202 16 0 ?93 200 189 204 0 0 1 16 200 22 0 ?96 205 2
02 206 0 0 1 16 189 12 0 ?88 202 166 207 0 0 1 30 204 17 0 202 207 206 0 +.025 0
 .00635 0 1 0 30 207 13 0 189 208 204 0 +0 -.0769874 .00635 1 0 0 30 206 23 0 20
0 204 209 0 +-555111512312583e-31 .025 .00635 -1 -2220446049250315e-30 0 31 209
 27 0 205 206 210 0 +.016002 -.0699897 .00635 0 0 1 1 0 0 .003175 16 205 26 0 ?2
11 212 200 209 0 0 1 30 210 31 0 212 209 213 0 +.012827 230295533092324e-32 .006
35 1795396687396305e-31 -1 0 16 212 30 0 ?214 215 205 210 0 0 1 31 213 35 0 215
 210 216 0 +.016002 -.031341450548398 .00635 0 0 1 1 0 0 .003175 16 215 34 0 ?21
7 218 212 213 0 0 1 30 216 39 0 218 213 133 0 +.019177 1721516113709945e-33 .006
35 897698343698152e-31 -1 0 16 218 38 0 ?108 127 215 216 0 0 1 31 133 43 0 127 2
16 128 0 +-.016002 -.0699897 .00635 0 0 1 1 0 0 .003175 16 127 42 0 ?79 117 218
 133 0 0 1 17 79 0 77 75 110 11 31 127 0 0 +15 77 256 0 78 15 0 17 110 0 77 79 7
8 109 24 10 0 31 -17 78 0 77 110 75 65 160 158 0 118 -17 24 0 112 114 113 65 110
 10 0 78 +17 160 0 219 74 118 21 78 158 0 0 +17 118 0 219 160 120 65 114 119 0 0
 +15 219 136 0 160 192 0 17 120 0 219 118 74 67 122 162 0 0 +17 74 0 219 120 160
 69 72 164 0 122 -17 122 0 121 36 68 69 120 162 0 0 -17 72 0 71 35 70 21 74 164
 0 160 +15 71 250 0 72 220 0 17 35 0 71 33 72 11 75 80 0 79 -17 33 0 71 70 35 28
 27 34 0 32 -14 255 220 251 221 ?125 198 71 5 222 -0 0 125 198 23 81 1 221 983 2
23 220 224 0 0 225 226 14 125 1 225 ?192 220 227 5 228 +0 0 192 220 23 14 198 26
7 229 ?220 230 196 5 231 -0 0 220 230 23 50 222 286 0 220 232 233 0 +-.012827 -1
72721649819243e-32 .00635 1 134654751554723e-30 0 -134654751554723e-30 1 0 13 23
 97 0 0 0 0 0 0 9 15 14 15 257 234 ?116 0 77 5 235 +0 0 116 0 23 81 1 234 986 22
3 15 236 0 229 237 238 14 116 255 237 ?129 15 112 5 239 +0 0 129 15 23 51 255 23
5 289 0 15 239 240 0 --.016002 -.0699897 .00635 0 0 -1 .003175 -1 0 0 50 239 288
 0 116 233 235 0 +-.019177 -1721516113709945e-33 .00635 1 897698343698152e-31 0
 -897698343698152e-31 1 0 50 240 290 0 230 235 241 0 +.019177 1721516113709945e-
33 .00635 1 897698343698152e-31 0 -897698343698152e-31 1 0 14 230 259 242 ?198 2
01 243 5 240 -0 0 198 201 23 51 241 291 0 244 240 245 0 -.016002 -.0313414505483
98 .00635 0 0 -1 .003175 -1 0 0 14 244 261 246 ?17 247 248 5 241 +0 0 17 247 23
 50 245 292 0 247 241 249 0 +.012827 230295533092324e-32 .00635 1 17953966873963
05e-31 0 -1795396687396305e-31 1 0 14 247 263 250 ?244 251 252 5 245 +0 0 244 25
1 23 51 249 293 0 251 245 231 0 -.016002 -.0699897 .00635 0 0 -1 .003175 -1 0 0
 14 251 265 253 ?247 129 254 5 249 +0 0 247 129 23 50 231 294 0 198 249 255 0 +-
555111512312583e-31 .025 .00635 2220446049250315e-30 -1 0 1 2220446049250315e-30
 0 50 255 295 0 201 231 18 0 +.025 0 .00635 -1 0 0 0 0 1 14 201 269 256 ?230 188
 182 5 255 -0 0 230 188 23 50 18 296 0 188 255 6 0 +0 -.0769874 .00635 0 1 0 0 0
 1 14 188 271 257 ?201 17 186 5 18 -0 0 201 17 23 81 1 257 993 223 188 258 0 256
 259 260 14 17 273 259 ?188 244 84 5 6 +0 0 188 244 23 81 1 259 994 223 17 261 0
 257 262 263 80 255 1 223 264 265 9000 1 1 1 1 1 1 1 1 0 FFFFTFTFFFFFFF1 81 1 26
1 893 266 17 0 259 267 258 268 81 1 262 995 223 129 269 0 259 270 271 82 255 1 2
63 960692448 14 129 253 262 ?251 116 121 5 233 +0 0 251 116 23 81 1 269 889 266
 129 0 262 272 273 274 81 1 270 996 223 192 275 0 262 276 277 82 1 271 958595296
 14 192 133 270 ?278 125 279 5 232 -0 0 278 125 23 81 1 275 900 266 192 0 270 28
0 281 282 81 1 276 997 223 278 281 0 270 283 284 82 1 277 -203882266 14 278 419
 276 ?285 192 286 5 287 -0 0 285 192 23 81 1 281 901 266 278 0 276 275 288 289 8
1 1 283 998 223 285 288 0 276 290 291 82 1 284 22020325 14 285 424 283 ?292 278
 293 5 294 -0 0 292 278 23 81 1 288 902 266 285 0 283 281 295 296 81 1 290 999 2
23 292 295 0 283 297 298 82 1 291 21430501 14 292 469 290 ?299 285 300 5 301 -0
 0 299 285 23 81 1 295 903 266 292 0 290 288 302 303 81 1 297 1000 223 299 302 0
 290 304 305 82 1 298 40960229 14 299 474 297 ?306 292 307 5 308 -0 0 306 292 23
 81 1 302 904 266 299 0 297 295 309 310 81 1 304 1001 223 306 309 0 297 311 312
 82 1 305 40370405 14 306 545 304 ?313 299 314 5 315 -0 0 313 299 23 81 1 309 90
5 266 306 0 304 302 316 317 81 1 311 1002 223 313 316 0 304 318 319 82 1 312 684
85350 14 313 550 311 ?320 306 321 5 322 -0 0 320 306 23 81 1 316 906 266 313 0 3
11 309 323 324 81 1 318 1003 223 320 323 0 311 325 326 82 1 319 67895526 14 320
 555 318 ?327 313 328 5 329 -0 0 327 313 23 81 1 323 907 266 320 0 318 316 330 3
31 81 1 325 1004 223 327 330 0 318 332 333 82 1 326 67305702 14 327 607 325 ?334
 320 335 5 336 -0 0 334 320 23 81 1 330 908 266 327 0 325 323 337 338 81 1 332 1
005 223 334 337 0 325 339 340 82 1 333 90439910 14 334 612 332 ?341 327 342 5 34
3 -0 0 341 327 23 81 1 337 909 266 334 0 332 330 344 345 81 1 339 1006 223 341 3
44 0 332 346 347 82 1 340 89850086 14 341 617 339 ?348 334 349 5 350 -0 0 348 33
4 23 81 1 344 910 266 341 0 339 337 351 352 81 1 346 1007 223 348 351 0 339 353
 354 82 1 347 89260262 14 348 669 346 ?355 341 356 5 357 -0 0 355 341 23 81 1 35
1 911 266 348 0 346 344 358 359 81 1 353 1008 223 355 358 0 346 360 361 82 1 354
 112460006 14 355 674 353 ?362 348 363 5 364 -0 0 362 348 23 81 1 358 912 266 35
5 0 353 351 365 366 81 1 360 1009 223 362 365 0 353 367 368 82 1 361 111870182 1
4 362 679 360 ?369 355 370 5 371 -0 0 369 355 23 81 1 365 913 266 362 0 360 358
 372 373 81 1 367 1010 223 369 372 0 360 374 375 82 1 368 111280358 14 369 731 3
67 ?376 362 377 5 378 -0 0 376 362 23 81 1 372 914 266 369 0 367 365 379 380 81
 1 374 1011 223 376 379 0 367 381 382 82 1 375 134349030 14 376 736 374 ?383 369
 384 5 385 -0 0 383 369 23 81 1 379 915 266 376 0 374 372 386 387 81 1 381 1012
 223 383 386 0 374 0 388 82 1 382 133759206 14 383 741 381 ?0 376 389 5 390 -0 0
 0 376 23 81 1 386 916 266 383 0 381 379 0 391 82 1 388 133169382 80 1 266 0 392
 8001 0 0 0 0 3 5 0 0 0 FFFFTFTFFFFFFF2 83 255 3 391 .792156862745098 .819607843
137255 .933333333333333 79 255 15 392 SDL/TYSA_COLOUR15 389 744 0 393 383 394 51
 390 752 0 383 0 385 0 +0 .01 0 0 0 -1 .005 -1 0 0 50 385 751 0 376 390 378 0 +.
00275 .01 .0032 0 0 1 1 0 0 51 378 750 0 369 385 371 0 +0 .01 0 0 0 -1 .00275 -1
 0 0 51 371 690 0 362 378 364 0 +.01 1000771351340782e-35 0 0 0 -1 .005 -1 0 0 5
0 364 689 0 355 371 357 0 +.01275 1000771351340782e-35 .0032 0 0 1 1 0 0 51 357
 688 0 348 364 350 0 +.01 1000771351340782e-35 0 0 0 -1 .00275 -1 0 0 51 350 628
 0 341 357 343 0 +-176229459036259e-32 -.01 0 0 0 -1 .005 -1 0 0 50 343 627 0 33
4 350 336 0 +.00275 -.01 .0032 0 0 1 1 0 0 51 336 626 0 327 343 329 0 +-17622945
9036259e-32 -.01 0 0 0 -1 .00275 -1 0 0 51 329 566 0 320 336 322 0 +-.01 -203208
320393835e-32 0 0 0 -1 .005 -1 0 0 50 322 565 0 313 329 315 0 +-.00725 -20320832
0393835e-32 .0032 0 0 1 1 0 0 51 315 564 0 306 322 308 0 +-.01 -203208320393835e
-32 0 0 0 -1 .00275 -1 0 0 52 255 308 484 0 299 315 301 0 +.018904 .00504825 .00
635 0 0 1 .0048680878 .656059028990507 .754709580222772 1 0 0 51 301 483 0 292 3
08 294 0 +.018904 .00504825 .00635 0 0 1 .00215265 1 0 0 52 294 434 0 285 301 28
7 0 +.018904 -.00504825 .00635 0 0 1 .0048680878 .656059028990507 .7547095802227
72 1 0 0 51 287 433 0 278 294 228 0 +.018904 -.00504825 .00635 0 0 1 .00215265 1
 0 0 50 228 2 0 125 287 232 0 +0 0 .00635 0 0 1 1 0 0 50 232 213 0 192 228 222 0
 +0 0 0 0 0 1 1 0 0 17 393 0 389 393 393 0 395 396 0 0 -15 394 745 0 397 383 0 1
7 397 0 394 397 397 0 398 399 0 0 +17 398 0 279 398 398 0 397 399 0 0 -16 399 71
9 0 ?397 396 0 400 0 0 1 16 396 722 0 ?395 401 399 402 0 0 1 31 400 756 0 399 0
 402 0 +0 .01 385185988877447e-48 0 0 -1 -1 0 0 .005 31 402 755 0 396 400 403 0
 +0 .01 .0032 0 0 -1 -1 0 0 .005 31 403 754 0 401 402 404 0 +0 .01 .0032 0 0 -1
 -1 0 0 .00275 16 401 721 0 ?405 406 396 403 0 0 1 31 404 753 0 406 403 407 0 +0
 .01 .00635 0 0 -1 -1 0 0 .00275 16 406 720 0 ?408 409 401 404 0 0 1 31 407 694
 0 409 404 410 0 +.01 1000771351340782e-35 385185988877447e-48 0 0 -1 -1 0 0 .00
5 16 409 657 0 ?411 412 406 407 0 0 1 31 410 693 0 412 407 413 0 +.01 1000771351
340782e-35 .0032 0 0 -1 -1 0 0 .005 16 412 660 0 ?414 415 409 410 0 0 1 31 413 6
92 0 415 410 416 0 +.01 1000771351340782e-35 .0032 0 0 -1 -1 0 0 .00275 16 415 6
59 0 ?417 418 412 413 0 0 1 31 416 691 0 418 413 419 0 +.01 1000771351340782e-35
 .00635 0 0 -1 -1 0 0 .00275 16 418 658 0 ?420 421 415 416 0 0 1 31 419 632 0 42
1 416 422 0 +-176229459036259e-32 -.01 385185988877447e-48 0 0 -1 -1 0 0 .005 16
 421 595 0 ?423 424 418 419 0 0 1 31 422 631 0 424 419 425 0 +-176229459036259e-
32 -.01 .0032 0 0 -1 -1 0 0 .005 16 424 598 0 ?426 427 421 422 0 0 1 31 425 630
 0 427 422 428 0 +-176229459036259e-32 -.01 .0032 0 0 -1 -1 0 0 .00275 16 427 59
7 0 ?429 430 424 425 0 0 1 31 428 629 0 430 425 431 0 +-176229459036259e-32 -.01
 .00635 0 0 -1 -1 0 0 .00275 16 430 596 0 ?432 433 427 428 0 0 1 31 431 570 0 43
3 428 434 0 +-.01 -203208320393835e-32 385185988877447e-48 0 0 -1 -1 0 0 .005 16
 433 533 0 ?435 436 430 431 0 0 1 31 434 569 0 436 431 437 0 +-.01 -203208320393
835e-32 .0032 0 0 -1 -1 0 0 .005 16 436 536 0 ?438 439 433 434 0 0 1 31 437 568
 0 439 434 440 0 +-.01 -203208320393835e-32 .0032 0 0 -1 -1 0 0 .00275 16 439 53
5 0 ?441 442 436 437 0 0 1 31 440 567 0 442 437 443 0 +-.01 -203208320393835e-32
 .00635 0 0 -1 -1 0 0 .00275 16 442 534 0 ?444 445 439 440 0 0 1 31 443 487 0 44
5 440 446 0 +.018904 .00504825 .00635 0 0 1 1 0 0 .0048680878 16 445 458 0 ?447
 448 442 443 0 0 1 31 446 486 0 448 443 449 0 +.018904 .00504825 .00322624614310
6275 0 0 1 1 0 0 .00215265 16 448 460 0 ?450 451 445 446 0 0 1 31 449 485 0 451
 446 452 0 +.018904 .00504825 -1734723475976805e-33 0 0 1 1 0 0 .00215265 16 451
 459 0 ?453 454 448 449 0 0 1 31 452 437 0 454 449 455 0 +.018904 -.00504825 .00
635 0 0 1 1 0 0 .0048680878 16 454 408 0 ?456 457 451 452 0 0 1 31 455 436 0 457
 452 458 0 +.018904 -.00504825 .003226246143106275 0 0 1 1 0 0 .00215265 16 457
 410 0 ?459 139 454 455 0 0 1 31 458 435 0 139 455 208 0 +.018904 -.00504825 -17
34723475976805e-33 0 0 1 1 0 0 .00215265 16 139 409 0 ?460 135 457 458 0 0 1 30
 208 7 0 166 458 207 0 +-.025 0 .00635 0 1 0 16 166 6 0 ?85 189 164 208 0 0 1 17
 460 0 461 460 460 0 462 139 0 0 +15 461 399 0 460 192 191 17 462 0 286 462 462
 0 460 139 0 0 -15 286 422 0 462 278 463 15 463 423 0 459 278 0 17 459 0 463 459
 459 0 464 457 0 0 +17 464 0 293 464 464 0 459 457 0 0 -15 293 427 0 464 285 465
 15 465 428 0 456 285 0 17 456 0 465 456 456 0 466 454 0 0 +17 466 0 467 466 466
 0 456 454 0 0 -15 467 391 0 466 125 203 15 203 3 0 190 125 468 17 190 0 203 88
 96 76 85 166 0 0 -15 468 4 0 469 125 30 17 469 0 468 470 108 97 211 205 0 214 -
17 470 0 468 471 469 100 214 212 0 217 -17 108 0 468 469 471 106 472 218 0 473 +
17 211 0 254 64 99 106 469 205 0 0 +17 214 0 252 55 102 97 470 212 0 0 +15 252 2
62 0 474 247 0 17 55 0 252 474 214 53 99 168 0 475 +17 102 0 252 214 474 100 58
 174 0 470 -17 474 0 252 102 55 56 151 149 0 154 -17 58 0 248 476 217 56 102 174
 0 474 +15 248 260 0 476 244 0 17 476 0 248 105 58 59 154 152 0 0 -17 217 0 248
 58 105 100 471 215 0 0 +17 105 0 248 217 476 103 61 172 0 472 -17 471 0 468 108
 470 103 217 215 0 0 -17 61 0 243 157 472 59 105 172 0 477 +17 472 0 243 61 473
 103 108 218 0 471 -15 243 258 0 157 230 0 17 473 0 243 472 157 106 64 170 0 211
 -17 157 0 243 473 61 62 477 155 0 148 +17 64 0 254 475 211 62 473 170 0 157 +15
 254 264 0 475 251 0 17 475 0 254 99 64 53 148 146 0 151 -17 99 0 254 211 475 97
 55 168 0 469 -17 148 0 193 477 151 62 475 146 0 0 +17 151 0 193 148 154 53 474
 149 0 0 +15 193 135 0 148 192 219 17 154 0 193 151 477 56 476 152 0 0 +17 477 0
 193 154 148 59 157 155 0 476 -17 88 0 203 93 190 82 87 189 0 184 +17 96 0 203 1
90 93 94 197 200 0 195 +17 184 0 186 87 46 82 181 180 0 183 -17 453 0 478 453 45
3 0 479 451 0 0 +15 478 440 0 453 192 461 17 479 0 300 479 479 0 453 451 0 0 -15
 300 472 0 479 292 480 15 480 473 0 450 292 0 17 450 0 480 450 450 0 481 448 0 0
 +17 481 0 307 481 481 0 450 448 0 0 -15 307 477 0 481 299 482 15 482 478 0 447
 299 0 17 447 0 482 447 447 0 483 445 0 0 +17 483 0 484 483 483 0 447 445 0 0 -1
5 484 450 0 483 125 467 17 444 0 485 444 444 0 486 442 0 0 +15 485 512 0 444 125
 484 17 486 0 314 486 486 0 444 442 0 0 -15 314 548 0 486 306 487 15 487 549 0 4
41 306 0 17 441 0 487 441 441 0 488 439 0 0 +17 488 0 321 488 488 0 441 439 0 0
 -15 321 553 0 488 313 489 15 489 554 0 438 313 0 17 438 0 489 438 438 0 490 436
 0 0 +17 490 0 328 490 490 0 438 436 0 0 -15 328 558 0 490 320 491 15 491 559 0
 435 320 0 17 435 0 491 435 435 0 492 433 0 0 +17 492 0 493 492 492 0 435 433 0
 0 -15 493 522 0 492 192 478 17 432 0 494 432 432 0 495 430 0 0 +15 494 585 0 43
2 125 485 17 495 0 335 495 495 0 432 430 0 0 -15 335 610 0 495 327 496 15 496 61
1 0 429 327 0 17 429 0 496 429 429 0 497 427 0 0 +17 497 0 342 497 497 0 429 427
 0 0 -15 342 615 0 497 334 498 15 498 616 0 426 334 0 17 426 0 498 426 426 0 499
 424 0 0 +17 499 0 349 499 499 0 426 424 0 0 -15 349 620 0 499 341 500 15 500 62
1 0 423 341 0 17 423 0 500 423 423 0 501 421 0 0 +17 501 0 502 501 501 0 423 421
 0 0 -15 502 573 0 501 192 493 17 420 0 503 420 420 0 504 418 0 0 +15 503 647 0
 420 125 494 17 504 0 356 504 504 0 420 418 0 0 -15 356 672 0 504 348 505 15 505
 673 0 417 348 0 17 417 0 505 417 417 0 506 415 0 0 +17 506 0 363 506 506 0 417
 415 0 0 -15 363 677 0 506 355 507 15 507 678 0 414 355 0 17 414 0 507 414 414 0
 508 412 0 0 +17 508 0 370 508 508 0 414 412 0 0 -15 370 682 0 508 362 509 15 50
9 683 0 411 362 0 17 411 0 509 411 411 0 510 409 0 0 +17 510 0 511 510 510 0 411
 409 0 0 -15 511 635 0 510 192 502 17 408 0 227 408 408 0 512 406 0 0 +15 227 70
9 0 408 125 503 17 512 0 377 512 512 0 408 406 0 0 -15 377 734 0 512 369 513 15
 513 735 0 405 369 0 17 405 0 513 405 405 0 514 401 0 0 +17 514 0 384 514 514 0
 405 401 0 0 -15 384 739 0 514 376 515 15 515 740 0 395 376 0 17 395 0 515 395 3
95 0 393 396 0 0 +15 279 697 0 398 192 511 83 3 387 .792156862745098 .8196078431
37255 .933333333333333 83 3 380 .792156862745098 .819607843137255 .9333333333333
33 83 3 373 .792156862745098 .819607843137255 .933333333333333 83 3 366 .7921568
62745098 .819607843137255 .933333333333333 83 3 359 .792156862745098 .8196078431
37255 .933333333333333 83 3 352 .792156862745098 .819607843137255 .9333333333333
33 83 3 345 .792156862745098 .819607843137255 .933333333333333 83 3 338 .7921568
62745098 .819607843137255 .933333333333333 83 3 331 .792156862745098 .8196078431
37255 .933333333333333 83 3 324 .792156862745098 .819607843137255 .9333333333333
33 83 3 317 .792156862745098 .819607843137255 .933333333333333 83 3 310 .7921568
62745098 .819607843137255 .933333333333333 83 3 303 .792156862745098 .8196078431
37255 .933333333333333 83 3 296 .792156862745098 .819607843137255 .9333333333333
33 83 3 289 .792156862745098 .819607843137255 .933333333333333 81 1 280 899 266
 125 0 225 224 275 516 83 3 282 .792156862745098 .819607843137255 .9333333333333
33 81 1 225 984 223 125 280 0 221 229 517 81 1 224 898 266 220 0 221 518 280 519
 83 3 516 .792156862745098 .819607843137255 .933333333333333 81 1 518 897 266 19
8 0 229 520 224 521 83 3 519 .792156862745098 .819607843137255 .933333333333333
 81 1 229 985 223 198 518 0 225 234 522 81 1 520 896 266 230 0 242 523 518 524 8
3 3 521 .792156862745098 .819607843137255 .933333333333333 81 1 242 988 223 230
 520 0 237 246 525 81 1 523 895 266 201 0 256 258 520 526 83 3 524 .792156862745
098 .819607843137255 .933333333333333 81 1 256 992 223 201 523 0 253 257 527 81
 1 258 894 266 188 0 257 261 523 528 83 3 526 .792156862745098 .819607843137255
 .933333333333333 83 3 528 .792156862745098 .819607843137255 .933333333333333 81
 1 253 991 223 251 273 0 250 256 529 82 1 527 960168160 81 1 273 890 266 251 0 2
53 269 530 531 81 1 250 990 223 247 530 0 246 253 532 82 1 529 959709408 81 1 53
0 891 266 247 0 250 273 267 533 81 1 246 989 223 244 267 0 242 250 534 82 1 532
 959578336 81 1 267 892 266 244 0 246 530 261 535 82 1 534 959381728 83 3 535 .7
92156862745098 .819607843137255 .933333333333333 83 3 533 .792156862745098 .8196
07843137255 .933333333333333 83 3 531 .792156862745098 .819607843137255 .9333333
33333333 81 1 237 987 223 116 272 0 234 242 536 82 1 525 959119584 81 1 272 888
 266 116 0 237 236 269 537 82 1 536 958791904 81 1 236 887 266 15 0 234 0 272 53
8 83 3 537 .792156862745098 .819607843137255 .933333333333333 83 3 538 .79215686
2745098 .819607843137255 .933333333333333 82 1 522 959906016 82 1 517 1455030502
 83 3 274 .792156862745098 .819607843137255 .933333333333333 51 233 287 0 129 22
2 239 0 --.016002 -.031341450548398 .00635 0 0 -1 .003175 -1 0 0 83 3 268 .79215
6862745098 .819607843137255 .933333333333333 79 14 265 SWEntUnchanged82 1 260 96
0430304 82 1 238 958922976 82 1 226 958333152 19 16 299 0 1 0 9 5 S0 74 4 CI16 i
ndex_map_offset0 0 1 dCCZ20 14 3 0 0 381 2 386 0 0 0 0 0 0 0 0 0 0 0 0 0 0 0 0 0
 80 2 12 539 540 8004 0 0 0 0 3 5 0 0 0 FFTFFFFFFFFFFF2 3 83 1 13 1e3 79 16 540
 SDL/TYSA_DENSITY1 0 
