**ABCDEFGHIJKLMNOPQRSTUVWXYZabcdefghijklmnopqrstuvwxyz**************************
**PARASOLID !"#$%&'()*+,-./:;<=>?@[\]^_`{|}~0123456789**************************
**PART1;
MC=AMD64;
MC_MODEL=Intel64 Family 6 Model 60 Stepping 3, GenuineIntel;
MC_ID=unknown;
OS=Windows_NT;
OS_RELEASE=unknown;
FRU=Parasolid Version 27.0, build 207,  1-23-2015;
APPL=SOLIDWORKS 2015-2015313;
SITE=;
USER=unknown;
FORMAT=text;
GUISE=transmit;
KEY=MOD_NEMA_17_MOUNT_PLATE;
FILE=MOD_NEMA_17_MOUNT_PLATE.x_t;
DATE=Tue Apr 26 21:49:26 2016;
**PART2;
SCH=SCH_2700207_26105;
USFLD_SIZE=0;
**PART3;
**END_OF_HEADER*****************************************************************
T51 : TRANSMIT FILE created by modeller version 270020723 SCH_2700207_26105_1300
6196 0 12 30 CCCCCCCCCCCCCDI5 owner1040 0 CCCCCCCCCA13 boundary_mesh1006 0 A16 i
ndex_map_offset0 0 1 dA9 index_map82 0 A17 node_id_index_map82 0 A20 schema_embe
dding_map82 0 A5 child12 0 A14 lowest_node_id0 0 1 dZ1 2753 2 3 0 0 0 0 1e3 1e-8
 0 4 0 1 0 1 1 5 6 7 8 9 10 11 0 0 0 0 0 0 0 81 255 2 2 1190 12 1 0 0 0 0 13 0 7
0 11 CI9 list_type0 0 1 uI10 notransmit0 0 1 lCCCDCCDI12 finger_index0 0 1 dI12
 finger_block1012 0 CZ3 0 4 T1 0 0 3 20 1 14 14 13 255 5 174 0 1 0 15 0 0 16 0 5
1 255 6 173 0 17 18 0 0 --.01575 .003 .05675 0 -1 0 .004 0 0 -1 30 255 7 1631 0
 10 19 0 0 -.0157022873642531 -.007 .01351025634257486 0 1 0 29 255 8 1628 0 11
 20 0 .0157022873642531 .003 .01351025634257486 19 8 CCCCCCCA5 owner12 0 Z9 52 0
 1 16 0 21 V0 16 255 10 1629 0 ?22 0 23 7 0 0 1 18 255 11 1626 0 24 0 25 8 ?1 17
 255 24 0 26 22 27 11 28 29 0 30 +18 25 1530 0 31 11 32 20 ?1 17 31 0 33 34 35 2
5 36 37 0 38 +18 32 1434 0 39 25 40 41 ?1 29 20 1532 0 25 41 8 -.013510256342574
8 .003 .0157022873642532 29 41 1436 0 32 42 20 .0135102563425748 .003 -.01570228
736425315 29 42 1340 0 40 43 41 -.0157022873642531 .003 -.01351025634257488 18 4
0 1338 0 44 32 45 42 ?1 29 43 856 0 45 46 42 .0140960155108391 0 .01190398448916
084 18 45 854 0 47 40 48 43 ?1 29 46 726 0 48 49 43 -.0119039844891608 0 .014096
01551083914 18 48 724 0 50 45 51 46 ?1 29 49 596 0 51 52 46 -.0140960155108391 0
 -.01190398448916086 18 51 594 0 53 48 54 49 ?1 29 52 238 0 54 55 49 .0119039844
891608 0 -.01409601551083914 18 54 236 0 56 51 57 52 ?1 29 55 126 0 58 59 52 -.0
1975 0 .05675 18 58 109 0 60 61 62 55 ?1 29 59 127 0 62 63 55 -.01975 0 -.01725
 18 62 110 0 64 58 65 59 ?1 29 63 128 0 65 66 59 -.01575 0 -.02125 18 65 111 0 6
7 62 68 63 ?1 29 66 129 0 68 69 63 .01575 0 -.02125 18 68 112 0 70 65 71 66 ?1 2
9 69 130 0 71 72 66 .01975 0 -.01725 18 71 113 0 73 68 74 69 ?1 29 72 131 0 74 7
5 69 .01975 0 .05675 18 74 114 0 76 71 77 72 ?1 29 75 132 0 77 78 72 .01575 0 .0
6075 18 77 115 0 79 74 80 75 ?1 29 78 133 0 80 81 75 -.01575 0 .06075 18 80 116
 0 82 77 83 78 ?1 29 81 51 0 57 84 78 -.01975 .003 .05675 18 57 49 0 85 54 86 81
 ?1 29 84 48 0 86 87 81 -.01975 .003 -.01725 18 86 46 0 88 57 89 84 ?1 29 87 45
 0 89 90 84 -.01575 .003 -.02125 18 89 43 0 91 86 92 87 ?1 29 90 42 0 92 93 87 .
01575 .003 -.02125 18 92 40 0 94 89 95 90 ?1 29 93 39 0 95 96 90 .01975 .003 -.0
1725 18 95 37 0 97 92 98 93 ?1 29 96 36 0 98 99 93 .01975 .003 .05675 18 98 34 0
 100 95 101 96 ?1 29 99 33 0 101 102 96 .01575 .003 .06075 18 101 31 0 103 98 61
 99 ?1 29 102 30 0 61 104 99 -.01575 .003 .06075 18 61 28 0 105 101 58 102 ?1 29
 104 355 0 106 107 102 .0140960155108391 0 -.01190398448916084 18 106 309 0 108
 109 110 104 ?1 29 107 356 0 83 111 104 .0119039844891608 .003 -.014096015510839
14 18 83 308 0 112 80 109 107 ?1 29 111 359 0 109 113 107 .0140960155108391 .003
 -.01190398448916084 18 109 303 0 114 83 106 111 ?1 29 113 713 0 115 116 111 -.0
119039844891608 0 -.01409601551083914 18 115 667 0 117 118 119 113 ?1 29 116 714
 0 110 120 113 -.0140960155108391 .003 -.01190398448916084 18 110 666 0 121 106
 118 116 ?1 29 120 717 0 118 122 116 -.0119039844891608 .003 -.01409601551083914
 18 118 661 0 123 110 115 120 ?1 29 122 843 0 124 125 120 -.0140960155108391 0 .
01190398448916084 18 124 797 0 126 127 128 122 ?1 29 125 844 0 119 129 122 -.011
9039844891608 .003 .01409601551083914 18 119 796 0 130 115 127 125 ?1 29 129 847
 0 127 131 125 -.0140960155108391 .003 .01190398448916084 18 127 791 0 132 119 1
24 129 ?1 29 131 973 0 133 134 129 .0119039844891608 0 .01409601551083914 18 133
 927 0 135 136 137 131 ?1 29 134 974 0 128 138 131 .0140960155108391 .003 .01190
398448916084 18 128 926 0 139 124 136 134 ?1 29 138 977 0 136 140 134 .011903984
4891608 .003 .01409601551083914 18 136 921 0 141 128 133 138 ?1 29 140 1421 0 13
7 142 138 -.0135102563425748 0 -.0157022873642532 18 137 1388 0 143 133 144 140
 ?1 29 142 1422 0 144 145 140 -.0157022873642531 0 -.01351025634257488 18 144 13
89 0 146 137 147 142 ?1 29 145 1426 0 147 148 142 -.0135102563425748 .003 -.0157
022873642532 18 147 1385 0 149 144 150 145 ?1 29 148 1517 0 150 151 145 .0157022
873642531 0 -.01351025634257486 18 150 1484 0 152 147 153 148 ?1 29 151 1518 0 1
53 154 148 .0135102563425748 0 -.01570228736425315 18 153 1485 0 155 150 156 151
 ?1 29 154 1522 0 156 157 151 .0157022873642531 .003 -.01351025634257486 18 156
 1481 0 158 153 159 154 ?1 29 157 1613 0 159 160 154 -.0157022873642531 0 .01351
025634257488 18 159 1580 0 161 156 162 157 ?1 29 160 1614 0 162 163 157 -.013510
2563425748 0 .0157022873642532 18 162 1581 0 34 159 164 160 ?1 29 163 1617 0 164
 165 160 -.0157022873642531 .003 .01351025634257488 18 164 1577 0 35 162 166 163
 ?1 29 165 1709 0 166 167 163 .0135102563425748 0 .01570228736425315 18 166 1676
 0 168 164 169 165 ?1 29 167 1710 0 169 170 165 .0157022873642531 0 .01351025634
257486 18 169 1677 0 22 166 171 167 ?1 29 170 1713 0 171 0 167 .0135102563425748
 .003 .01570228736425315 18 171 1673 0 27 169 0 170 ?1 17 27 0 26 24 168 171 172
 173 0 28 +15 255 26 1690 0 27 174 0 17 168 0 26 27 22 166 175 176 0 172 +17 172
 0 177 135 178 166 27 173 0 179 -16 173 1662 0 ?27 37 176 180 0 0 1 17 28 0 181
 182 183 171 24 29 0 178 -15 181 887 0 183 15 0 17 182 0 181 184 28 136 178 185
 0 0 -17 183 0 181 28 184 11 139 186 0 0 -16 29 1670 0 ?24 176 0 187 0 0 1 17 17
8 0 177 172 188 171 182 185 0 0 +15 177 1642 0 172 189 0 17 188 0 177 178 135 13
6 190 191 0 182 -16 185 911 0 ?178 186 192 193 0 0 1 16 186 1627 0 ?139 194 185
 195 0 0 1 16 192 908 0 ?141 185 196 197 0 0 1 30 193 968 0 185 197 195 0 +.0119
039844891608 .003 .01409601551083914 .707106781186545 0 .70710678118655 31 255 1
97 969 0 192 198 193 0 +.013 .003 .013 0 1 0 0 0 -1 .00155 30 195 966 0 186 193
 199 0 +.0140960155108391 .003 .01190398448916084 -.707106781186546 0 -.70710678
1186549 31 199 965 0 200 195 201 0 +.013 0 .013 0 1 0 0 0 -1 .00155 16 200 892 0
 ?202 203 204 199 0 0 1 30 201 964 0 203 199 205 0 +.0119039844891608 0 .0140960
1551083914 .707106781186545 0 .70710678118655 16 203 896 0 ?179 196 200 201 0 0
 1 30 205 962 0 196 201 206 0 +.0140960155108391 0 .01190398448916084 -.70710678
1186546 0 -.707106781186549 16 196 1624 0 ?47 192 203 205 0 0 1 30 206 961 0 194
 205 207 0 +.0140960155108391 .003 .01190398448916084 0 -1 0 16 194 895 0 ?208 1
91 186 206 0 0 1 30 207 958 0 191 206 209 0 +.0119039844891608 .003 .01409601551
083914 0 -1 0 16 191 899 0 ?190 210 194 207 0 0 1 31 209 839 0 211 207 212 0 +-.
013 .003 .013 0 1 0 0 0 1 .00155 16 211 778 0 ?132 213 214 209 0 0 1 30 212 838
 0 213 209 215 0 +-.0140960155108391 .003 .01190398448916084 -.707106781186545 0
 .70710678118655 16 213 781 0 ?216 217 211 212 0 0 1 30 215 836 0 217 212 218 0
 +-.0119039844891608 .003 .01409601551083914 .707106781186545 0 -.70710678118655
1 16 217 1531 0 ?130 219 213 215 0 0 1 31 218 835 0 210 215 220 0 +-.013 0 .013
 0 1 0 0 0 1 .00155 16 210 762 0 ?221 222 191 218 0 0 1 30 220 834 0 222 218 223
 0 +-.0140960155108391 0 .01190398448916084 -.707106781186545 0 .70710678118655
 16 222 766 0 ?224 214 210 220 0 0 1 30 223 832 0 214 220 225 0 +-.0119039844891
608 0 .01409601551083914 .707106781186545 0 -.707106781186551 16 214 1528 0 ?50
 211 222 223 0 0 1 30 225 831 0 219 223 226 0 +-.0119039844891608 .003 .01409601
551083914 0 -1 0 16 219 765 0 ?227 228 217 225 0 0 1 30 226 828 0 228 225 229 0
 +-.0140960155108391 .003 .01190398448916084 0 -1 0 16 228 769 0 ?230 231 219 22
6 0 0 1 31 229 709 0 232 226 233 0 +-.013 .003 -.013 0 1 0 0 0 -1 .00155 16 232
 648 0 ?123 234 235 229 0 0 1 30 233 708 0 234 229 236 0 +-.0119039844891608 .00
3 -.01409601551083914 -.707106781186545 0 -.707106781186551 16 234 651 0 ?237 23
8 232 233 0 0 1 30 236 706 0 238 233 239 0 +-.0140960155108391 .003 -.0119039844
8916084 .707106781186545 0 .70710678118655 16 238 1339 0 ?121 240 234 236 0 0 1
 31 239 705 0 231 236 241 0 +-.013 0 -.013 0 1 0 0 0 -1 .00155 16 231 632 0 ?242
 243 228 239 0 0 1 30 241 704 0 243 239 244 0 +-.0119039844891608 0 -.0140960155
1083914 -.707106781186545 0 -.707106781186551 16 243 636 0 ?245 235 231 241 0 0
 1 30 244 702 0 235 241 246 0 +-.0140960155108391 0 -.01190398448916084 .7071067
81186545 0 .70710678118655 16 235 1336 0 ?53 232 243 244 0 0 1 30 246 701 0 240
 244 247 0 +-.0140960155108391 .003 -.01190398448916084 0 -1 0 16 240 635 0 ?248
 249 238 246 0 0 1 30 247 698 0 249 246 250 0 +-.0119039844891608 .003 -.0140960
1551083914 0 -1 0 16 249 639 0 ?251 252 240 247 0 0 1 31 250 589 0 253 247 254 0
 +-.01 .003 .03255 0 1 0 0 0 1 .00255 16 253 569 0 ?255 256 252 250 0 0 1 31 254
 588 0 252 250 257 0 +-.01 0 .03255 0 1 0 0 0 1 .00255 16 252 566 0 ?258 253 249
 254 0 0 1 31 257 551 0 259 254 260 0 +-.01 .003 .05255 0 1 0 0 0 1 .00255 16 25
9 531 0 ?261 262 256 257 0 0 1 31 260 550 0 256 257 263 0 +-.01 0 .05255 0 1 0 0
 0 1 .00255 16 256 528 0 ?264 259 253 260 0 0 1 31 263 513 0 265 260 266 0 +1040
834085586084e-32 .003 .03255 0 1 0 0 0 1 .00255 16 265 493 0 ?267 268 262 263 0
 0 1 31 266 512 0 262 263 269 0 +1040834085586084e-32 0 .03255 0 1 0 0 0 1 .0025
5 16 262 490 0 ?270 265 259 266 0 0 1 31 269 475 0 271 266 272 0 +10408340855860
84e-32 .003 .05255 0 1 0 0 0 1 .00255 16 271 455 0 ?273 274 268 269 0 0 1 31 272
 474 0 268 269 275 0 +1040834085586084e-32 0 .05255 0 1 0 0 0 1 .00255 16 268 45
2 0 ?276 271 265 272 0 0 1 31 275 437 0 277 272 278 0 +.01 .003 .03255 0 1 0 0 0
 1 .00255 16 277 417 0 ?279 280 274 275 0 0 1 31 278 436 0 274 275 281 0 +.01 0
 .03255 0 1 0 0 0 1 .00255 16 274 414 0 ?282 277 271 278 0 0 1 31 281 399 0 283
 278 284 0 +.01 .003 .05255 0 1 0 0 0 1 .00255 16 283 379 0 ?285 286 280 281 0 0
 1 31 284 398 0 280 281 287 0 +.01 0 .05255 0 1 0 0 0 1 .00255 16 280 376 0 ?288
 283 277 284 0 0 1 31 287 351 0 289 284 290 0 +.013 .003 -.013 0 1 0 0 0 1 .0015
5 16 289 290 0 ?114 291 292 287 0 0 1 30 290 350 0 291 287 293 0 +.0140960155108
391 .003 -.01190398448916084 .707106781186546 0 -.707106781186549 16 291 293 0 ?
294 295 289 290 0 0 1 30 293 348 0 295 290 296 0 +.0119039844891608 .003 -.01409
601551083914 -.707106781186545 0 .707106781186551 16 295 1435 0 ?112 297 291 293
 0 0 1 31 296 347 0 286 293 298 0 +.013 0 -.013 0 1 0 0 0 1 .00155 16 286 274 0
 ?299 300 283 296 0 0 1 30 298 346 0 300 296 301 0 +.0140960155108391 0 -.011903
98448916084 .707106781186546 0 -.707106781186549 16 300 278 0 ?302 292 286 298 0
 0 1 30 301 344 0 292 298 303 0 +.0119039844891608 0 -.01409601551083914 -.70710
6781186545 0 .707106781186551 16 292 1432 0 ?56 289 300 301 0 0 1 30 303 343 0 2
97 301 304 0 +.0119039844891608 .003 -.01409601551083914 0 -1 0 16 297 277 0 ?30
5 306 295 303 0 0 1 30 304 340 0 306 303 307 0 +.0140960155108391 .003 -.0119039
8448916084 0 -1 0 16 306 281 0 ?308 309 297 304 0 0 1 31 307 231 0 310 304 311 0
 +0 .003 0 0 1 0 0 0 1 .0125 16 310 211 0 ?312 313 309 307 0 0 1 31 311 230 0 30
9 307 314 0 +0 0 0 0 1 0 0 0 1 .0125 16 309 208 0 ?315 310 306 311 0 0 1 31 314
 5 0 316 311 317 0 +-.01575 .003 .05675 0 1 0 0 0 -1 .004 16 316 4 0 ?318 319 32
0 314 0 0 1 30 317 8 0 319 314 321 0 +.01575 .003 .06075 1 0 0 16 319 7 0 ?103 3
22 316 317 0 0 1 31 321 11 0 322 317 323 0 +.01575 .003 .05675 0 1 0 0 0 1 .004
 16 322 10 0 ?100 324 319 321 0 0 1 30 323 14 0 324 321 325 0 +.01975 .003 .0567
5 -468844182696434e-31 0 -1 16 324 13 0 ?97 326 322 323 0 0 1 31 325 17 0 326 32
3 327 0 +.01575 .003 -.01725 0 1 0 0 0 1 .004 16 326 16 0 ?94 328 324 325 0 0 1
 30 327 20 0 328 325 329 0 +.01575 .003 -.02125 -1 0 0 16 328 19 0 ?91 330 326 3
27 0 0 1 31 329 23 0 330 327 331 0 +-.01575 .003 -.01725 0 1 0 0 0 1 .004 16 330
 22 0 ?88 332 328 329 0 0 1 30 331 26 0 332 329 333 0 +-.01975 .003 .05675 -4688
44182696434e-31 0 1 16 332 25 0 ?85 334 330 331 0 0 1 31 333 125 0 313 331 335 0
 +-.01575 0 .05675 0 1 0 0 0 -1 .004 16 313 105 0 ?336 337 310 333 0 0 1 30 335
 124 0 337 333 338 0 +.01575 0 .06075 1 0 0 16 337 101 0 ?79 339 313 335 0 0 1 3
1 338 123 0 339 335 340 0 +.01575 0 .05675 0 1 0 0 0 1 .004 16 339 97 0 ?76 341
 337 338 0 0 1 30 340 122 0 341 338 342 0 +.01975 0 .05675 -468844182696434e-31
 0 -1 16 341 93 0 ?73 343 339 340 0 0 1 31 342 121 0 343 340 344 0 +.01575 0 -.0
1725 0 1 0 0 0 1 .004 16 343 89 0 ?70 345 341 342 0 0 1 30 344 120 0 345 342 346
 0 +.01575 0 -.02125 -1 0 0 16 345 85 0 ?67 347 343 344 0 0 1 31 346 119 0 347 3
44 348 0 +-.01575 0 -.01725 0 1 0 0 0 1 .004 16 347 81 0 ?64 320 345 346 0 0 1 3
0 348 118 0 320 346 349 0 +-.01975 0 .05675 -468844182696434e-31 0 1 16 320 77 0
 ?60 316 347 348 0 0 1 30 349 158 0 334 348 350 0 +-.01975 .003 .05675 0 -1 0 16
 334 134 0 ?351 352 332 349 0 0 1 30 350 159 0 352 349 353 0 +-.01975 .003 -.017
25 0 -1 0 16 352 135 0 ?354 355 334 350 0 0 1 30 353 160 0 355 350 356 0 +-.0157
5 .003 -.02125 0 -1 0 16 355 136 0 ?357 358 352 353 0 0 1 30 356 161 0 358 353 3
59 0 +.01575 .003 -.02125 0 -1 0 16 358 137 0 ?360 361 355 356 0 0 1 30 359 162
 0 361 356 362 0 +.01975 .003 -.01725 0 -1 0 16 361 138 0 ?363 364 358 359 0 0 1
 30 362 163 0 364 359 365 0 +.01975 .003 .05675 0 -1 0 16 364 139 0 ?366 367 361
 362 0 0 1 30 365 164 0 367 362 368 0 +.01575 .003 .06075 0 -1 0 16 367 140 0 ?3
69 370 364 365 0 0 1 30 368 165 0 370 365 371 0 +-.01575 .003 .06075 0 -1 0 16 3
70 141 0 ?372 373 367 368 0 0 1 30 371 1343 0 373 368 374 0 --.0157022873642531
 -.007 -.01351025634257488 0 1 0 16 373 1341 0 ?146 375 370 371 0 0 1 30 374 143
9 0 375 371 19 0 -.0135102563425748 -.007 -.01570228736425315 0 1 0 16 375 1437
 0 ?155 23 373 374 0 0 1 30 19 1535 0 23 374 7 0 --.0135102563425748 -.007 .0157
022873642532 0 1 0 16 23 1533 0 ?34 10 375 19 0 0 1 17 34 0 33 161 31 162 38 23
 0 376 +15 33 1594 0 35 377 0 17 161 0 33 35 34 159 376 378 0 379 +17 38 0 380 1
30 381 25 34 23 0 382 -17 376 0 383 50 224 162 161 378 0 381 -15 383 1551 0 376
 384 385 17 50 0 383 221 376 48 381 214 0 386 +17 224 0 383 376 221 159 126 222
 0 0 +16 378 1565 0 ?161 387 37 388 0 0 1 17 381 0 380 38 227 162 50 214 0 0 -15
 380 1534 0 38 389 0 17 227 0 380 381 130 48 390 219 0 0 +17 130 0 380 227 38 11
9 382 217 0 390 +17 390 0 391 132 386 119 227 219 0 392 -15 391 801 0 386 393 0
 17 132 0 391 230 390 127 392 211 0 394 +17 386 0 391 390 230 48 221 210 0 227 -
17 392 0 395 382 396 119 132 211 0 0 -15 395 757 0 382 15 397 17 382 0 395 36 39
2 25 130 217 0 0 -17 396 0 395 392 36 127 216 213 0 0 -17 36 0 395 396 382 164 3
1 37 0 216 -17 216 0 398 379 394 164 396 213 0 0 +15 398 1546 0 379 399 0 17 379
 0 398 126 216 159 35 387 0 224 -17 394 0 398 216 126 127 230 228 0 396 -17 126
 0 398 394 379 124 224 222 0 230 -17 230 0 391 386 132 124 394 228 0 221 +17 221
 0 383 224 50 124 386 210 0 0 +17 35 0 33 31 161 164 379 387 0 36 +16 387 1566 0
 ?35 400 378 401 0 0 1 16 400 1478 0 ?39 402 387 403 0 0 1 30 401 1606 0 387 388
 403 0 +-.0157022873642531 -.007 .01351025634257488 0 1 0 31 388 1607 0 378 404
 401 0 +-.0155 0 .0155 0 -1 0 0 0 -1 .002 31 403 1515 0 400 401 405 0 +.0155 .00
3 -.0155 0 1 0 0 0 1 .002 31 405 1511 0 402 403 406 0 +.0155 0 -.0155 0 -1 0 0 0
 -1 .002 16 402 1469 0 ?152 407 400 405 0 0 1 30 406 1510 0 407 405 408 0 +.0157
022873642531 -.007 -.01351025634257486 0 1 0 16 407 1470 0 ?158 409 402 406 0 0
 1 31 408 1419 0 409 406 410 0 +-.0155 .003 -.0155 0 1 0 0 0 1 .002 16 409 1382
 0 ?44 411 407 408 0 0 1 31 410 1415 0 411 408 198 0 +-.0155 0 -.0155 0 -1 0 0 0
 -1 .002 16 411 1373 0 ?143 204 409 410 0 0 1 30 198 1414 0 204 410 197 0 +-.013
5102563425748 -.007 -.0157022873642532 0 1 0 16 204 1374 0 ?149 200 411 198 0 0
 1 17 149 0 412 44 143 147 413 204 0 414 +15 412 1402 0 149 415 0 17 44 0 412 14
6 149 40 414 409 0 416 +17 143 0 412 149 146 137 417 411 0 413 +17 413 0 418 117
 237 137 149 204 0 245 -17 414 0 419 420 421 147 44 409 0 237 -15 419 627 0 421
 15 181 17 420 0 419 422 414 118 237 234 0 0 -17 421 0 419 414 422 40 121 238 0
 0 -17 237 0 418 413 423 147 420 234 0 0 +15 418 1354 0 413 424 0 17 423 0 418 2
37 117 118 251 249 0 420 -17 117 0 418 423 413 115 245 243 0 251 -17 251 0 425 4
26 123 115 423 249 0 242 +15 425 671 0 426 427 0 17 426 0 425 428 251 51 242 231
 0 248 -17 123 0 425 251 428 118 422 232 0 423 +17 242 0 429 245 53 115 426 231
 0 0 +15 429 1359 0 417 384 430 17 245 0 429 417 242 137 117 243 0 0 +17 53 0 42
9 242 417 51 431 235 0 426 +17 417 0 429 53 245 144 143 411 0 431 -17 431 0 432
 416 248 144 53 235 0 0 -15 432 1342 0 416 433 0 17 416 0 432 121 431 40 146 373
 0 421 -17 248 0 432 431 121 51 428 240 0 0 +17 121 0 432 248 416 110 421 238 0
 428 +17 428 0 425 123 426 110 248 240 0 422 -17 422 0 419 421 420 110 123 232 0
 0 -17 146 0 412 143 44 144 416 373 0 417 +14 255 433 680 434 ?393 424 432 5 435
 +0 0 393 424 21 81 1 434 2721 436 433 437 0 0 438 439 14 393 798 438 ?399 433 3
91 5 440 +0 0 399 433 21 14 424 672 441 ?433 427 418 5 442 +0 0 433 427 21 50 25
5 435 695 0 433 440 442 0 +-.0140960155108391 .003 -.01190398448916084 .70710678
118655 0 -.707106781186545 -.707106781186545 0 -.70710678118655 13 21 53 0 0 0 0
 0 0 9 15 14 15 889 443 ?384 0 395 5 444 -0 0 384 0 21 81 1 443 2724 436 15 445
 0 441 446 447 14 384 869 446 ?17 15 448 5 449 +0 0 17 15 21 50 444 2 0 15 450 4
49 0 +-.01575 .003 .05675 0 -1 0 0 0 -1 51 450 227 0 451 452 444 0 -0 .003 0 0 -
1 0 .0125 0 0 -1 50 449 117 0 384 444 453 0 +-.01575 0 .05675 0 -1 0 0 0 -1 50 4
53 166 0 454 449 455 0 +-.01975 .003 .05675 1 0 468844182696434e-31 468844182696
434e-31 0 -1 14 454 143 456 ?451 457 458 5 453 -0 0 451 457 21 51 455 167 0 457
 453 459 0 --.01575 .003 -.01725 0 -1 0 .004 0 0 -1 14 457 145 460 ?454 461 462
 5 455 -0 0 454 461 21 50 459 168 0 461 455 463 0 +.01575 .003 -.02125 0 0 1 1 0
 0 14 461 147 464 ?457 465 466 5 459 -0 0 457 465 21 51 463 169 0 465 459 467 0
 -.01575 .003 -.01725 0 -1 0 .004 0 0 -1 14 465 149 468 ?461 469 470 5 463 -0 0
 461 469 21 50 467 170 0 469 463 471 0 +.01975 .003 .05675 -1 0 468844182696434e
-31 468844182696434e-31 0 1 14 469 151 472 ?465 473 474 5 467 -0 0 465 473 21 51
 471 171 0 473 467 18 0 -.01575 .003 .05675 0 -1 0 .004 0 0 -1 14 473 153 475 ?4
69 476 477 5 471 -0 0 469 476 21 50 18 172 0 476 471 6 0 +.01575 .003 .06075 0 0
 -1 -1 0 0 14 476 155 478 ?473 17 479 5 18 -0 0 473 17 21 81 1 478 2732 436 476
 480 0 475 481 482 14 17 157 481 ?476 384 483 5 6 -0 0 476 384 21 15 479 154 0 7
9 476 0 17 79 0 479 484 372 77 82 337 0 369 +17 484 0 479 105 79 101 369 367 0 4
85 -17 372 0 479 79 105 80 486 370 0 336 +17 82 0 487 488 489 80 79 337 0 372 -1
7 369 0 477 76 485 77 484 367 0 489 +15 477 152 0 76 473 0 17 76 0 477 490 369 7
4 489 339 0 366 +17 485 0 477 369 490 101 100 322 0 0 -17 489 0 487 82 491 77 76
 339 0 0 -15 487 76 0 488 384 492 17 491 0 487 489 493 74 73 341 0 0 -17 493 0 4
87 491 494 71 70 343 0 0 -17 73 0 474 495 366 71 491 341 0 363 +15 474 150 0 73
 469 0 17 495 0 474 496 73 95 363 361 0 497 -17 366 0 474 73 496 74 490 364 0 49
1 +17 363 0 470 70 497 71 495 361 0 493 +15 470 148 0 70 465 0 17 70 0 470 498 3
63 68 493 343 0 360 +17 497 0 470 363 498 95 94 326 0 0 -17 498 0 470 497 70 92
 360 358 0 499 -17 94 0 500 91 97 92 497 326 0 498 +15 500 3 0 318 15 501 17 91
 0 500 88 94 89 499 328 0 502 +17 97 0 500 94 100 95 496 324 0 495 +17 100 0 500
 97 103 98 485 322 0 490 +17 496 0 474 366 495 98 97 324 0 0 -17 103 0 500 100 3
18 101 105 319 0 484 +17 490 0 477 485 76 98 366 364 0 496 -17 318 0 500 103 85
 61 503 316 0 486 +17 105 0 479 372 484 61 103 319 0 318 -17 85 0 500 318 88 57
 504 332 0 505 +17 503 0 483 351 486 57 318 316 0 0 -17 486 0 483 503 336 61 372
 370 0 0 -15 483 156 0 336 17 0 17 336 0 483 486 351 80 488 313 0 0 +17 351 0 48
3 336 503 58 505 334 0 488 +17 488 0 487 506 82 58 336 313 0 0 -17 506 0 487 507
 488 62 60 320 0 0 -17 507 0 487 494 506 65 64 347 0 0 -17 60 0 458 505 354 58 5
06 320 0 351 +15 458 142 0 60 454 0 17 505 0 458 504 60 57 351 334 0 503 -17 354
 0 458 60 504 62 508 352 0 506 +17 504 0 458 354 505 86 85 332 0 0 -17 508 0 462
 509 64 86 354 352 0 504 -15 462 144 0 64 457 0 17 509 0 462 357 508 89 88 330 0
 0 -17 64 0 462 508 357 62 507 347 0 354 +17 357 0 462 64 509 65 502 355 0 507 +
17 502 0 466 499 67 89 357 355 0 509 -15 466 146 0 67 461 0 17 499 0 466 360 502
 92 91 328 0 0 -17 67 0 466 502 360 65 494 345 0 357 +17 360 0 466 67 499 68 498
 358 0 494 +17 494 0 487 493 507 68 67 345 0 0 -17 88 0 500 85 91 86 509 330 0 5
08 +15 501 203 0 510 15 511 17 510 0 501 510 510 0 312 310 0 0 -15 511 371 0 512
 15 513 17 512 0 511 512 512 0 285 283 0 0 -15 513 447 0 514 15 515 17 514 0 513
 514 514 0 273 271 0 0 -15 515 523 0 516 15 419 17 516 0 515 516 516 0 261 259 0
 0 -17 261 0 517 261 261 0 516 259 0 0 +15 517 537 0 261 518 519 14 518 534 520
 ?521 522 517 5 523 +0 0 521 522 21 15 519 538 0 524 518 0 17 524 0 519 524 524
 0 264 256 0 0 -17 264 0 525 264 264 0 524 256 0 0 +15 525 516 0 264 384 0 81 1
 520 2734 436 518 526 0 481 527 528 14 521 572 527 ?427 518 529 5 530 +0 0 427 5
18 21 14 522 496 531 ?518 532 533 5 534 +0 0 518 532 21 51 523 547 0 518 530 534
 0 --.01 .003 .05255 0 -1 0 .00255 0 0 -1 51 530 585 0 521 535 523 0 --.01 .003
 .03255 0 -1 0 .00255 0 0 -1 51 534 509 0 522 523 536 0 -1040834085586084e-32 .0
03 .03255 0 -1 0 .00255 0 0 -1 51 536 471 0 532 534 537 0 -1040834085586084e-32
 .003 .05255 0 -1 0 .00255 0 0 -1 14 532 458 538 ?522 539 540 5 536 +0 0 522 539
 21 51 537 433 0 539 536 541 0 -.01 .003 .03255 0 -1 0 .00255 0 0 -1 14 539 420
 542 ?532 543 544 5 537 +0 0 532 543 21 51 541 395 0 543 537 545 0 -.01 .003 .05
255 0 -1 0 .00255 0 0 -1 14 543 382 546 ?539 547 548 5 541 +0 0 539 547 21 50 54
5 337 0 547 541 549 0 +.0119039844891608 .003 -.01409601551083914 .7071067811865
5 0 .707106781186545 .707106781186545 0 -.707106781186551 14 547 322 550 ?543 55
1 552 5 545 +0 0 543 551 21 50 549 335 0 551 545 452 0 +.0140960155108391 .003 -
.01190398448916084 -.707106781186549 0 -.707106781186546 -.707106781186546 0 .70
7106781186549 14 551 314 553 ?547 554 555 5 549 +0 0 547 554 21 51 452 334 0 554
 549 450 0 -.013 .003 -.013 0 -1 0 .00155 0 0 -1 14 554 310 556 ?551 451 557 5 4
52 +0 0 551 451 21 81 1 556 2742 436 554 558 0 553 559 560 14 451 214 559 ?554 4
54 561 5 450 +0 0 554 454 21 15 557 313 0 562 554 0 17 562 0 557 563 308 54 299
 286 0 305 -17 563 0 557 114 562 83 305 297 0 564 -17 308 0 557 562 114 106 565
 306 0 299 +17 299 0 385 302 56 106 562 286 0 0 +17 305 0 552 566 112 54 563 297
 0 0 +15 552 1438 0 567 547 0 17 566 0 552 567 305 153 56 292 0 0 -17 112 0 552
 305 567 83 568 295 0 563 +17 567 0 552 112 566 32 155 375 0 568 -17 568 0 569 5
70 564 32 112 295 0 0 -15 569 269 0 568 15 500 17 570 0 569 571 568 156 39 400 0
 294 -17 564 0 569 568 571 83 114 289 0 0 -17 571 0 569 564 570 109 294 291 0 0
 -17 114 0 557 308 563 109 564 289 0 565 +17 565 0 555 294 108 109 308 306 0 571
 -15 555 1450 0 572 551 0 17 294 0 555 572 565 156 571 291 0 0 +17 108 0 555 565
 572 106 302 300 0 308 -17 572 0 555 108 294 150 158 407 0 302 -17 302 0 385 573
 299 150 108 300 0 0 +15 385 1455 0 573 384 429 17 573 0 385 56 302 153 152 402
 0 566 -17 56 0 385 299 573 54 566 292 0 562 +17 152 0 574 158 155 150 573 402 0
 572 +15 574 1498 0 158 575 0 17 158 0 574 39 152 156 572 407 0 570 +17 155 0 57
4 152 39 153 567 375 0 573 +17 39 0 574 155 158 32 570 400 0 567 +14 575 1495 57
6 ?377 415 574 5 577 -0 0 377 415 21 81 1 576 2744 436 575 578 0 559 579 580 14
 377 1591 579 ?174 575 33 5 581 -0 0 174 575 21 14 415 1399 582 ?575 583 412 5 5
84 -0 0 575 583 21 51 577 1507 0 575 581 584 0 +.0155 -.007 -.0155 0 1 0 .002 0
 0 1 51 581 1603 0 377 585 577 0 +-.0155 -.007 .0155 0 1 0 .002 0 0 1 51 584 141
1 0 415 577 586 0 +-.0155 -.007 -.0155 0 1 0 .002 0 0 1 50 586 955 0 583 584 587
 0 +.0140960155108391 .003 .01190398448916084 -.707106781186549 0 .7071067811865
46 .707106781186546 0 .707106781186549 14 583 940 588 ?415 189 589 5 586 +0 0 41
5 189 21 50 587 953 0 189 586 590 0 +.0119039844891608 .003 .01409601551083914 .
70710678118655 0 -.707106781186545 -.707106781186545 0 -.70710678118655 14 189 9
32 591 ?583 592 177 5 587 +0 0 583 592 21 51 590 952 0 592 587 593 0 -.013 .003
 .013 0 -1 0 .00155 0 0 -1 14 592 928 594 ?189 389 595 5 590 +0 0 189 389 21 50
 593 825 0 389 590 596 0 +-.0119039844891608 .003 .01409601551083914 -.707106781
18655 0 -.707106781186545 -.707106781186545 0 .707106781186551 14 389 810 597 ?5
92 399 380 5 593 +0 0 592 399 21 50 596 823 0 399 593 440 0 +-.0140960155108391
 .003 .01190398448916084 .70710678118655 0 .707106781186545 .707106781186545 0 -
.70710678118655 14 399 802 598 ?389 393 398 5 596 +0 0 389 393 21 51 440 822 0 3
93 596 435 0 --.013 .003 .013 0 -1 0 .00155 0 0 -1 81 1 598 2751 436 399 599 0 5
97 600 601 80 255 1 436 602 603 9000 1 1 1 1 1 1 1 1 0 FFFFTFTFFFFFFF1 81 1 599
 2644 604 399 0 598 605 606 607 81 1 597 2750 436 389 606 0 594 598 608 81 1 600
 2752 436 174 609 0 598 610 611 82 255 1 601 -1331232579 14 174 1687 600 ?0 377
 26 5 585 -0 0 0 377 21 81 1 609 2652 604 174 0 600 612 0 613 81 1 610 2753 436
 427 614 0 600 0 615 82 1 611 79298749 14 427 668 610 ?424 521 425 5 535 +0 0 42
4 521 21 81 1 614 2640 604 427 0 610 616 617 618 82 1 615 -1056177996 80 1 604 0
 619 8001 0 0 0 0 3 5 0 0 0 FFFFTFTFFFFFFF2 81 1 616 2639 604 521 0 527 526 614
 620 81 1 617 2641 604 424 0 441 614 437 621 83 255 3 618 .898039215686275 .9176
47058823529 .929411764705882 81 1 441 2723 436 424 617 0 438 443 622 81 1 437 26
42 604 433 0 434 617 605 623 83 3 621 .898039215686275 .917647058823529 .9294117
64705882 81 1 605 2643 604 393 0 438 437 599 624 83 3 623 .898039215686275 .9176
47058823529 .929411764705882 81 1 438 2722 436 393 605 0 434 441 625 83 3 624 .8
98039215686275 .917647058823529 .929411764705882 82 1 625 -1044512588 82 1 622 -
1330708291 81 1 527 2735 436 521 616 0 520 531 626 81 1 526 2638 604 518 0 520 6
27 616 628 83 3 620 .898039215686275 .917647058823529 .929411764705882 81 1 627
 2637 604 522 0 531 629 526 630 83 3 628 .898039215686275 .917647058823529 .9294
11764705882 81 1 531 2736 436 522 627 0 527 538 631 81 1 629 2636 604 532 0 538
 632 627 633 83 3 630 .898039215686275 .917647058823529 .929411764705882 81 1 53
8 2737 436 532 629 0 531 542 634 81 1 632 2635 604 539 0 542 635 629 636 83 3 63
3 .898039215686275 .917647058823529 .929411764705882 81 1 542 2738 436 539 632 0
 538 546 637 81 1 635 2634 604 543 0 546 638 632 639 83 3 636 .898039215686275 .
917647058823529 .929411764705882 81 1 546 2739 436 543 635 0 542 550 640 81 1 63
8 2633 604 547 0 550 641 635 642 83 3 639 .898039215686275 .917647058823529 .929
411764705882 81 1 550 2740 436 547 638 0 546 553 643 81 1 641 2632 604 551 0 553
 558 638 644 83 3 642 .898039215686275 .917647058823529 .929411764705882 81 1 55
3 2741 436 551 641 0 550 556 645 81 1 558 2631 604 554 0 556 646 641 647 83 3 64
4 .898039215686275 .917647058823529 .929411764705882 81 1 646 2630 604 451 0 559
 648 558 649 83 3 647 .898039215686275 .917647058823529 .929411764705882 81 1 55
9 2743 436 451 646 0 556 576 650 81 1 648 2629 604 454 0 456 651 646 652 83 3 64
9 .898039215686275 .917647058823529 .929411764705882 81 1 456 2726 436 454 648 0
 446 460 653 81 1 651 2628 604 457 0 460 654 648 655 83 3 652 .898039215686275 .
917647058823529 .929411764705882 81 1 460 2727 436 457 651 0 456 464 656 81 1 65
4 2627 604 461 0 464 657 651 658 83 3 655 .898039215686275 .917647058823529 .929
411764705882 81 1 464 2728 436 461 654 0 460 468 659 81 1 657 2626 604 465 0 468
 660 654 661 83 3 658 .898039215686275 .917647058823529 .929411764705882 81 1 46
8 2729 436 465 657 0 464 472 662 81 1 660 2625 604 469 0 472 663 657 664 83 3 66
1 .898039215686275 .917647058823529 .929411764705882 81 1 472 2730 436 469 660 0
 468 475 665 81 1 663 2624 604 473 0 475 480 660 666 83 3 664 .898039215686275 .
917647058823529 .929411764705882 81 1 475 2731 436 473 663 0 472 478 667 81 1 48
0 2623 604 476 0 478 668 663 669 83 3 666 .898039215686275 .917647058823529 .929
411764705882 81 1 668 2622 604 17 0 481 670 480 671 83 3 669 .898039215686275 .9
17647058823529 .929411764705882 81 1 481 2733 436 17 668 0 478 520 672 81 1 670
 2621 604 384 0 446 445 668 673 83 3 671 .898039215686275 .917647058823529 .9294
11764705882 81 1 446 2725 436 384 670 0 443 456 674 81 1 445 2620 604 15 0 443 0
 670 675 83 3 673 .898039215686275 .917647058823529 .929411764705882 83 3 675 .8
98039215686275 .917647058823529 .929411764705882 82 1 674 -1334443843 82 1 672 -
1104936780 82 1 667 -1105461068 82 1 665 -1105723212 82 1 662 -1105985356 82 1 6
59 -1106247500 82 1 656 -1106509644 82 1 653 -1106771788 82 1 650 -1124335436 82
 1 645 -1329397571 82 1 643 -1329659715 82 1 640 -1087438668 82 1 637 -108337543
6 82 1 634 -1079312204 82 1 631 -1075248972 82 1 626 -1067122508 79 255 15 619 S
DL/TYSA_COLOUR51 535 692 0 427 442 530 0 --.013 .003 -.013 0 -1 0 .00155 0 0 -1
 50 442 693 0 424 435 535 0 +-.0119039844891608 .003 -.01409601551083914 -.70710
678118655 0 .707106781186545 .707106781186545 0 .707106781186551 81 1 612 2651 6
04 377 0 579 578 609 676 83 3 613 .898039215686275 .917647058823529 .92941176470
5882 81 1 579 2745 436 377 612 0 576 582 677 81 1 578 2650 604 575 0 576 678 612
 679 83 3 676 .898039215686275 .917647058823529 .929411764705882 81 1 678 2649 6
04 415 0 582 680 578 681 83 3 679 .898039215686275 .917647058823529 .92941176470
5882 81 1 582 2746 436 415 678 0 579 588 682 81 1 680 2648 604 583 0 588 683 678
 684 83 3 681 .898039215686275 .917647058823529 .929411764705882 81 1 588 2747 4
36 583 680 0 582 591 685 81 1 683 2647 604 189 0 591 686 680 687 83 3 684 .89803
9215686275 .917647058823529 .929411764705882 81 1 591 2748 436 189 683 0 588 594
 688 81 1 686 2646 604 592 0 594 606 683 689 83 3 687 .898039215686275 .91764705
8823529 .929411764705882 81 1 594 2749 436 592 686 0 591 597 690 81 1 606 2645 6
04 389 0 597 599 686 691 83 3 689 .898039215686275 .917647058823529 .92941176470
5882 83 3 691 .898039215686275 .917647058823529 .929411764705882 82 1 690 -10328
47180 82 1 688 -1331756867 82 1 685 -1332150083 82 1 682 67436733 82 1 677 75366
589 51 585 1699 0 174 0 581 0 +.0155 -.007 .0155 0 1 0 .002 0 0 1 82 1 608 -1331
494723 83 3 607 .898039215686275 .917647058823529 .929411764705882 79 14 603 SWE
ntUnchanged15 595 931 0 692 592 0 17 692 0 595 693 190 45 202 200 0 208 -17 693
 0 595 141 692 128 208 194 0 184 -17 190 0 595 692 141 133 188 191 0 202 +17 202
 0 448 179 47 133 692 200 0 0 +17 208 0 589 694 139 45 693 194 0 0 +15 589 1630
 0 30 583 0 17 694 0 589 30 208 169 47 196 0 0 -17 139 0 589 208 30 128 183 186
 0 693 +17 30 0 589 139 694 11 22 10 0 183 -17 22 0 26 168 24 169 30 10 0 175 +1
7 175 0 448 47 179 169 168 176 0 694 -15 448 1647 0 175 384 383 17 47 0 448 202
 175 45 694 196 0 692 +17 179 0 448 175 202 166 135 203 0 0 +16 176 1661 0 ?168
 173 29 695 0 0 1 31 695 1703 0 176 187 180 0 +.0155 0 .0155 0 -1 0 0 0 -1 .002
 31 187 1707 0 29 0 695 0 +.0155 .003 .0155 0 1 0 0 0 1 .002 30 180 1702 0 173 6
95 404 0 +.0135102563425748 -.007 .01570228736425315 0 1 0 31 404 1611 0 37 180
 388 0 +-.0155 .003 .0155 0 1 0 0 0 1 .002 16 37 1574 0 ?31 378 173 404 0 0 1 17
 135 0 177 188 172 133 179 203 0 190 -17 141 0 595 190 693 136 184 192 0 188 +17
 184 0 181 183 182 128 141 192 0 0 -82 1 580 71434429 15 561 217 0 312 451 696 1
7 312 0 561 312 312 0 510 310 0 0 +15 696 218 0 697 451 0 17 697 0 696 697 697 0
 315 309 0 0 -17 315 0 492 315 315 0 697 309 0 0 +15 492 196 0 315 384 698 15 69
8 364 0 288 384 699 17 288 0 698 288 288 0 700 280 0 0 +15 699 440 0 276 384 525
 17 276 0 699 276 276 0 701 268 0 0 +17 701 0 702 701 701 0 276 268 0 0 -15 702
 462 0 701 532 0 17 700 0 703 700 700 0 288 280 0 0 -15 703 386 0 700 543 0 82 1
 560 -1092222796 15 548 385 0 285 543 703 17 285 0 548 285 285 0 512 283 0 0 +15
 544 423 0 279 539 704 17 279 0 544 279 279 0 705 277 0 0 +15 704 424 0 706 539
 0 17 706 0 704 706 706 0 282 274 0 0 -17 282 0 707 282 282 0 706 274 0 0 +15 70
7 402 0 282 384 487 17 705 0 708 705 705 0 279 277 0 0 -15 708 409 0 705 15 569
 15 540 461 0 273 532 702 17 273 0 540 273 273 0 514 271 0 0 +15 533 499 0 267 5
22 709 17 267 0 533 267 267 0 710 265 0 0 +15 709 500 0 711 522 0 17 711 0 709 7
11 711 0 270 262 0 0 -17 270 0 712 270 270 0 711 262 0 0 +15 712 478 0 270 384 7
07 17 710 0 713 710 710 0 267 265 0 0 -15 713 485 0 710 15 708 15 529 575 0 255
 521 714 17 255 0 529 255 255 0 715 253 0 0 +15 714 576 0 716 521 0 17 716 0 714
 716 716 0 258 252 0 0 -17 258 0 430 258 258 0 716 252 0 0 +15 430 554 0 258 384
 712 17 715 0 397 715 715 0 255 253 0 0 -15 397 561 0 715 15 713 82 1 528 -10711
85740 82 1 482 -1105198924 82 1 447 -1334574915 82 1 439 -1330970435 19 16 175 0
 1 0 9 5 S0 74 4 CI16 index_map_offset0 0 1 dCCZ20 14 3 0 0 610 2 609 0 0 0 0 0
 0 0 0 0 0 0 0 0 0 0 0 0 80 2 12 717 718 8004 0 0 0 0 3 5 0 0 0 FFTFFFFFFFFFFF2
 3 83 1 13 27e2 79 16 718 SDL/TYSA_DENSITY1 0 
