**ABCDEFGHIJKLMNOPQRSTUVWXYZabcdefghijklmnopqrstuvwxyz**************************
**PARASOLID !"#$%&'()*+,-./:;<=>?@[\]^_`{|}~0123456789**************************
**PART1;
MC=AMD64;
MC_MODEL=Intel64 Family 6 Model 60 Stepping 3, GenuineIntel;
MC_ID=unknown;
OS=Windows_NT;
OS_RELEASE=unknown;
FRU=Parasolid Version 27.0, build 207,  1-23-2015;
APPL=SOLIDWORKS 2015-2015313;
SITE=;
USER=unknown;
FORMAT=text;
GUISE=transmit;
KEY=MOD_MINI_V_PLATE;
FILE=MOD_MINI_V_PLATE.x_t;
DATE=Tue Apr 26 21:56:06 2016;
**PART2;
SCH=SCH_2700207_26105;
USFLD_SIZE=0;
**PART3;
**END_OF_HEADER*****************************************************************
T51 : TRANSMIT FILE created by modeller version 270020723 SCH_2700207_26105_1300
6196 0 12 30 CCCCCCCCCCCCCDI5 owner1040 0 CCCCCCCCCA13 boundary_mesh1006 0 A16 i
ndex_map_offset0 0 1 dA9 index_map82 0 A17 node_id_index_map82 0 A20 schema_embe
dding_map82 0 A5 child12 0 A14 lowest_node_id0 0 1 dZ1 2350 2 3 0 0 0 0 1e3 1e-8
 0 4 0 1 0 1 1 5 6 7 8 9 10 11 0 0 0 0 0 0 0 81 255 2 2 1526 12 1 0 0 0 0 13 0 7
0 11 CI9 list_type0 0 1 uI10 notransmit0 0 1 lCCCDCCDI12 finger_index0 0 1 dI12
 finger_block1012 0 CZ3 0 4 T1 0 0 3 20 1 14 14 13 255 5 174 0 1 0 15 0 0 16 0 5
1 255 6 173 0 17 18 0 0 --.020365 .006 -.020365 0 -1 0 .004635 0 0 -1 31 255 7 8
03 0 19 20 0 0 +-.015 .004 .01595 0 1 0 0 0 1 .00255 29 255 8 1334 0 11 21 0 .01
975 0 .00335 19 8 CCCCCCCA5 owner12 0 Z9 52 0 1 16 0 22 V0 16 255 10 141 0 ?23 0
 24 25 0 0 1 18 255 11 1332 0 26 0 27 8 ?1 17 255 26 0 28 29 30 11 31 32 0 33 -1
8 27 1203 0 34 11 35 21 ?1 17 34 0 36 37 38 27 39 40 0 41 -18 35 1040 0 42 27 43
 44 ?1 29 21 1205 0 27 44 8 -.02225 0 -.00335 29 44 1042 0 35 45 21 .025 .00382
 .00335 29 45 919 0 43 46 44 -.025 .00382 -.00335 18 43 917 0 47 35 48 45 ?1 29
 46 126 0 49 50 45 -.020365 0 -.025 18 49 109 0 51 52 53 46 ?1 29 50 127 0 53 54
 46 .020365 0 -.025 18 53 110 0 55 49 56 50 ?1 29 54 128 0 56 57 50 .025 0 -.020
365 18 56 111 0 58 53 59 54 ?1 29 57 129 0 59 60 54 .025 0 .020365 18 59 112 0 6
1 56 62 57 ?1 29 60 130 0 62 63 57 .020365 0 .025 18 62 113 0 64 59 65 60 ?1 29
 63 131 0 65 66 60 -.020365 0 .025 18 65 114 0 67 62 68 63 ?1 29 66 132 0 68 69
 63 -.025 0 .020365 18 68 115 0 70 65 71 66 ?1 29 69 133 0 71 72 66 -.025 0 -.02
0365 18 71 116 0 73 68 74 69 ?1 29 72 51 0 48 75 69 -.020365 .006 -.025 18 48 49
 0 76 43 77 72 ?1 29 75 48 0 77 78 72 .020365 .006 -.025 18 77 46 0 79 48 80 75
 ?1 29 78 45 0 80 81 75 .025 .006 -.020365 18 80 43 0 82 77 83 78 ?1 29 81 42 0
 83 84 78 .025 .006 .020365 18 83 40 0 85 80 86 81 ?1 29 84 39 0 86 87 81 .02036
5 .006 .025 18 86 37 0 88 83 89 84 ?1 29 87 36 0 89 90 84 -.020365 .006 .025 18
 89 34 0 91 86 92 87 ?1 29 90 33 0 92 93 87 -.025 .006 .020365 18 92 31 0 94 89
 52 90 ?1 29 93 30 0 52 95 90 -.025 .006 -.020365 18 52 28 0 96 92 49 93 ?1 29 9
5 1025 0 97 98 93 -.025 .006 -.00335 18 97 978 0 99 74 100 95 ?1 29 98 1026 0 10
0 101 95 -.01975 .006 -.00335 18 100 980 0 102 97 103 98 ?1 29 101 1027 0 103 10
4 98 -.01975 .006 .00335 18 103 982 0 105 100 106 101 ?1 29 104 1028 0 106 107 1
01 -.025 .006 .00335 18 106 976 0 108 103 109 104 ?1 29 107 1032 0 74 110 104 -.
025 .00382 .00335 18 74 981 0 111 71 97 107 ?1 29 110 1149 0 112 113 107 .025 .0
06 -.00335 18 112 1102 0 114 109 115 110 ?1 29 113 1150 0 115 116 110 .025 .006
 .00335 18 115 1104 0 117 112 118 113 ?1 29 116 1151 0 118 119 113 .01975 .006 .
00335 18 118 1106 0 31 115 120 116 ?1 29 119 1152 0 120 121 116 .01975 .006 -.00
335 18 120 1100 0 122 118 123 119 ?1 29 121 1153 0 109 124 119 .025 .00382 -.003
35 18 109 1099 0 125 106 112 121 ?1 29 124 1301 0 126 127 121 -.02225 .00382 .00
335 18 126 1255 0 128 129 130 124 ?1 29 127 1302 0 130 131 124 -.02225 .00382 -.
00335 18 130 1257 0 37 126 132 127 ?1 29 131 1304 0 123 133 127 -.01975 0 .00335
 18 123 1250 0 134 120 135 131 ?1 29 133 1305 0 135 136 131 -.02225 0 .00335 18
 135 1252 0 38 123 129 133 ?1 29 136 1307 0 129 137 133 -.01975 0 -.00335 18 129
 1256 0 138 135 126 136 ?1 29 137 1429 0 139 140 136 .02225 .00382 -.00335 18 13
9 1382 0 141 142 143 137 ?1 29 140 1430 0 143 144 137 .02225 .00382 .00335 18 14
3 1384 0 145 139 0 140 ?1 29 144 1433 0 132 146 140 .02225 0 -.00335 18 132 1379
 0 147 130 148 144 ?1 29 146 1434 0 148 149 144 .02225 0 .00335 18 148 1381 0 15
0 132 142 146 ?1 29 149 1436 0 142 0 146 .01975 0 -.00335 18 142 1385 0 151 148
 139 149 ?1 17 151 0 152 153 154 142 122 155 0 29 -15 255 152 1110 0 154 156 0 1
7 153 0 152 141 151 132 157 158 0 159 -17 154 0 152 151 114 120 160 161 0 162 +1
7 122 0 28 30 29 120 151 155 0 154 +16 155 1074 0 ?122 32 163 164 0 0 1 17 29 0
 28 122 26 142 165 166 0 157 -15 28 1122 0 30 167 0 17 165 0 168 169 157 11 29 1
66 0 0 +16 166 1363 0 ?165 170 158 171 0 0 1 17 157 0 168 165 159 142 153 158 0
 0 +15 168 1330 0 159 172 173 17 159 0 168 157 169 132 174 175 0 0 +16 158 1351
 0 ?157 166 176 177 0 0 1 16 176 1376 0 ?178 158 179 180 0 0 1 30 255 177 1428 0
 158 181 171 0 +.01975 0 -.00335 -1 0 -173472347597681e-30 31 181 1956 0 179 182
 177 0 +0 .006 .01 0 -1 0 0 0 -1 .00275 30 171 1427 0 166 177 183 0 +.01975 0 -.
00335 0 0 1 30 183 1426 0 170 171 184 0 +.01975 0 .00335 1 0 0 16 170 1359 0 ?16
9 175 166 183 0 0 1 30 184 1425 0 175 183 180 0 +.02225 0 -.00335 0 0 -1 16 175
 1355 0 ?159 185 170 184 0 0 1 30 180 1421 0 176 184 186 0 +.02225 .00382 -.0033
5 0 0 -1 30 186 1420 0 187 180 188 0 +.02225 0 -.00335 0 1 0 16 187 1358 0 ?141
 189 185 186 0 0 1 30 188 1419 0 185 186 190 0 +.02225 0 .00335 0 1 0 16 185 136
2 0 ?145 187 175 188 0 0 1 30 190 1299 0 191 188 192 0 +-.01975 0 -.00335 0 0 -1
 16 191 1222 0 ?193 194 189 190 0 0 1 30 192 1298 0 194 190 195 0 +-.01975 0 -.0
0335 -1 0 173472347597681e-30 16 194 1234 0 ?196 40 191 192 0 0 1 30 195 1297 0
 40 192 197 0 +-.02225 0 -.00335 0 0 1 16 40 1230 0 ?39 198 194 195 0 0 1 30 197
 1296 0 198 195 199 0 +-.01975 0 .00335 1 0 0 16 198 1226 0 ?200 201 40 197 0 0
 1 30 199 1293 0 189 197 202 0 +-.02225 .00382 -.00335 0 0 1 16 189 1244 0 ?203
 191 187 199 0 0 1 30 202 1290 0 204 199 205 0 +-.02225 0 .00335 0 1 0 16 204 12
33 0 ?128 161 201 202 0 0 1 30 205 1289 0 201 202 206 0 +-.02225 0 -.00335 0 1 0
 16 201 1237 0 ?37 204 198 205 0 0 1 30 206 1148 0 207 205 208 0 +.025 .00382 -.
00335 -1 0 0 16 207 1071 0 ?209 210 211 206 0 0 1 30 208 1146 0 210 206 212 0 +.
025 .00382 .00335 1 0 0 16 210 1322 0 ?42 163 207 208 0 0 1 30 212 1145 0 163 20
8 213 0 +.025 .00382 -.00335 0 0 -1 16 163 1075 0 ?214 155 210 212 0 0 1 30 213
 1144 0 161 212 215 0 +.025 .006 -.00335 -1 0 0 16 161 1087 0 ?154 216 204 213 0
 0 1 30 215 1143 0 216 213 217 0 +.01975 .006 -.00335 0 0 1 16 216 1090 0 ?30 21
1 161 215 0 0 1 30 217 1142 0 211 215 218 0 +.025 .006 .00335 1 0 0 16 211 1093
 0 ?117 207 216 217 0 0 1 30 218 1140 0 219 217 220 0 +.025 .00382 -.00335 0 1 0
 16 219 1078 0 ?114 221 222 218 0 0 1 30 220 1139 0 222 218 223 0 +.025 .00382 .
00335 0 1 0 16 222 1082 0 ?224 219 32 220 0 0 1 30 223 1138 0 32 220 164 0 +.019
75 .00382 .00335 0 1 0 16 32 1086 0 ?31 222 155 223 0 0 1 30 164 1137 0 155 223
 225 0 +.01975 .00382 -.00335 0 1 0 30 225 1024 0 226 164 227 0 +-.025 .00382 -.
00335 0 0 1 16 226 947 0 ?228 229 230 225 0 0 1 30 227 1023 0 229 225 231 0 +-.0
25 .00382 .00335 1 0 0 16 229 959 0 ?232 233 226 227 0 0 1 30 231 1021 0 233 227
 234 0 +-.025 .00382 -.00335 -1 0 0 16 233 1193 0 ?47 235 229 231 0 0 1 30 234 1
019 0 221 231 236 0 +-.025 .006 .00335 1 0 0 16 221 966 0 ?237 238 219 234 0 0 1
 30 236 1018 0 238 234 239 0 +-.01975 .006 -.00335 0 0 -1 16 238 969 0 ?240 230
 221 236 0 0 1 30 239 1017 0 230 236 241 0 +-.025 .006 -.00335 -1 0 0 16 230 972
 0 ?99 226 238 239 0 0 1 30 241 1016 0 242 239 243 0 +-.025 .00382 -.00335 0 1 0
 16 242 954 0 ?244 245 246 241 0 0 1 30 243 1015 0 246 241 247 0 +-.01975 .00382
 -.00335 0 1 0 16 246 958 0 ?102 242 248 243 0 0 1 30 247 1014 0 248 243 249 0 +
-.01975 .00382 .00335 0 1 0 16 248 962 0 ?105 246 235 247 0 0 1 30 249 1013 0 23
5 247 250 0 +-.025 .00382 .00335 0 1 0 16 235 950 0 ?108 248 233 249 0 0 1 31 25
0 847 0 251 249 252 0 +-.015 .004 .01595 0 1 0 0 0 1 .00505 16 251 814 0 ?253 19
 245 250 0 0 1 31 252 846 0 245 250 254 0 +-.015 .006 .01595 0 1 0 0 0 1 .00505
 16 245 818 0 ?255 251 242 252 0 0 1 31 254 797 0 256 252 257 0 +.015 .004 .0159
5 0 1 0 0 0 1 .00505 16 256 764 0 ?258 259 260 254 0 0 1 31 257 796 0 260 254 26
1 0 +.015 .006 .01595 0 1 0 0 0 1 .00505 16 260 768 0 ?262 256 19 257 0 0 1 31 2
61 747 0 263 257 264 0 +.015 .004 -.01595 0 1 0 0 0 1 .006 16 263 714 0 ?265 266
 267 261 0 0 1 31 264 746 0 267 261 268 0 +.015 .006 -.01595 0 1 0 0 0 1 .006 16
 267 718 0 ?269 263 259 264 0 0 1 31 268 697 0 270 264 271 0 +-.015 .004 -.01595
 0 1 0 0 0 1 .006 16 270 664 0 ?272 273 274 268 0 0 1 31 271 696 0 274 268 275 0
 +-.015 .006 -.01595 0 1 0 0 0 1 .006 16 274 668 0 ?276 270 266 271 0 0 1 31 275
 588 0 277 271 278 0 +-.01 .006 0 0 1 0 0 0 1 .0021 16 277 567 0 ?279 280 273 27
5 0 0 1 31 278 587 0 280 275 281 0 +-.01 0 0 0 1 0 0 0 1 .0021 16 280 568 0 ?282
 283 277 278 0 0 1 31 281 542 0 283 278 284 0 +0 .006 0 0 1 0 0 0 1 .0021 16 283
 521 0 ?285 286 280 281 0 0 1 31 284 541 0 286 281 287 0 +0 0 0 0 1 0 0 0 1 .002
1 16 286 522 0 ?288 289 283 284 0 0 1 31 287 450 0 289 284 290 0 +.01 .006 0 0 1
 0 0 0 1 .0021 16 289 429 0 ?291 292 286 287 0 0 1 31 290 449 0 292 287 293 0 +.
01 0 0 0 1 0 0 0 1 .0021 16 292 430 0 ?294 295 289 290 0 0 1 31 293 344 0 295 29
0 296 0 +-.015 0 .01595 0 1 0 0 0 -1 .00255 16 295 322 0 ?297 298 292 293 0 0 1
 31 296 306 0 298 293 299 0 +.015 0 .01595 0 1 0 0 0 1 .00255 16 298 284 0 ?300
 301 295 296 0 0 1 31 299 268 0 301 296 302 0 +.015 0 -.01595 0 1 0 0 0 -1 .0036
 16 301 246 0 ?303 304 298 299 0 0 1 31 302 230 0 304 299 305 0 +-.015 0 -.01595
 0 1 0 0 0 1 .0036 16 304 208 0 ?306 307 301 302 0 0 1 31 305 5 0 308 302 309 0
 +-.020365 .006 -.020365 0 1 0 0 0 1 .004635 16 308 4 0 ?310 311 312 305 0 0 1 3
0 309 8 0 313 305 314 0 +-.025 .006 .020365 0 0 1 16 313 7 0 ?315 316 311 309 31
1 311 1 31 314 11 0 316 309 317 0 +-.020365 .006 .020365 0 1 0 0 0 -1 .004635 16
 316 10 0 ?91 318 313 314 0 0 1 30 317 14 0 318 314 319 0 +.020365 .006 .025 1 0
 -851816094268012e-31 16 318 13 0 ?88 320 316 317 0 0 1 31 319 17 0 320 317 321
 0 +.020365 .006 .020365 0 1 0 0 0 1 .004635 16 320 16 0 ?85 322 318 319 0 0 1 3
0 321 20 0 323 319 324 0 +.025 .006 .020365 0 0 -1 16 323 19 0 ?325 326 322 321
 322 322 1 31 324 23 0 326 321 327 0 +.020365 .006 -.020365 0 1 0 0 0 1 .004635
 16 326 22 0 ?79 328 323 324 0 0 1 30 327 26 0 328 324 329 0 +.020365 .006 -.025
 -1 0 2555448282804035e-31 16 328 25 0 ?76 330 326 327 0 0 1 31 329 125 0 307 32
7 331 0 +-.020365 0 -.020365 0 1 0 0 0 1 .004635 16 307 105 0 ?332 333 304 329 0
 0 1 30 331 124 0 333 329 334 0 +-.025 0 .020365 0 0 1 16 333 101 0 ?70 335 307
 331 0 0 1 31 334 123 0 335 331 336 0 +-.020365 0 .020365 0 1 0 0 0 -1 .004635 1
6 335 97 0 ?67 337 333 334 0 0 1 30 336 122 0 337 334 338 0 +.020365 0 .025 1 0
 -851816094268012e-31 16 337 93 0 ?64 339 335 336 0 0 1 31 338 121 0 339 336 340
 0 +.020365 0 .020365 0 1 0 0 0 1 .004635 16 339 89 0 ?61 341 337 338 0 0 1 30 3
40 120 0 341 338 342 0 +.025 0 .020365 0 0 -1 16 341 85 0 ?58 343 339 340 0 0 1
 31 342 119 0 343 340 344 0 +.020365 0 -.020365 0 1 0 0 0 1 .004635 16 343 81 0
 ?55 312 341 342 0 0 1 30 344 118 0 312 342 345 0 +.020365 0 -.025 -1 0 25554482
82804035e-31 16 312 77 0 ?51 308 343 344 0 0 1 30 345 158 0 330 344 346 0 +-.020
365 .006 -.025 0 -1 0 16 330 134 0 ?347 348 328 345 0 0 1 30 346 159 0 348 345 3
49 0 +.020365 .006 -.025 0 -1 0 16 348 135 0 ?350 351 330 346 0 0 1 30 349 160 0
 351 346 352 0 +.025 .006 -.020365 0 -1 0 16 351 136 0 ?353 354 348 349 0 0 1 30
 352 161 0 354 349 355 0 +.025 .006 .020365 0 -1 0 16 354 137 0 ?356 357 351 352
 0 0 1 30 355 162 0 357 352 358 0 +.020365 .006 .025 0 -1 0 16 357 138 0 ?359 36
0 354 355 0 0 1 30 358 163 0 360 355 361 0 +-.020365 .006 .025 0 -1 0 16 360 139
 0 ?362 24 357 358 0 0 1 30 361 164 0 24 358 25 0 +-.025 .006 .020365 0 -1 0 16
 24 140 0 ?363 10 360 361 0 0 1 30 25 165 0 10 361 364 0 +-.025 .006 -.020365 0
 -1 0 31 364 653 0 273 25 365 0 +-.015 .004 -.01595 0 1 0 0 0 1 .0036 16 273 667
 0 ?366 277 270 364 0 0 1 31 365 703 0 266 364 20 0 +.015 .004 -.01595 0 1 0 0 0
 1 .0036 16 266 717 0 ?367 274 263 365 0 0 1 31 20 753 0 259 365 7 0 +.015 .004
 .01595 0 1 0 0 0 1 .00255 16 259 767 0 ?368 267 256 20 0 0 1 17 368 0 369 368 3
68 0 370 259 0 0 +15 369 751 0 368 371 0 17 370 0 372 370 370 0 368 259 0 0 -15
 372 784 0 370 373 374 14 255 373 782 375 ?376 377 372 5 378 +0 0 376 377 22 15
 374 785 0 258 373 0 17 258 0 374 258 258 0 379 256 0 0 +17 379 0 380 379 379 0
 258 256 0 0 -15 380 780 0 379 377 381 14 377 777 382 ?373 383 380 5 384 -0 0 37
3 383 22 15 381 781 0 262 377 0 17 262 0 381 262 262 0 385 260 0 0 +17 385 0 386
 385 385 0 262 260 0 0 -15 386 758 0 385 387 388 14 387 319 389 ?172 390 391 5 3
92 +0 0 172 390 22 15 388 708 0 393 387 394 17 393 0 388 393 393 0 269 267 0 0 -
15 394 658 0 395 387 396 17 395 0 394 395 395 0 276 274 0 0 -15 396 557 0 397 38
7 398 17 397 0 396 397 397 0 279 277 0 0 -15 398 511 0 399 387 400 17 399 0 398
 399 399 0 285 283 0 0 -15 400 419 0 401 387 0 17 401 0 400 401 401 0 291 289 0
 0 -17 291 0 402 291 291 0 401 289 0 0 +15 402 443 0 291 403 0 14 403 439 404 ?4
05 406 407 5 408 -0 0 405 406 22 81 1 404 2313 409 403 410 0 389 411 412 14 405
 531 411 ?413 403 414 5 415 -0 0 413 403 22 14 406 143 416 ?403 417 418 5 419 -0
 0 403 417 22 15 407 442 0 420 403 402 51 408 448 0 403 415 421 0 +.01 .006 0 0
 1 0 .0021 0 0 1 13 22 53 0 0 0 0 0 0 9 15 14 15 804 422 ?371 0 423 5 421 +0 0 3
71 0 22 81 1 422 2316 409 15 424 0 416 425 426 14 371 754 425 ?427 15 428 5 429
 +0 0 427 15 22 15 423 332 0 430 15 431 51 421 341 0 15 408 429 0 --.015 .006 .0
1595 0 -1 0 .00255 0 0 -1 51 429 303 0 371 421 432 0 -.015 .006 .01595 0 -1 0 .0
0255 0 0 -1 51 432 265 0 427 429 433 0 -.015 .006 -.01595 0 -1 0 .0036 0 0 -1 14
 427 704 434 ?390 371 435 5 432 +0 0 390 371 22 51 433 227 0 390 432 392 0 --.01
5 .006 -.01595 0 -1 0 .0036 0 0 -1 14 390 654 436 ?387 427 437 5 433 +0 0 387 42
7 22 50 255 392 2 0 387 433 438 0 +-.020365 .006 -.020365 0 1 0 0 0 1 50 438 117
 0 172 392 419 0 +-.020365 0 -.020365 0 1 0 0 0 1 14 172 313 439 ?17 387 440 5 4
38 -0 0 17 387 22 50 419 166 0 406 438 441 0 +.020365 .006 -.025 255544828280403
5e-31 0 1 1 0 -2555448282804035e-31 51 441 167 0 417 419 442 0 -.020365 .006 -.0
20365 0 -1 0 .004635 0 0 -1 14 417 145 443 ?406 444 445 5 441 -0 0 406 444 22 50
 442 168 0 444 441 446 0 +.025 .006 .020365 -1 0 0 0 0 1 14 444 147 447 ?417 448
 449 5 442 -0 0 417 448 22 51 446 169 0 448 442 450 0 -.020365 .006 .020365 0 -1
 0 .004635 0 0 -1 14 448 149 451 ?444 452 453 5 446 -0 0 444 452 22 50 450 170 0
 452 446 454 0 +.020365 .006 .025 -851816094268012e-31 0 -1 -1 0 851816094268012
e-31 14 452 151 455 ?448 456 457 5 450 -0 0 448 456 22 51 454 171 0 456 450 18 0
 --.020365 .006 .020365 0 -1 0 .004635 0 0 -1 14 456 153 458 ?452 459 460 5 454
 -0 0 452 459 22 50 18 172 0 459 454 6 0 +-.025 .006 .020365 1 0 0 0 0 -1 14 459
 155 461 ?456 17 462 5 18 -0 0 456 17 22 81 1 461 2326 409 459 463 0 458 464 465
 14 17 157 464 ?459 172 466 5 6 -0 0 459 172 22 15 462 154 0 467 459 0 17 467 0
 462 244 468 43 228 226 0 0 -17 244 0 462 96 467 97 469 242 0 315 +17 468 0 462
 467 470 74 108 235 0 0 -17 228 0 471 232 47 74 467 226 0 468 +15 471 1196 0 472
 473 0 17 232 0 471 472 228 126 111 229 0 0 +17 47 0 471 228 472 43 474 233 0 46
9 +17 472 0 471 47 232 130 203 189 0 474 -17 474 0 475 41 469 130 47 233 0 0 -17
 469 0 475 474 99 43 244 242 0 467 -15 475 990 0 99 476 0 17 99 0 475 469 102 97
 477 230 0 244 +17 102 0 475 99 478 100 138 246 0 240 +17 477 0 479 480 315 100
 99 230 0 0 -15 479 1065 0 160 387 481 17 480 0 479 482 477 103 240 238 0 0 -17
 315 0 479 477 310 97 96 313 0 0 +17 310 0 479 315 76 52 483 308 0 484 +17 96 0
 462 23 244 52 315 313 0 310 -17 23 0 462 70 96 71 484 10 0 332 +17 70 0 462 485
 23 68 73 333 0 363 +17 484 0 466 483 332 52 23 10 0 0 -17 332 0 466 484 347 71
 486 307 0 0 +15 466 156 0 332 17 0 17 347 0 466 332 483 49 487 330 0 486 +17 48
6 0 488 489 73 49 332 307 0 0 -15 488 76 0 486 172 490 17 489 0 488 491 486 53 5
1 312 0 0 -17 73 0 488 486 492 71 70 333 0 23 -17 492 0 488 73 493 68 67 335 0 0
 -17 493 0 488 492 494 65 64 337 0 0 -17 67 0 460 495 363 65 492 335 0 362 +15 4
60 152 0 67 456 0 17 495 0 460 496 67 89 362 360 0 497 -17 363 0 460 67 496 68 4
85 24 0 492 +17 362 0 457 64 497 65 495 360 0 493 +15 457 150 0 64 452 0 17 64 0
 457 498 362 62 493 337 0 359 +17 497 0 457 362 498 89 88 318 0 0 -17 498 0 457
 497 64 86 359 357 0 499 -17 88 0 479 85 91 86 497 318 0 498 +17 85 0 479 325 88
 83 499 320 0 500 +17 91 0 479 88 94 89 496 316 0 495 +17 94 0 479 91 482 92 470
 311 0 485 +17 496 0 460 363 495 92 91 316 0 0 -17 482 0 479 94 480 106 237 221
 0 470 -17 470 0 462 468 485 106 94 311 0 0 -16 311 915 0 ?94 313 308 309 313 31
3 1 17 485 0 462 470 70 92 363 24 0 496 -17 237 0 501 134 108 103 482 221 0 480
 +15 501 998 0 237 502 0 17 134 0 501 503 237 123 105 248 0 504 -17 108 0 501 23
7 111 106 468 235 0 482 +17 111 0 501 108 128 74 232 229 0 228 -17 128 0 501 111
 503 126 38 204 0 203 +17 503 0 501 128 134 135 200 198 0 39 -17 38 0 36 34 203
 135 128 204 0 503 -17 203 0 36 38 37 126 472 189 0 232 +15 36 1269 0 203 505 0
 17 37 0 36 203 34 130 41 201 0 472 +17 41 0 475 478 474 27 37 201 0 196 -17 478
 0 475 102 41 129 196 194 0 193 -17 196 0 173 39 193 27 478 194 0 0 +15 173 1201
 0 200 172 506 17 39 0 173 200 196 135 34 40 0 0 +17 193 0 173 196 200 129 504 1
91 0 0 +17 200 0 173 193 39 123 503 198 0 0 +17 504 0 507 105 138 123 193 191 0
 200 -15 507 994 0 240 508 0 17 105 0 507 240 504 103 134 248 0 237 +17 138 0 50
7 504 240 129 102 246 0 478 -17 240 0 507 138 105 100 480 238 0 477 +14 508 991
 509 ?502 476 507 5 510 -0 0 502 476 22 81 1 509 2328 409 508 511 0 464 512 513
 14 502 995 512 ?473 508 501 5 514 -0 0 473 508 22 14 476 987 515 ?508 516 475 5
 517 -0 0 508 516 22 50 510 1009 0 508 517 514 0 +-.01975 .00382 -.00335 1 0 0 0
 0 -1 50 517 1010 0 476 518 510 0 +-.025 .00382 -.00335 0 0 -1 -1 0 0 50 514 100
8 0 502 510 519 0 +-.025 .00382 .00335 0 0 1 1 0 0 50 519 844 0 516 514 520 0 +-
.015 .004 .01595 0 1 0 0 0 1 14 516 832 521 ?476 376 522 5 519 +0 0 476 376 22 5
1 520 842 0 376 519 378 0 +-.015 .004 .01595 0 1 0 .00505 0 0 1 14 376 827 523 ?
516 373 524 5 520 -0 0 516 373 22 50 378 794 0 373 520 384 0 +.015 .004 .01595 0
 1 0 0 0 1 51 384 792 0 377 378 525 0 +.015 .004 .01595 0 1 0 .00505 0 0 1 50 52
5 744 0 383 384 526 0 +.015 .004 -.01595 0 1 0 0 0 1 14 383 732 527 ?377 528 529
 5 525 +0 0 377 528 22 51 526 742 0 528 525 530 0 +.015 .004 -.01595 0 1 0 .006
 0 0 1 14 528 727 531 ?383 532 533 5 526 -0 0 383 532 22 50 530 694 0 532 526 53
4 0 +-.015 .004 -.01595 0 1 0 0 0 1 14 532 682 535 ?528 536 537 5 530 +0 0 528 5
36 22 51 534 692 0 536 530 538 0 +-.015 .004 -.01595 0 1 0 .006 0 0 1 14 536 677
 539 ?532 413 540 5 534 -0 0 532 413 22 51 538 586 0 413 534 415 0 +-.01 .006 0
 0 1 0 .0021 0 0 1 14 413 577 541 ?536 405 542 5 538 -0 0 536 405 22 51 415 540
 0 405 538 408 0 +0 .006 0 0 1 0 .0021 0 0 1 81 1 541 2337 409 413 543 0 539 544
 545 15 542 580 0 546 413 547 17 546 0 542 546 546 0 282 280 0 0 -15 547 581 0 2
79 413 0 17 279 0 547 279 279 0 397 277 0 0 +17 282 0 506 282 282 0 546 280 0 0
 +15 506 545 0 282 172 548 15 548 499 0 288 172 549 17 288 0 548 288 288 0 550 2
86 0 0 +15 549 407 0 294 172 551 17 294 0 549 294 294 0 420 292 0 0 +15 551 273
 0 300 172 552 17 300 0 551 300 300 0 553 298 0 0 +15 552 197 0 306 172 488 17 3
06 0 552 306 306 0 554 304 0 0 +17 554 0 437 554 554 0 306 304 0 0 -15 437 218 0
 554 390 555 15 555 651 0 366 390 0 17 366 0 555 366 366 0 556 273 0 0 +17 556 0
 537 556 556 0 366 273 0 0 -15 537 684 0 556 532 557 15 557 685 0 272 532 0 17 2
72 0 557 272 272 0 558 270 0 0 +17 558 0 540 558 558 0 272 270 0 0 -15 540 680 0
 558 536 559 15 559 681 0 276 536 0 17 276 0 559 276 276 0 395 274 0 0 +17 553 0
 428 553 553 0 300 298 0 0 -15 428 294 0 553 371 369 17 420 0 407 420 420 0 294
 292 0 0 -17 550 0 414 550 550 0 288 286 0 0 -15 414 534 0 550 405 560 15 560 53
5 0 285 405 0 17 285 0 560 285 285 0 399 283 0 0 +80 255 1 409 561 562 9000 1 1
 1 1 1 1 1 1 0 FFFFTFTFFFFFFF1 81 1 543 2195 563 413 0 541 564 565 566 81 1 539
 2336 409 536 565 0 535 541 567 81 1 544 2338 409 473 568 0 541 569 570 82 255 1
 545 -1209663356 14 473 999 544 ?156 502 471 5 518 +0 0 156 502 22 81 1 568 2207
 563 473 0 544 571 572 573 81 1 569 2339 409 156 572 0 544 574 575 82 1 570 -155
2482152 14 156 1107 569 ?576 473 152 5 577 -0 0 576 473 22 81 1 572 2208 563 156
 0 569 568 578 579 81 1 574 2340 409 576 578 0 569 580 581 82 1 575 -1534328680
 14 576 1115 574 ?167 156 582 5 583 -0 0 167 156 22 81 1 578 2209 563 576 0 574
 572 584 585 81 1 580 2341 409 167 584 0 574 586 587 82 1 581 -1534590824 14 167
 1119 580 ?588 576 28 5 589 -0 0 588 576 22 81 1 584 2210 563 167 0 580 578 590
 591 81 1 586 2342 409 588 590 0 580 592 593 82 1 587 -1534459752 14 588 1123 58
6 ?505 167 594 5 595 +0 0 505 167 22 81 1 590 2211 563 588 0 586 584 596 597 81
 1 592 2343 409 505 596 0 586 598 599 82 1 593 -1541275496 14 505 1266 592 ?600
 588 36 5 601 -0 0 600 588 22 81 1 596 2212 563 505 0 592 590 602 603 81 1 598 2
344 409 600 602 0 592 604 605 82 1 599 -1315307368 14 600 1391 598 ?606 505 607
 5 608 -0 0 606 505 22 81 1 602 2213 563 600 0 598 596 609 610 81 1 604 2345 409
 606 609 0 598 611 612 82 1 605 -1304231784 14 606 1932 604 ?613 600 614 5 615 -
0 0 613 600 22 81 1 609 2214 563 606 0 604 602 616 617 81 1 611 2346 409 613 616
 0 604 618 619 82 1 612 -1240268635 14 613 1937 611 ?620 606 621 5 622 -0 0 620
 606 22 81 1 616 2215 563 613 0 611 609 623 624 81 1 618 2347 409 620 623 0 611
 625 626 82 1 619 -1240858459 14 620 1942 618 ?627 613 628 5 629 -0 0 627 613 22
 81 1 623 2216 563 620 0 618 616 630 631 81 1 625 2348 409 627 630 0 618 632 633
 82 1 626 -1241448283 14 627 2005 625 ?634 620 635 5 636 -0 0 634 620 22 81 1 63
0 2217 563 627 0 625 623 637 638 81 1 632 2349 409 634 637 0 625 639 640 82 1 63
3 -1218248539 14 634 2010 632 ?641 627 642 5 643 -0 0 641 627 22 81 1 637 2218 5
63 634 0 632 630 644 645 81 1 639 2350 409 641 644 0 632 0 646 82 1 640 -1218838
363 14 641 2015 639 ?0 634 647 5 648 -0 0 0 634 22 81 1 644 2219 563 641 0 639 6
37 0 649 82 1 646 -1219428187 80 1 563 0 650 8001 0 0 0 0 3 5 0 0 0 FFFFTFTFFFFF
FF2 83 255 3 649 .898039215686275 .917647058823529 .929411764705882 79 255 15 65
0 SDL/TYSA_COLOUR15 647 2018 0 651 641 652 51 648 2026 0 641 0 643 0 +0 0 -.01 0
 -1 0 .005 0 0 -1 50 643 2025 0 634 648 636 0 +.00275 .0032 -.01 0 1 0 0 0 1 51
 636 2024 0 627 643 629 0 +0 0 -.01 0 -1 0 .00275 0 0 -1 51 629 1953 0 620 636 6
22 0 +0 0 .01 0 -1 0 .005 0 0 -1 50 622 1952 0 613 629 615 0 +.00275 .0032 .01 0
 1 0 0 0 1 51 615 1951 0 606 622 608 0 +0 0 .01 0 -1 0 .00275 0 0 -1 50 608 1414
 0 600 615 601 0 +.02225 0 -.00335 1 0 0 0 0 -1 50 601 1284 0 505 608 595 0 +-.0
2225 0 -.00335 -1 0 0 0 0 1 50 595 1136 0 588 601 583 0 +0 .00382 0 0 1 0 0 0 1
 50 583 1133 0 576 595 589 0 +.025 .00382 .00335 0 0 1 1 0 0 50 589 1132 0 167 5
83 577 0 +.01975 .00382 -.00335 -1 0 0 0 0 1 50 577 1131 0 156 589 518 0 +.025 .
00382 -.00335 0 0 -1 -1 0 0 50 518 1012 0 473 577 517 0 +0 .00382 0 0 1 0 0 0 1
 17 651 0 647 651 651 0 653 654 0 0 -15 652 2019 0 655 641 0 17 655 0 652 655 65
5 0 656 657 0 0 +17 656 0 440 656 656 0 655 657 0 0 -16 657 1981 0 ?655 654 0 65
8 0 0 1 16 654 1986 0 ?653 659 657 660 0 0 1 31 658 2032 0 657 0 660 0 +0 0 -.01
 0 -1 0 0 0 -1 .005 31 660 2031 0 654 658 661 0 +0 .0032 -.01 0 -1 0 0 0 -1 .005
 31 661 2030 0 659 660 662 0 +0 .0032 -.01 0 -1 0 0 0 -1 .00275 16 659 1985 0 ?6
63 664 654 661 0 0 1 31 662 2029 0 664 661 665 0 +0 .006 -.01 0 -1 0 0 0 -1 .002
75 16 664 1984 0 ?666 667 659 662 0 0 1 31 665 1959 0 667 662 668 0 +0 0 .01 0 -
1 0 0 0 -1 .005 16 667 1908 0 ?669 670 664 665 0 0 1 31 668 1958 0 670 665 182 0
 +0 .0032 .01 0 -1 0 0 0 -1 .005 16 670 1913 0 ?671 672 667 668 0 0 1 31 182 195
7 0 672 668 181 0 +0 .0032 .01 0 -1 0 0 0 -1 .00275 16 672 1912 0 ?673 179 670 1
82 0 0 1 17 673 0 674 673 673 0 675 672 0 0 +16 179 1911 0 ?676 176 672 181 0 0
 1 17 676 0 677 676 676 0 678 179 0 0 +15 677 1891 0 676 387 479 17 678 0 614 67
8 678 0 676 179 0 0 -15 614 1935 0 678 606 674 15 674 1936 0 673 606 0 17 675 0
 621 675 675 0 673 672 0 0 -15 621 1940 0 675 613 679 15 679 1941 0 671 613 0 17
 671 0 679 671 671 0 680 670 0 0 +17 680 0 628 680 680 0 671 670 0 0 -15 628 194
5 0 680 620 681 15 681 1946 0 669 620 0 17 669 0 681 669 669 0 682 667 0 0 +17 6
82 0 683 682 682 0 669 667 0 0 -15 683 1899 0 682 172 168 17 666 0 391 666 666 0
 684 664 0 0 +15 391 1973 0 666 387 677 17 684 0 635 684 684 0 666 664 0 0 -15 6
35 2008 0 684 627 685 15 685 2009 0 663 627 0 17 663 0 685 663 663 0 686 659 0 0
 +17 686 0 642 686 686 0 663 659 0 0 -15 642 2013 0 686 634 687 15 687 2014 0 65
3 634 0 17 653 0 687 653 653 0 651 654 0 0 +15 440 1963 0 656 172 683 83 3 645 .
898039215686275 .917647058823529 .929411764705882 83 3 638 .898039215686275 .917
647058823529 .929411764705882 83 3 631 .898039215686275 .917647058823529 .929411
764705882 83 3 624 .898039215686275 .917647058823529 .929411764705882 83 3 617 .
898039215686275 .917647058823529 .929411764705882 83 3 610 .898039215686275 .917
647058823529 .929411764705882 15 607 1394 0 178 600 0 17 178 0 607 147 145 139 6
88 176 0 209 +17 147 0 607 174 178 132 141 187 0 153 -17 145 0 607 178 174 143 1
50 185 0 688 +17 688 0 594 42 209 143 178 176 0 689 -17 209 0 594 688 214 139 12
5 207 0 0 +15 594 1325 0 688 588 0 17 214 0 594 209 42 109 690 163 0 691 +17 125
 0 152 114 141 109 209 207 0 214 -17 114 0 152 154 125 112 691 219 0 160 +17 141
 0 152 125 153 139 147 187 0 178 +17 691 0 449 690 692 109 114 219 0 0 -17 160 0
 479 82 162 112 154 161 0 692 -17 82 0 479 79 160 80 692 322 0 693 +17 162 0 479
 160 694 120 30 216 0 0 -17 692 0 449 691 693 112 82 322 0 0 -15 449 1041 0 692
 444 0 17 693 0 449 692 58 80 353 351 0 695 -16 322 1038 0 ?82 323 320 321 323 3
23 1 17 58 0 449 693 356 56 696 341 0 353 +17 353 0 445 55 695 56 693 351 0 491
 +17 695 0 445 353 697 80 79 326 0 0 -15 445 144 0 55 417 0 17 697 0 445 695 55
 77 350 348 0 698 -17 79 0 479 76 82 77 695 326 0 697 +17 76 0 479 310 79 48 698
 328 0 487 +17 698 0 418 350 487 77 76 328 0 0 -17 487 0 418 698 51 48 347 330 0
 483 -15 418 142 0 51 406 0 17 51 0 418 487 350 49 489 312 0 347 +17 483 0 466 3
47 484 48 310 308 0 0 -17 350 0 418 51 698 53 697 348 0 489 +17 55 0 445 697 353
 53 491 343 0 350 +17 491 0 488 696 489 56 55 343 0 0 -17 696 0 488 494 491 59 5
8 341 0 0 -17 494 0 488 493 696 62 61 339 0 0 -17 61 0 453 500 359 59 494 339 0
 356 +15 453 148 0 61 448 0 17 500 0 453 499 61 83 356 354 0 699 -17 359 0 453 6
1 499 62 498 357 0 494 +17 356 0 449 58 699 59 500 354 0 696 +17 699 0 449 356 2
24 83 325 323 0 0 -17 224 0 449 699 690 115 700 222 0 325 +17 325 0 479 694 85 1
15 699 323 0 0 +17 694 0 479 162 325 118 117 211 0 0 -17 117 0 582 700 31 115 69
4 211 0 224 +15 582 1118 0 117 576 0 17 700 0 582 689 117 35 224 222 0 690 -17 3
1 0 582 117 33 118 26 32 0 30 +17 33 0 582 31 150 11 169 170 0 165 -17 30 0 28 2
6 122 118 162 216 0 694 +17 150 0 582 33 689 148 145 185 0 174 -17 169 0 168 159
 165 148 33 170 0 0 +17 689 0 582 150 700 143 42 210 0 0 -17 174 0 607 145 147 1
48 159 175 0 169 -17 42 0 594 214 688 35 689 210 0 700 +17 690 0 449 224 691 35
 214 163 0 0 -17 499 0 453 359 500 86 85 320 0 0 -83 3 603 .898039215686275 .917
647058823529 .929411764705882 83 3 597 .898039215686275 .917647058823529 .929411
764705882 83 3 591 .898039215686275 .917647058823529 .929411764705882 83 3 585 .
898039215686275 .917647058823529 .929411764705882 83 3 579 .898039215686275 .917
647058823529 .929411764705882 81 1 571 2206 563 502 0 512 511 568 701 83 3 573 .
898039215686275 .917647058823529 .929411764705882 81 1 512 2329 409 502 571 0 50
9 515 702 81 1 511 2205 563 508 0 509 703 571 704 83 3 701 .898039215686275 .917
647058823529 .929411764705882 81 1 703 2204 563 476 0 515 705 511 706 83 3 704 .
898039215686275 .917647058823529 .929411764705882 81 1 515 2330 409 476 703 0 51
2 521 707 81 1 705 2203 563 516 0 521 708 703 709 83 3 706 .898039215686275 .917
647058823529 .929411764705882 81 1 521 2331 409 516 705 0 515 523 710 81 1 708 2
202 563 376 0 523 711 705 712 83 3 709 .898039215686275 .917647058823529 .929411
764705882 81 1 523 2332 409 376 708 0 521 527 713 81 1 711 2201 563 373 0 375 71
4 708 715 83 3 712 .898039215686275 .917647058823529 .929411764705882 81 1 375 2
310 409 373 711 0 0 382 716 81 1 714 2200 563 377 0 382 717 711 718 83 3 715 .89
8039215686275 .917647058823529 .929411764705882 81 1 382 2311 409 377 714 0 375
 389 719 81 1 717 2199 563 383 0 527 720 714 721 83 3 718 .898039215686275 .9176
47058823529 .929411764705882 81 1 527 2333 409 383 717 0 523 531 722 81 1 720 21
98 563 528 0 531 723 717 724 83 3 721 .898039215686275 .917647058823529 .9294117
64705882 81 1 531 2334 409 528 720 0 527 535 725 81 1 723 2197 563 532 0 535 565
 720 726 83 3 724 .898039215686275 .917647058823529 .929411764705882 81 1 535 23
35 409 532 723 0 531 539 727 81 1 565 2196 563 536 0 539 543 723 728 83 3 726 .8
98039215686275 .917647058823529 .929411764705882 83 3 728 .898039215686275 .9176
47058823529 .929411764705882 82 1 727 589234316 82 1 725 595198092 82 1 722 5932
32012 81 1 389 2312 409 387 729 0 382 404 730 82 1 719 599130252 81 1 729 2183 5
63 387 0 389 731 732 733 82 1 730 927662245 81 1 731 2182 563 390 0 436 734 729
 735 81 1 732 2184 563 172 0 439 729 736 737 83 3 733 .898039215686275 .91764705
8823529 .929411764705882 81 1 439 2320 409 172 732 0 436 443 738 81 1 736 2185 5
63 17 0 464 732 463 739 83 3 737 .898039215686275 .917647058823529 .929411764705
882 81 1 464 2327 409 17 736 0 461 509 740 81 1 463 2186 563 459 0 461 736 741 7
42 83 3 739 .898039215686275 .917647058823529 .929411764705882 81 1 741 2187 563
 456 0 458 463 743 744 83 3 742 .898039215686275 .917647058823529 .9294117647058
82 81 1 458 2325 409 456 741 0 455 461 745 81 1 743 2188 563 452 0 455 741 746 7
47 83 3 744 .898039215686275 .917647058823529 .929411764705882 81 1 455 2324 409
 452 743 0 451 458 748 81 1 746 2189 563 448 0 451 743 749 750 83 3 747 .8980392
15686275 .917647058823529 .929411764705882 81 1 451 2323 409 448 746 0 447 455 7
51 81 1 749 2190 563 444 0 447 746 752 753 83 3 750 .898039215686275 .9176470588
23529 .929411764705882 81 1 447 2322 409 444 749 0 443 451 754 81 1 752 2191 563
 417 0 443 749 755 756 83 3 753 .898039215686275 .917647058823529 .9294117647058
82 81 1 443 2321 409 417 752 0 439 447 757 81 1 755 2192 563 406 0 416 752 410 7
58 83 3 756 .898039215686275 .917647058823529 .929411764705882 81 1 416 2315 409
 406 755 0 411 422 759 81 1 410 2193 563 403 0 404 755 564 760 83 3 758 .8980392
15686275 .917647058823529 .929411764705882 81 1 564 2194 563 405 0 411 410 543 7
61 83 3 760 .898039215686275 .917647058823529 .929411764705882 81 1 411 2314 409
 405 564 0 404 416 762 83 3 761 .898039215686275 .917647058823529 .9294117647058
82 82 1 762 -1225523068 82 1 759 -1565130626 82 1 757 -1564868482 82 1 754 -1564
606315 82 1 751 -1564344194 82 1 748 -1564082050 82 1 745 -1563819906 82 1 740 -
1563295618 81 1 436 2319 409 390 731 0 434 439 763 82 1 738 929759397 81 1 434 2
318 409 427 734 0 425 436 764 82 1 763 605945996 81 1 734 2181 563 427 0 434 765
 731 766 81 1 425 2317 409 371 765 0 422 434 767 82 1 764 608108684 81 1 765 218
0 563 371 0 425 424 734 768 82 1 767 610271372 81 1 424 2179 563 15 0 422 0 765
 769 83 3 768 .898039215686275 .917647058823529 .929411764705882 83 3 769 .89803
9215686275 .917647058823529 .929411764705882 83 3 766 .898039215686275 .91764705
8823529 .929411764705882 83 3 735 .898039215686275 .917647058823529 .92941176470
5882 82 1 716 597164172 82 1 713 603062412 82 1 710 601096332 82 1 707 -15459285
52 82 1 702 -1545666408 82 1 567 591200396 83 3 566 .898039215686275 .9176470588
23529 .929411764705882 79 14 562 SWEntUnchanged15 533 730 0 770 528 771 17 770 0
 533 770 770 0 265 263 0 0 -15 771 731 0 269 528 0 17 269 0 771 269 269 0 393 26
7 0 0 +17 265 0 772 265 265 0 770 263 0 0 +15 772 735 0 265 383 0 15 529 734 0 7
73 383 772 17 773 0 529 773 773 0 367 266 0 0 -17 367 0 774 367 367 0 773 266 0
 0 +15 774 701 0 367 427 0 15 524 830 0 775 376 776 17 775 0 524 775 775 0 253 2
51 0 0 -15 776 831 0 255 376 0 17 255 0 776 255 255 0 777 245 0 0 +17 777 0 481
 777 777 0 255 245 0 0 -15 481 808 0 777 387 386 17 253 0 778 253 253 0 775 251
 0 0 +15 778 835 0 253 516 0 15 522 834 0 779 516 778 17 779 0 522 779 779 0 780
 19 0 0 -17 780 0 431 780 780 0 779 19 0 0 +16 19 817 0 ?780 260 251 7 0 0 1 15
 431 801 0 780 15 0 82 1 513 -1545797480 15 490 235 0 303 172 781 17 303 0 490 3
03 303 0 782 301 0 0 +15 781 311 0 297 172 0 17 297 0 781 297 297 0 430 295 0 0
 +17 430 0 423 430 430 0 297 295 0 0 -17 782 0 435 782 782 0 303 301 0 0 -15 435
 256 0 782 427 774 82 1 465 -1563557739 82 1 426 612434060 82 1 412 -1257308028
 19 16 175 0 1 0 9 5 S0 74 4 CI16 index_map_offset0 0 1 dCCZ20 14 3 0 0 639 2 64
4 0 0 0 0 0 0 0 0 0 0 0 0 0 0 0 0 0 80 2 12 783 784 8004 0 0 0 0 3 5 0 0 0 FFTFF
FFFFFFFFF2 3 83 1 13 27e2 79 16 784 SDL/TYSA_DENSITY1 0 
