**ABCDEFGHIJKLMNOPQRSTUVWXYZabcdefghijklmnopqrstuvwxyz**************************
**PARASOLID !"#$%&'()*+,-./:;<=>?@[\]^_`{|}~0123456789**************************
**PART1;
MC=AMD64;
MC_MODEL=Intel64 Family 6 Model 60 Stepping 3, GenuineIntel;
MC_ID=unknown;
OS=Windows_NT;
OS_RELEASE=unknown;
FRU=Parasolid Version 27.0, build 207,  1-23-2015;
APPL=SOLIDWORKS 2015-2015313;
SITE=;
USER=unknown;
FORMAT=text;
GUISE=transmit;
KEY=PULLEY_6MM;
FILE=PULLEY_6MM.x_t;
DATE=Tue Apr 26 21:53:16 2016;
**PART2;
SCH=SCH_2700207_26105;
USFLD_SIZE=0;
**PART3;
**END_OF_HEADER*****************************************************************
T51 : TRANSMIT FILE created by modeller version 270020723 SCH_2700207_26105_1300
6196 0 12 30 CCCCCCCCCCCCCDI5 owner1040 0 CCCCCCCCCA13 boundary_mesh1006 0 A16 i
ndex_map_offset0 0 1 dA9 index_map82 0 A17 node_id_index_map82 0 A20 schema_embe
dding_map82 0 A5 child12 0 A14 lowest_node_id0 0 1 dZ1 4516 2 3 0 0 0 0 1e3 1e-8
 0 4 0 1 0 1 1 5 6 7 0 8 9 0 0 0 0 0 0 0 0 81 255 2 2 1530 10 1 0 0 0 0 11 0 70
 11 CI9 list_type0 0 1 uI10 notransmit0 0 1 lCCCDCCDI12 finger_index0 0 1 dI12 f
inger_block1012 0 CZ3 0 4 T1 0 0 3 20 1 12 12 13 255 5 65 0 1 0 13 0 0 14 0 50 2
55 6 129 0 13 15 0 0 +0 .0025 0 -1 0 0 0 0 1 38 255 7 4136 0 16 17 0 0 +18 19 20
 21 21 19 8 CCCCCCCA5 owner12 0 Z8 69 0 1 14 0 22 V0 16 255 9 108 0 ?23 0 24 25
 0 0 1 17 255 23 0 26 23 23 0 27 9 0 0 +16 24 103 0 ?28 9 29 30 0 0 1 31 255 25
 139 0 9 30 31 0 +0 0 0 1 0 0 0 0 -1 .006 31 30 138 0 24 32 25 0 +.0063 0 0 1 0
 0 0 0 -1 .006 38 31 222 0 33 25 17 0 +15 34 35 36 36 16 33 235 0 ?37 38 39 31 0
 0 1 38 17 280 0 39 31 7 0 +15 18 40 41 41 51 255 15 128 0 42 43 6 44 +0 0 0 1 0
 0 .006 0 0 -1 51 34 264 0 45 18 46 47 +.00315 0 0 0 -1 0 .00125 0 0 -1 40 255 2
0 35 0 1 20 726536304958825e-19 .343966221243766 ??.00315 .00586834729715275 -.0
0125 .0027413609608535 .00588255776548897 -.001181318812042464 .0023788749568312
75 .00591879496453476 -.000983801894589571 .002097709916509505 .0059619472003543
 -.00067467442532496 .00193297966397057 .00599321603968263 -.000285239376122598
 .001906970111111895 .00599855176727426 .0001318206938641436 .002016883567635355
 .00597674266212749 .00052777566323696 .002250314511803275 .0059369128322447 .00
0867793767163727 .002588617934560875 .00589513781207842 .001116848323006886 .002
992648031528525 .00587045651052641 .001240056594683544 .003407549974208735 .0058
7399625376242 .001223179467937994 .00378940453753835 .0059030787020524 .00107408
6512984574 .00410555999124901 .00594563662671003 .000805856750994982 .0043192616
1706048 .00598370058819214 .000441958449256381 .00439966457295555 .0059999301283
3484 2895608916657285e-20 .004340899499563785 .00598796640087946 -.0003798136147
358635 .004153536880685725 .00595353561095392 -.00074526084635084 .0038524827586
7728 .00591024382121743 -.001033933254016502 .003467627906445815 .00587693691364
414 -.00120897167586625 .00315 .00586834729715275 -.00125 41 255 1 36 H.00315 .0
0586834729715275 -.00125 14 255 45 255 48 ?49 50 51 5 34 -0 0 49 50 22 51 18 322
 0 49 19 34 52 +.00315 0 0 0 0 -1 .00125 -1 0 0 50 46 121 0 50 34 53 0 +.0175 .0
11 0 1 0 0 0 0 -1 141 255 47 31 54 54 34 141 54 55 47 47 34 38 55 4207 0 56 57 5
8 0 +34 19 59 60 60 16 56 4166 0 ?61 39 16 55 0 0 1 31 57 4208 0 62 63 55 0 +.01
75 0 0 1 0 0 0 0 -1 .003048 31 58 132 0 38 55 64 0 +.0175 0 0 1 0 0 0 0 -1 .011
 51 19 4202 0 65 0 18 66 +0 0 0 1 0 0 .003048 0 0 -1 40 21 59 0 1 21 79835322831
7256e-19 .367783827441382 ??.00315 .00277989280368866 -.00125 .00354354511751822
 .00280761139752681 -.001186432568870884 .003892160877929105 .00287725681313443
 -.001005831611787728 .00417852291007209 .0029640619724532 -.000710380618722691
 .00435905618422613 .003031438743668665 -.000317306072088996 .00439629537484129
 .003046482588387925 961656833241689e-19 .0043062128445622 .003010752753370925 .
000475049321722902 .004103101582688005 .00293874235463444 .000808762865788001 .0
03785362953181895 .002851576771240085 .001076482195730138 .00338013255988769 .00
278940226484465 .00122863298217146 .00297086471232572 .002785658530992295 .00123
7097631033964 .00260585281241243 .002832648965501985 .00112534609709215 .0022833
6530842921 .002911848156864295 .000900802037834062 .002032164454555875 .00299622
4341843975 .000559413704999821 .00190876808807026 .003044414666104595 .000147794
928218934 .001926227593618845 .00303733812780532 -.000254717681718542 .002062360
1464142 .002985090358951995 -.000616067811926456 .00231193013213278 .00290347466
0372805 -.00092743673453935 .002672049369860225 .00282068091156214 -.00115501653
457818 .00308982379095933 .00278054404319272 -.001248550689345646 .00315 .002779
892803688665 -.00125 41 1 60 H.00315 .002779892803688665 -.00125 14 65 4177 67 ?
0 49 68 5 19 -0 0 0 49 22 141 66 7 69 69 19 141 69 55 66 66 19 81 1 67 4506 70 6
5 71 0 48 72 73 14 49 313 72 ?65 45 74 5 18 -0 0 65 45 22 15 255 68 4180 0 75 65
 76 13 22 68 0 0 0 0 0 0 8 13 14 13 116 77 ?42 0 78 5 6 +0 0 42 0 22 81 1 77 450
8 70 13 79 0 72 80 81 14 42 111 80 ?82 13 83 5 15 +0 0 82 13 22 15 78 4155 0 84
 13 85 17 84 0 78 84 84 0 86 87 0 0 +15 85 115 0 27 13 0 17 27 0 85 27 27 0 23 9
 0 0 -17 86 0 76 86 86 0 84 87 0 0 -16 87 4163 0 ?84 16 62 63 0 0 1 16 16 4162 0
 ?88 56 87 7 0 0 1 16 62 4168 0 ?89 87 0 57 0 0 1 31 63 4209 0 87 0 57 0 +0 0 0
 1 0 0 0 0 -1 .003048 17 89 0 90 89 89 0 91 62 0 0 +15 90 4182 0 89 65 92 17 91
 0 93 91 91 0 89 62 0 0 -15 93 4148 0 91 50 94 14 50 76 95 ?45 96 93 5 46 +0 0 4
5 96 22 15 94 189 0 97 50 0 17 97 0 94 97 97 0 98 38 0 0 +17 98 0 99 98 98 0 97
 38 0 0 -16 38 73 0 ?97 100 33 58 0 0 1 16 100 78 0 ?101 102 38 64 0 0 1 17 101
 0 103 101 101 0 104 100 0 0 +16 102 83 0 ?105 106 100 107 0 0 1 31 64 133 0 100
 58 107 0 +.0159 0 0 1 0 0 0 0 -1 .011 31 107 134 0 102 64 108 0 +.0159 0 0 1 0
 0 0 0 -1 .009325 31 108 135 0 106 107 109 0 +.0079 0 0 1 0 0 0 0 -1 .009325 16
 106 88 0 ?110 111 102 108 0 0 1 31 109 136 0 111 108 32 0 +.0079 0 0 1 0 0 0 0
 -1 .011 16 111 93 0 ?112 29 106 109 0 0 1 31 32 137 0 29 109 30 0 +.0063 0 0 1
 0 0 0 0 -1 .011 16 29 98 0 ?113 24 111 32 0 0 1 17 113 0 114 113 113 0 115 29 0
 0 +15 114 184 0 113 116 117 17 115 0 118 115 115 0 113 29 0 0 -15 118 105 0 115
 82 0 14 82 106 119 ?116 42 120 5 43 +0 0 116 42 22 81 1 119 4511 70 82 121 0 95
 122 123 14 116 101 122 ?124 82 114 5 125 +0 0 124 82 22 15 120 183 0 28 82 118
 50 43 127 0 82 125 15 0 +.0063 .011 0 -1 0 0 0 0 1 51 125 126 0 116 126 43 0 +0
 0 0 1 0 0 .011 0 0 -1 50 126 125 0 124 127 125 0 +.0079 .011 0 1 0 0 0 0 -1 14
 124 96 128 ?129 116 130 5 126 +0 0 129 116 22 51 127 124 0 129 131 126 0 +0 0 0
 1 0 0 .009325 0 0 -1 14 129 91 132 ?133 124 134 5 127 +0 0 133 124 22 50 131 12
3 0 133 53 127 0 +.0159 .009325 0 -1 0 0 0 0 1 14 133 86 135 ?96 129 136 5 131 +
0 0 96 129 22 51 53 122 0 96 46 131 0 +0 0 0 1 0 0 .011 0 0 -1 14 96 81 137 ?50
 133 103 5 53 +0 0 50 133 22 81 1 137 4516 70 96 138 0 135 0 139 15 103 188 0 10
1 96 99 15 99 80 0 98 96 0 80 255 1 70 140 141 9000 1 1 1 1 1 1 1 1 0 FFFFTFTFFF
FFFF1 81 1 138 4474 142 96 0 137 143 144 145 81 1 135 4515 70 133 143 0 132 137
 146 82 255 1 139 -846987135 81 1 143 4473 142 133 0 135 147 138 148 81 1 132 45
14 70 129 147 0 128 135 149 82 1 146 -846397311 81 1 147 4472 142 129 0 132 150
 143 151 81 1 128 4513 70 124 150 0 122 132 152 82 1 149 -845807487 81 1 150 447
1 142 124 0 128 153 147 154 81 1 122 4512 70 116 153 0 119 128 155 82 1 152 -845
217663 81 1 153 4470 142 116 0 122 121 150 156 82 1 155 -844627839 80 1 142 0 15
7 8001 0 0 0 0 3 5 0 0 0 FFFFTFTFFFFFFF2 81 1 121 4469 142 82 0 119 158 153 159
 83 255 3 156 .898039215686275 .917647058823529 .929411764705882 81 1 158 4468 1
42 42 0 80 79 121 160 83 3 159 .898039215686275 .917647058823529 .92941176470588
2 81 1 80 4509 70 42 158 0 77 95 161 81 1 79 4467 142 13 0 77 0 158 162 83 3 160
 .898039215686275 .917647058823529 .929411764705882 83 3 162 .898039215686275 .9
17647058823529 .929411764705882 81 1 95 4510 70 50 144 0 80 119 163 82 1 161 -84
3448189 81 1 144 4475 142 50 0 95 138 164 165 82 1 163 -2122841968 81 1 164 4476
 142 45 0 48 144 166 167 83 3 165 .898039215686275 .917647058823529 .92941176470
5882 81 1 48 4505 70 45 164 0 0 67 168 81 1 166 4477 142 49 0 72 164 71 169 83 3
 167 .898039215686275 .917647058823529 .929411764705882 81 1 72 4507 70 49 166 0
 67 77 170 81 1 71 4478 142 65 0 67 166 0 171 83 3 169 .898039215686275 .9176470
58823529 .929411764705882 83 3 171 .898039215686275 .917647058823529 .9294117647
05882 82 1 170 -2124087152 82 1 168 -2124742512 79 255 15 157 SDL/TYSA_COLOUR83
 3 154 .898039215686275 .917647058823529 .929411764705882 83 3 151 .898039215686
275 .917647058823529 .929411764705882 83 3 148 .898039215686275 .917647058823529
 .929411764705882 83 3 145 .898039215686275 .917647058823529 .929411764705882 79
 14 141 SWEntUnchanged15 136 187 0 105 133 172 17 105 0 136 105 105 0 173 102 0
 0 +15 172 85 0 104 133 0 17 104 0 172 104 104 0 101 100 0 0 -17 173 0 174 173 1
73 0 105 102 0 0 -15 174 90 0 173 129 0 15 134 186 0 110 129 174 17 110 0 134 11
0 110 0 175 106 0 0 +17 175 0 176 175 175 0 110 106 0 0 -15 176 95 0 175 124 0 1
5 130 185 0 112 124 176 17 112 0 130 112 112 0 177 111 0 0 +17 177 0 117 177 177
 0 112 111 0 0 -15 117 100 0 177 116 0 17 28 0 120 28 28 0 178 24 0 0 +17 178 0
 179 178 178 0 28 24 0 0 -15 179 110 0 178 42 0 82 1 123 -844038015 15 92 4183 0
 180 65 0 17 180 0 92 180 180 0 61 56 0 0 -17 61 0 51 61 61 0 180 56 0 0 +15 51
 4141 0 61 45 181 15 181 259 0 37 45 0 17 37 0 181 37 37 0 182 33 0 0 +17 182 0
 183 182 182 0 37 33 0 0 -15 183 221 0 182 42 26 15 26 182 0 23 42 179 17 88 0 7
4 88 88 0 75 16 0 0 +15 74 4134 0 88 49 184 17 75 0 68 75 75 0 88 16 0 0 -15 184
 317 0 185 49 0 17 185 0 184 185 185 0 186 39 0 0 +17 186 0 83 186 186 0 185 39
 0 0 -16 39 293 0 ?185 33 56 17 0 0 1 15 83 279 0 186 42 183 15 76 4181 0 86 65
 90 82 1 81 -2123890544 82 1 73 -1905393520 141 52 17 187 187 18 141 187 7 52 52
 18 141 44 31 188 188 15 141 188 17 44 44 15 40 20 40 0 1 20 72580873418592e-18
 .3442760537810335 ??.0019 0 .006 .001968720759033505 -.000408753415718567 .0059
8606052802161 .002166371034310745 -.000771345615050134 .00595021226025954 .00247
5434277374205 -.001052359770163378 .00590699068173818 .002864896947666335 -.0012
17052278889452 .00587526882367522 .003282033372520585 -.00124300731636657 .00586
983243470026 .003677642964928405 -.00113317823027163 .00589202062949872 .0040175
83921693065 -.000899887847911984 .00593213299422563 .00426679780609611 -.0005614
82555649684 .00597367034072865 .004390028580399755 -.0001575725857874925 .005997
93054979868 .004373212364066595 .00025739369144288 .00599447649821112 .004223971
70981109 .00063959734718448 .00596581220233042 .003955694619720985 .000955696698
619723 .00592339799610387 .0035918771394457 .001169292347377364 .005884960102359
64 .0031787215439135 .00124966998560228 .00586841758288253 .00277017058092413 .0
01190894458969588 .0058806267002417 .002404981721506265 .00100371697440574 .0059
1545029860701 .002116162100551795 .000702623083640515 .00595871805024667 .001941
06664434479 .0003177737270200425 .00599157907887527 .0019 673681953912416e-34 .0
06 41 1 41 H.0019 673681953912416e-34 .006 19 14 64 0 1 0 8 5 S0 40 21 20 0 1 21
 802010485902114e-19 .365785155085921 ??.0019 0 .003048 .00196412277337576 .0003
952153885844715 .0030222688160761 .002146597750227035 .000745442100468261 .00295
543906634014 .002441278544530195 .00102966688718087 .0028688133612076 .002834270
978581605 .001209468968198094 .00279776496778515 .003249400211149375 .0012460415
7154705 .00278166935525712 .00362350709900031 .001156845290951342 .0028199313773
21745 .003955280749117285 .00095604545660815 .002894180554992885 .00422555379534
4 .000636933303667742 .00298070796400434 .00437814224953957 .0002327372228412735
 .00303910141079631 .004387531063720255 -.0001761160592546895 .00304290767748096
5 .004274293159938245 -.000546319403386027 .00299863954310683 .00404810801999407
 -.000869426238632302 .00292136988681298 .00370848226930046 -.001118301191485098
 .00283543761086768 .003294951170770835 -.001241567218515432 .002783669312599445
 .00289351165849126 -.001223402521932204 .002791700247041205 .00253712180241657
 -.001089440367770014 .00284665131076378 .002225066039193685 -.00084083123642448
1 .00292972811568802 .001995502877083275 -.00047920391607017 .00301009428537098
 .001901632053166785 -638550649471051e-19 .00304733105039157 .0019 -194434461322
09e-33 .003048 41 1 21 H.0019 -19443446132209e-33 .003048 74 4 CI16 index_map_of
fset0 0 1 dCCZ20 12 3 0 0 137 2 71 0 0 0 0 0 0 0 0 0 0 0 0 0 0 0 0 0 80 2 10 189
 190 8004 0 0 0 0 3 5 0 0 0 FFTFFFFFFFFFFF2 3 83 1 11 27e2 79 16 190 SDL/TYSA_DE
NSITY1 0 
