**ABCDEFGHIJKLMNOPQRSTUVWXYZabcdefghijklmnopqrstuvwxyz**************************
**PARASOLID !"#$%&'()*+,-./:;<=>?@[\]^_`{|}~0123456789**************************
**PART1;
MC=AMD64;
MC_MODEL=Intel64 Family 6 Model 60 Stepping 3, GenuineIntel;
MC_ID=unknown;
OS=Windows_NT;
OS_RELEASE=unknown;
FRU=Parasolid Version 27.0, build 207,  1-23-2015;
APPL=SOLIDWORKS 2015-2015313;
SITE=;
USER=unknown;
FORMAT=text;
GUISE=transmit;
KEY=SHAFT_5mm;
FILE=SHAFT_5mm.x_t;
DATE=Tue Apr 26 21:54:33 2016;
**PART2;
SCH=SCH_2700207_26105;
USFLD_SIZE=0;
**PART3;
**END_OF_HEADER*****************************************************************
T51 : TRANSMIT FILE created by modeller version 270020723 SCH_2700207_26105_1300
6196 0 12 30 CCCCCCCCCCCCCDI5 owner1040 0 CCCCCCCCCA13 boundary_mesh1006 0 A16 i
ndex_map_offset0 0 1 dA9 index_map82 0 A17 node_id_index_map82 0 A20 schema_embe
dding_map82 0 A5 child12 0 A14 lowest_node_id0 0 1 dZ1 88 0 2 0 0 0 0 1e3 1e-8 0
 3 0 1 0 1 1 4 5 6 0 7 8 0 0 0 0 0 0 0 0 70 11 CI9 list_type0 0 1 uI10 notransmi
t0 0 1 lCCCDCCDI12 finger_index0 0 1 dI12 finger_block1012 0 CZ2 0 4 T1 0 0 2 20
 1 9 9 13 255 4 29 0 1 0 10 0 0 11 0 51 255 5 28 0 10 12 0 0 +0 0 -.635 0 0 1 .0
025 1 0 0 31 255 6 23 0 13 14 0 0 +0 0 0 0 0 1 1 0 0 .0025 19 8 CCCCCCCA5 owner1
2 0 Z7 7 0 1 11 0 15 V0 16 255 8 4 0 ?16 0 13 14 0 0 1 17 255 16 0 17 16 16 0 18
 8 0 0 +16 13 18 0 ?19 8 0 6 0 0 1 31 14 5 0 8 0 6 0 +0 0 -.635 0 0 1 1 0 0 .002
5 17 19 0 20 19 19 0 21 13 0 0 +15 255 20 17 0 19 22 0 17 21 0 23 21 21 0 19 13
 0 0 -15 23 26 0 21 10 0 14 255 10 25 24 ?25 0 17 4 5 +0 0 25 0 15 81 255 1 24 8
6 26 10 27 0 0 28 29 14 25 1 28 ?22 10 30 4 31 -0 0 22 10 15 15 17 24 0 16 10 23
 13 15 8 0 0 0 0 0 0 7 10 81 1 28 87 26 25 32 0 24 33 34 14 22 16 33 ?0 25 20 4
 12 +0 0 0 25 15 15 30 3 0 18 25 0 50 255 31 2 0 25 0 12 0 +0 0 -.635 0 0 1 1 0
 0 50 12 22 0 22 31 5 0 +0 0 0 0 0 1 1 0 0 17 18 0 30 18 18 0 16 8 0 0 -81 1 33
 88 26 22 35 0 28 0 36 80 255 1 26 37 38 9000 1 1 1 1 1 1 1 1 0 FFFFTFTFFFFFFF1
 81 1 35 77 39 22 0 33 32 0 40 82 255 1 36 -974782318 80 1 39 0 41 8001 0 0 0 0
 3 5 0 0 0 FFFFTFTFFFFFFF2 81 1 32 76 39 25 0 28 27 35 42 83 255 3 40 .776470588
235294 .756862745098039 .737254901960784 81 1 27 75 39 10 0 24 0 32 43 83 3 42 .
776470588235294 .756862745098039 .737254901960784 83 3 43 .776470588235294 .7568
62745098039 .737254901960784 79 255 15 41 SDL/TYSA_COLOUR79 14 38 SWEntUnchanged
82 1 34 -976486254 82 1 29 -974520174 19 11 30 0 1 0 7 4 S0 74 4 CI16 index_map_
offset0 0 1 dCCZ20 9 2 0 0 33 35 0 0 0 0 0 0 0 0 0 0 0 0 0 0 0 0 0 0 1 0 
