**ABCDEFGHIJKLMNOPQRSTUVWXYZabcdefghijklmnopqrstuvwxyz**************************
**PARASOLID !"#$%&'()*+,-./:;<=>?@[\]^_`{|}~0123456789**************************
**PART1;
MC=AMD64;
MC_MODEL=Intel64 Family 6 Model 37 Stepping 5, GenuineIntel;
MC_ID=unknown;
OS=Windows_NT;
OS_RELEASE=unknown;
FRU=Parasolid Version 24.0, build 243,  7-11-2012;
APPL=SolidWorks 2012-2012278;
SITE=;
USER=unknown;
FORMAT=text;
GUISE=transmit;
KEY=Open Rail 500mm;
FILE=Open Rail 500mm.x_t;
DATE=Tue Feb 04 08:55:01 2014;
**PART2;
SCH=SCH_2400243_20000;
USFLD_SIZE=0;
**PART3;
**END_OF_HEADER*****************************************************************
T51 : TRANSMIT FILE created by modeller version 240024323 SCH_2400243_20000_1300
6186 0 12 27 CCCCCCCCCCCCCCCCCCCCCCCA16 index_map_offset0 0 1 dA9 index_map82 0
 A17 node_id_index_map82 0 A20 schema_embedding_map82 0 Z1 2152 0 2 0 0 0 0 1e3
 1e-8 0 3 0 1 0 1 1 4 5 6 7 8 9 10 0 0 0 0 70 11 CI9 list_type0 0 1 uI10 notrans
mit0 0 1 lCCCDCCDI12 finger_index0 0 1 dI12 finger_block1012 0 CZ2 0 4 T1 0 0 2
 20 1 11 11 13 255 4 174 0 1 0 12 0 0 13 0 50 255 5 1387 0 14 15 0 0 +.004751 .0
131043 .47235 0 -517827903276659e-30 -1 0 1 -517827903276659e-30 30 255 6 1421 0
 9 16 0 0 +.004751 .0064043 .47235 -1 0 0 29 255 7 1445 0 10 17 0 0 .0131043 .47
235 19 255 8 52 0 1 13 0 18 V16 255 9 1420 0 ?19 0 20 6 0 0 1 18 255 10 1443 0 2
1 0 22 7 ?1 17 255 21 0 23 24 25 10 26 27 0 28 +18 22 1440 0 29 10 30 17 ?1 17 2
9 0 31 28 32 22 33 34 0 35 -18 30 1437 0 32 22 36 37 ?1 29 17 1442 0 22 37 7 0 .
0064043 .47235 29 37 1439 0 30 38 17 0 .0064043 .47765 29 38 1436 0 36 39 37 0 .
0131043 .47765 18 36 1434 0 26 30 40 38 ?1 29 39 1433 0 40 41 38 .002375 .013104
3 .47765 18 40 1431 0 42 36 43 39 ?1 29 41 1430 0 43 44 39 .002375 .0064043 .477
65 18 43 1428 0 45 40 46 41 ?1 29 44 1427 0 46 47 41 .002375 .0064043 .47235 18
 46 1425 0 48 43 49 44 ?1 29 47 1424 0 49 50 44 .002375 .0131043 .47235 18 49 14
22 0 51 46 52 47 ?1 29 50 1366 0 52 53 47 0 .0131043 .42235 18 52 1364 0 54 49 5
5 50 ?1 29 53 1363 0 55 56 50 0 .0064043 .42235 18 55 1361 0 57 52 58 53 ?1 29 5
6 1360 0 58 59 53 0 .0064043 .42765 18 58 1358 0 60 55 61 56 ?1 29 59 1357 0 61
 62 56 0 .0131043 .42765 18 61 1355 0 63 58 64 59 ?1 29 62 1354 0 64 65 59 .0023
75 .0131043 .42765 18 64 1352 0 66 61 67 62 ?1 29 65 1351 0 67 68 62 .002375 .00
64043 .42765 18 67 1349 0 69 64 70 65 ?1 29 68 1348 0 70 71 65 .002375 .0064043
 .42235 18 70 1346 0 72 67 73 68 ?1 29 71 1345 0 73 74 68 .002375 .0131043 .4223
5 18 73 1343 0 75 70 76 71 ?1 29 74 1287 0 76 77 71 0 .0131043 .37235 18 76 1285
 0 78 73 79 74 ?1 29 77 1284 0 79 80 74 0 .0064043 .37235 18 79 1282 0 81 76 82
 77 ?1 29 80 1281 0 82 83 77 0 .0064043 .37765 18 82 1279 0 84 79 85 80 ?1 29 83
 1278 0 85 86 80 0 .0131043 .37765 18 85 1276 0 87 82 88 83 ?1 29 86 1275 0 88 8
9 83 .002375 .0131043 .37765 18 88 1273 0 90 85 91 86 ?1 29 89 1272 0 91 92 86 .
002375 .0064043 .37765 18 91 1270 0 93 88 94 89 ?1 29 92 1269 0 94 95 89 .002375
 .0064043 .37235 18 94 1267 0 96 91 97 92 ?1 29 95 1266 0 97 98 92 .002375 .0131
043 .37235 18 97 1264 0 99 94 100 95 ?1 29 98 1208 0 100 101 95 0 .0131043 .3223
5 18 100 1206 0 102 97 103 98 ?1 29 101 1205 0 103 104 98 0 .0064043 .32235 18 1
03 1203 0 105 100 106 101 ?1 29 104 1202 0 106 107 101 0 .0064043 .32765 18 106
 1200 0 108 103 109 104 ?1 29 107 1199 0 109 110 104 0 .0131043 .32765 18 109 11
97 0 111 106 112 107 ?1 29 110 1196 0 112 113 107 .002375 .0131043 .32765 18 112
 1194 0 114 109 115 110 ?1 29 113 1193 0 115 116 110 .002375 .0064043 .32765 18
 115 1191 0 117 112 118 113 ?1 29 116 1190 0 118 119 113 .002375 .0064043 .32235
 18 118 1188 0 120 115 121 116 ?1 29 119 1187 0 121 122 116 .002375 .0131043 .32
235 18 121 1185 0 123 118 124 119 ?1 29 122 1129 0 124 125 119 0 .0131043 .27235
 18 124 1127 0 126 121 127 122 ?1 29 125 1126 0 127 128 122 0 .0064043 .27235 18
 127 1124 0 129 124 130 125 ?1 29 128 1123 0 130 131 125 0 .0064043 .27765 18 13
0 1121 0 132 127 133 128 ?1 29 131 1120 0 133 134 128 0 .0131043 .27765 18 133 1
118 0 135 130 136 131 ?1 29 134 1117 0 136 137 131 .002375 .0131043 .27765 18 13
6 1115 0 138 133 139 134 ?1 29 137 1114 0 139 140 134 .002375 .0064043 .27765 18
 139 1112 0 141 136 142 137 ?1 29 140 1111 0 142 143 137 .002375 .0064043 .27235
 18 142 1109 0 144 139 145 140 ?1 29 143 1108 0 145 146 140 .002375 .0131043 .27
235 18 145 1106 0 147 142 148 143 ?1 29 146 1050 0 148 149 143 0 .0131043 .22235
 18 148 1048 0 150 145 151 146 ?1 29 149 1047 0 151 152 146 0 .0064043 .22235 18
 151 1045 0 153 148 154 149 ?1 29 152 1044 0 154 155 149 0 .0064043 .22765 18 15
4 1042 0 156 151 157 152 ?1 29 155 1041 0 157 158 152 0 .0131043 .22765 18 157 1
039 0 159 154 160 155 ?1 29 158 1038 0 160 161 155 .002375 .0131043 .22765 18 16
0 1036 0 162 157 163 158 ?1 29 161 1035 0 163 164 158 .002375 .0064043 .22765 18
 163 1033 0 165 160 166 161 ?1 29 164 1032 0 166 167 161 .002375 .0064043 .22235
 18 166 1030 0 168 163 169 164 ?1 29 167 1029 0 169 170 164 .002375 .0131043 .22
235 18 169 1027 0 171 166 172 167 ?1 29 170 971 0 172 173 167 0 .0131043 .17235
 18 172 969 0 174 169 175 170 ?1 29 173 968 0 175 176 170 0 .0064043 .17235 18 1
75 966 0 177 172 178 173 ?1 29 176 965 0 178 179 173 0 .0064043 .17765 18 178 96
3 0 180 175 181 176 ?1 29 179 962 0 181 182 176 0 .0131043 .17765 18 181 960 0 1
83 178 184 179 ?1 29 182 959 0 184 185 179 .002375 .0131043 .17765 18 184 957 0
 186 181 187 182 ?1 29 185 956 0 187 188 182 .002375 .0064043 .17765 18 187 954
 0 189 184 190 185 ?1 29 188 953 0 190 191 185 .002375 .0064043 .17235 18 190 95
1 0 192 187 193 188 ?1 29 191 950 0 193 194 188 .002375 .0131043 .17235 18 193 9
48 0 195 190 196 191 ?1 29 194 892 0 196 197 191 0 .0131043 .12235 18 196 890 0
 198 193 199 194 ?1 29 197 889 0 199 200 194 0 .0064043 .12235 18 199 887 0 201
 196 202 197 ?1 29 200 886 0 202 203 197 0 .0064043 .12765 18 202 884 0 204 199
 205 200 ?1 29 203 883 0 205 206 200 0 .0131043 .12765 18 205 881 0 207 202 208
 203 ?1 29 206 880 0 208 209 203 .002375 .0131043 .12765 18 208 878 0 210 205 21
1 206 ?1 29 209 877 0 211 212 206 .002375 .0064043 .12765 18 211 875 0 213 208 2
14 209 ?1 29 212 874 0 214 215 209 .002375 .0064043 .12235 18 214 872 0 216 211
 217 212 ?1 29 215 871 0 217 218 212 .002375 .0131043 .12235 18 217 869 0 219 21
4 220 215 ?1 29 218 729 0 220 221 215 0 .0131043 .07235 18 220 727 0 222 217 223
 218 ?1 29 221 709 0 223 224 218 .002375 .0064043 .07235 18 223 707 0 225 220 22
6 221 ?1 29 224 581 0 226 227 221 0 .0131043 .02235 18 226 579 0 228 223 229 224
 ?1 29 227 561 0 229 230 224 .002375 .0064043 .02235 18 229 559 0 231 226 232 22
7 ?1 29 230 476 0 232 233 227 0 .000301575509999999 .5 18 232 474 0 234 229 235
 230 ?1 29 233 463 0 235 236 230 .00207342449 0 .5 18 235 461 0 237 232 238 233
 ?1 29 236 460 0 238 239 233 .00030157551 0 .5 18 238 458 0 240 235 241 236 ?1 2
9 239 447 0 241 242 236 0 .000301575509999999 0 18 241 445 0 243 238 244 239 ?1
 29 242 444 0 244 245 239 .00207342449 0 0 18 244 442 0 246 241 247 242 ?1 29 24
5 441 0 247 248 242 .00030157551 0 0 18 247 439 0 249 244 250 245 ?1 29 248 433
 0 250 251 245 .002375 .00030157551 .5 18 250 431 0 252 247 253 248 ?1 29 251 43
0 0 253 254 248 .002375 .00030157551 0 18 253 428 0 255 250 256 251 ?1 29 254 38
3 0 256 257 251 .00444842381 .0195291 .5 18 256 381 0 258 253 259 254 ?1 29 257
 375 0 259 260 254 .00444842381 .0195291 0 18 259 373 0 261 256 262 257 ?1 29 26
0 367 0 262 263 257 .00475 .01983067619 .5 18 262 365 0 264 259 265 260 ?1 29 26
3 364 0 265 266 260 .00475 .01983067619 0 18 265 362 0 267 262 268 263 ?1 29 266
 318 0 268 269 263 .00475 .0201214383098409 .5 18 268 316 0 270 265 271 266 ?1 2
9 269 310 0 271 272 266 .00475 .0201214383098409 0 18 271 308 0 273 268 274 269
 ?1 29 272 302 0 274 275 269 .00460238679104488 .02047780812088575 .5 18 274 300
 0 276 271 277 272 ?1 29 275 299 0 277 278 272 .00460238679104488 .0204778081208
8575 0 18 277 297 0 279 274 280 275 ?1 29 278 253 0 280 281 275 .000147412178765
4602 .0204776070906961 .5 18 280 251 0 282 277 283 278 ?1 29 281 245 0 283 284 2
78 .0001474121787654602 .0204776070906961 0 18 283 243 0 285 280 286 281 ?1 29 2
84 237 0 286 287 281 0 .02012172260946155 .5 18 286 235 0 288 283 289 284 ?1 29
 287 234 0 289 290 284 0 .02012172260946155 0 18 289 232 0 291 286 292 287 ?1 29
 290 127 0 293 294 287 .002019589054034685 .0223497839659653 0 18 293 110 0 295
 296 297 290 ?1 29 294 128 0 297 298 290 .00273041094596531 .0223497839659653 0
 18 297 111 0 299 293 300 294 ?1 29 298 131 0 300 301 294 .002375 .0195291 0 18
 300 114 0 302 297 303 298 ?1 29 301 48 0 292 304 298 .002019589054034685 .02234
97839659653 .5 18 292 46 0 305 289 306 301 ?1 29 304 45 0 306 307 301 .002730410
94596531 .0223497839659653 .5 18 306 43 0 308 292 296 304 ?1 29 307 36 0 296 309
 304 .002375 .0195291 .5 18 296 34 0 310 306 293 307 ?1 29 309 667 0 303 311 307
 .002375 .0131043 .02765 18 303 618 0 312 300 313 309 ?1 29 311 668 0 313 314 30
9 .002375 .0064043 .02765 18 313 620 0 315 303 316 311 ?1 29 314 670 0 316 317 3
11 0 .0131043 .02765 18 316 619 0 318 313 319 314 ?1 29 317 671 0 319 320 314 0
 .0064043 .02765 18 319 621 0 321 316 322 317 ?1 29 320 672 0 322 323 317 0 .006
4043 .02235 18 322 623 0 324 319 325 320 ?1 29 323 674 0 325 326 320 .002375 .01
31043 .02235 18 325 624 0 327 322 328 323 ?1 29 326 809 0 328 329 323 .002375 .0
131043 .07765 18 328 769 0 330 325 331 326 ?1 29 329 810 0 331 332 326 0 .013104
3 .07765 18 331 768 0 333 328 334 329 ?1 29 332 811 0 334 335 329 .002375 .00640
43 .07765 18 334 770 0 336 331 337 332 ?1 29 335 812 0 337 338 332 0 .0064043 .0
7765 18 337 767 0 339 334 340 335 ?1 29 338 814 0 340 341 335 0 .0064043 .07235
 18 340 766 0 342 337 343 338 ?1 29 341 816 0 343 0 338 .002375 .0131043 .07235
 18 343 765 0 344 340 0 341 ?1 17 344 0 345 346 347 343 348 349 0 350 +15 255 34
5 788 0 344 351 0 17 346 0 345 342 344 220 350 352 0 353 +17 347 0 345 344 342 2
23 354 355 0 348 -17 348 0 356 357 358 223 344 349 0 0 -16 349 751 0 ?344 359 0
 360 0 0 1 17 350 0 361 362 222 343 346 352 0 358 -15 361 779 0 362 363 0 17 362
 0 361 364 350 328 358 365 0 366 +17 222 0 361 350 364 220 367 368 0 346 +16 352
 761 0 ?346 355 359 369 0 0 1 17 358 0 356 348 366 343 362 365 0 0 -15 356 705 0
 366 370 371 17 366 0 356 358 357 328 372 373 0 0 -16 365 745 0 ?362 368 374 375
 0 0 1 16 368 753 0 ?222 376 365 377 0 0 1 16 374 762 0 ?364 365 378 379 0 0 1 3
1 255 375 798 0 365 379 377 0 -.002375 .0131043 .075 -1 888276201144348e-31 0 -8
88276201144348e-31 -1 0 .00265 30 379 799 0 374 380 375 0 +.004751 .0131043 .077
65 -1 0 0 31 377 797 0 368 375 381 0 +0 .0131043 .075 -1 0 0 0 0 1 .00265 31 381
 666 0 376 377 382 0 -.002375 .0064043 .025 -1 888276201144348e-31 0 -8882762011
44348e-31 -1 0 .00265 16 376 616 0 ?231 383 368 381 0 0 1 30 382 665 0 383 381 3
84 0 +.002375 .0131043 .02765 -888276201144348e-31 -1 517827903276659e-30 16 383
 615 0 ?385 386 376 382 0 0 1 31 384 664 0 386 382 387 0 -.002375 .0131043 .025
 -1 888276201144348e-31 0 -888276201144348e-31 -1 0 .00265 16 386 614 0 ?388 389
 383 384 0 0 1 31 387 663 0 389 384 390 0 +0 .0131043 .025 -1 0 0 0 0 1 .00265 1
6 389 601 0 ?228 391 386 387 0 0 1 30 390 662 0 391 387 392 0 +0 .0131043 .02235
 0 -1 517827903276659e-30 16 391 604 0 ?393 394 389 390 0 0 1 31 392 661 0 394 3
90 395 0 +0 .0064043 .025 -1 0 0 0 0 1 .00265 16 394 607 0 ?396 397 391 392 0 0
 1 30 395 660 0 397 392 398 0 +0 .0131043 .02765 0 1 -517827903276659e-30 16 397
 610 0 ?399 400 394 395 0 0 1 30 398 659 0 401 395 402 0 +.004751 .0131043 .0276
5 -1 0 0 16 401 598 0 ?318 403 404 398 0 0 1 30 402 658 0 404 398 405 0 +.004751
 .0064043 .02765 -1 0 0 16 404 599 0 ?321 401 406 402 0 0 1 30 405 657 0 406 402
 407 0 +.004751 .0064043 .02235 -1 0 0 16 406 600 0 ?324 404 400 405 0 0 1 30 40
7 656 0 400 405 408 0 +.004751 .0131043 .02235 -1 0 0 16 400 597 0 ?409 406 397
 407 0 0 1 30 408 655 0 403 407 410 0 +.002375 .0131043 .02235 888276201144348e-
31 1 -517827903276659e-30 16 403 613 0 ?411 412 401 408 0 0 1 30 410 5 0 413 408
 414 0 +0 .02033019491193065 .5 0 -1 0 16 413 236 0 ?415 416 417 410 0 0 1 30 41
4 8 0 416 410 418 0 +0 0 .5 1 0 0 16 416 459 0 ?419 420 413 414 0 0 1 30 418 11
 0 420 414 421 0 +.002375 0 .5 888276201144348e-31 1 0 16 420 432 0 ?310 422 416
 418 0 0 1 30 421 14 0 422 418 423 0 +.002375 .0195291 .5 1 2921639538487255e-30
 0 16 422 13 0 ?424 425 420 421 0 0 1 30 423 17 0 425 421 426 0 +.00475 .0195291
 .5 0 1 0 16 425 366 0 ?270 427 422 423 0 0 1 30 426 20 0 427 423 428 0 +.002730
41094596531 .0223497839659653 .5 -.707106781186548 .707106781186547 0 16 427 301
 0 ?308 429 425 426 0 0 1 31 428 23 0 429 426 430 0 +.002375 .02199437302 .5 0 0
 1 1 0 0 .00050262698 16 429 22 0 ?305 431 427 428 0 0 1 30 430 26 0 431 428 432
 0 +0 .02033019491193065 .5 -.707106781186547 -.707106781186548 0 16 431 25 0 ?4
33 434 429 430 0 0 1 30 432 125 0 412 430 435 0 +0 .02033019491193065 0 0 -1 0 1
6 412 233 0 ?436 437 403 432 0 0 1 30 435 124 0 437 432 438 0 +0 0 0 1 0 0 16 43
7 440 0 ?439 440 412 435 0 0 1 30 438 123 0 440 435 441 0 +.002375 0 0 888276201
144348e-31 1 0 16 440 429 0 ?302 442 437 438 0 0 1 30 441 122 0 442 438 443 0 +.
002375 .0195291 0 1 2921639538487255e-30 0 16 442 93 0 ?444 445 440 441 0 0 1 30
 443 121 0 445 441 446 0 +.00475 .0195291 0 0 1 0 16 445 363 0 ?273 447 442 443
 0 0 1 30 446 120 0 447 443 448 0 +.00273041094596531 .0223497839659653 0 -.7071
06781186548 .707106781186547 0 16 447 298 0 ?299 449 445 446 0 0 1 31 448 119 0
 449 446 450 0 +.002375 .02199437302 0 0 0 1 1 0 0 .00050262698 16 449 81 0 ?295
 417 447 448 0 0 1 30 450 118 0 417 448 451 0 +0 .02033019491193065 0 -.70710678
1186547 -.707106781186548 0 16 417 77 0 ?452 413 449 450 0 0 1 30 451 159 0 434
 450 453 0 +.002019589054034685 .0223497839659653 .5 0 0 -1 16 434 135 0 ?454 45
5 431 451 0 0 1 30 453 160 0 455 451 456 0 +.00273041094596531 .0223497839659653
 .5 0 0 -1 16 455 136 0 ?457 458 434 453 0 0 1 30 456 163 0 458 453 459 0 +.0023
75 .0195291 .5 0 0 -1 16 458 139 0 ?460 461 455 456 0 0 1 30 459 240 0 461 456 4
62 0 +0 .02012172260946155 .5 0 0 -1 16 461 238 0 ?463 464 458 459 0 0 1 31 462
 248 0 464 459 465 0 -.00050329666 .02012172260946155 0 0 0 1 1 0 0 .00050329666
 16 464 246 0 ?285 466 461 462 0 0 1 30 465 256 0 466 462 467 0 -.00014741217876
54604 .0204776070906961 .5 0 0 -1 16 466 254 0 ?282 468 464 465 0 0 1 31 467 261
 0 468 465 469 0 +.00050329666 .02012172260946155 .5 0 0 1 1 0 0 .00050329666 16
 468 259 0 ?288 470 466 467 0 0 1 30 469 305 0 470 467 471 0 +.00460238679104488
 .02047780812088575 .5 0 0 -1 16 470 303 0 ?472 473 468 469 0 0 1 31 471 313 0 4
73 469 474 0 -.00424601698 .0201214383098409 0 0 0 1 1 0 0 .00050398302 16 473 3
11 0 ?475 476 470 471 0 0 1 30 474 321 0 476 471 477 0 -.00475 .0201214383098409
 .5 0 0 -1 16 476 319 0 ?478 479 473 474 0 0 1 31 477 326 0 479 474 480 0 +.0042
4601698 .0201214383098409 .5 0 0 1 1 0 0 .00050398302 16 479 324 0 ?276 481 476
 477 0 0 1 30 480 370 0 481 477 482 0 +.00475 .01983067619 .5 0 0 -1 16 481 368
 0 ?483 484 479 480 0 0 1 31 482 378 0 484 480 485 0 -.00444842381 .01983067619
 0 0 0 1 1 0 0 .00030157619 16 484 376 0 ?261 486 481 482 0 0 1 30 485 386 0 486
 482 487 0 -.00444842381 .0195291 .5 0 0 -1 16 486 384 0 ?258 488 484 485 0 0 1
 31 487 391 0 488 485 489 0 +.00444842381 .01983067619 .5 0 0 1 1 0 0 .000301576
19 16 488 389 0 ?264 490 486 487 0 0 1 30 489 436 0 490 487 491 0 +.002375 .0003
0157551 .5 0 0 -1 16 490 434 0 ?492 493 488 489 0 0 1 31 491 450 0 493 489 494 0
 -.00030157551 .00030157551 0 0 0 1 1 0 0 .00030157551 16 493 448 0 ?243 495 490
 491 0 0 1 31 494 455 0 495 491 496 0 -.00207342449 .00030157551 0 0 0 1 1 0 0 .
00030157551 16 495 453 0 ?246 497 493 494 0 0 1 30 496 466 0 497 494 498 0 +.000
30157551 0 .5 0 0 -1 16 497 464 0 ?499 500 495 496 0 0 1 30 498 471 0 500 496 50
1 0 -.00207342449 0 .5 0 0 -1 16 500 469 0 ?237 502 497 498 0 0 1 31 501 479 0 5
02 498 503 0 +.00030157551 .00030157551 .5 0 0 1 1 0 0 .00030157551 16 502 477 0
 ?240 504 500 501 0 0 1 31 503 484 0 504 501 505 0 +.00207342449 .00030157551 .5
 0 0 1 1 0 0 .00030157551 16 504 482 0 ?252 506 502 503 0 0 1 30 505 489 0 506 5
03 507 0 -0 .000301575509999999 .5 0 0 -1 16 506 487 0 ?234 508 504 505 0 0 1 31
 507 838 0 508 505 509 0 -.002375 .0131043 .125 -1 888276201144348e-31 0 -888276
201144348e-31 -1 0 .00265 16 508 837 0 ?210 510 506 507 0 0 1 30 509 841 0 510 5
07 511 0 +.002375 .0131043 .12235 888276201144348e-31 1 -517827903276659e-30 16
 510 840 0 ?512 513 508 509 0 0 1 31 511 844 0 513 509 514 0 -.002375 .0064043 .
125 -1 888276201144348e-31 0 -888276201144348e-31 -1 0 .00265 16 513 843 0 ?515
 516 510 511 0 0 1 30 514 847 0 516 511 517 0 +.002375 .0131043 .12765 -88827620
1144348e-31 -1 517827903276659e-30 16 516 846 0 ?518 519 513 514 0 0 1 31 517 85
0 0 519 514 520 0 +0 .0131043 .125 -1 0 0 0 0 1 .00265 16 519 849 0 ?198 521 516
 517 0 0 1 30 520 853 0 521 517 522 0 +0 .0131043 .12765 0 1 -517827903276659e-3
0 16 521 852 0 ?523 524 519 520 0 0 1 31 522 856 0 524 520 525 0 +0 .0064043 .12
5 -1 0 0 0 0 1 .00265 16 524 855 0 ?526 527 521 522 0 0 1 30 525 859 0 527 522 5
28 0 +0 .0131043 .12235 0 -1 517827903276659e-30 16 527 858 0 ?529 530 524 525 0
 0 1 30 528 862 0 530 525 531 0 +.004751 .0131043 .12765 -1 0 0 16 530 861 0 ?53
2 533 527 528 0 0 1 30 531 864 0 533 528 534 0 +.004751 .0131043 .12235 -1 0 0 1
6 533 863 0 ?535 536 530 531 0 0 1 30 534 866 0 536 531 537 0 +.004751 .0064043
 .12765 -1 0 0 16 536 865 0 ?538 539 533 534 0 0 1 30 537 868 0 539 534 540 0 +.
004751 .0064043 .12235 -1 0 0 16 539 867 0 ?541 542 536 537 0 0 1 31 540 917 0 5
42 537 543 0 -.002375 .0131043 .175 -1 888276201144348e-31 0 -888276201144348e-3
1 -1 0 .00265 16 542 916 0 ?186 544 539 540 0 0 1 30 543 920 0 544 540 545 0 +.0
02375 .0131043 .17235 888276201144348e-31 1 -517827903276659e-30 16 544 919 0 ?5
46 547 542 543 0 0 1 31 545 923 0 547 543 548 0 -.002375 .0064043 .175 -1 888276
201144348e-31 0 -888276201144348e-31 -1 0 .00265 16 547 922 0 ?549 550 544 545 0
 0 1 30 548 926 0 550 545 551 0 +.002375 .0131043 .17765 -888276201144348e-31 -1
 517827903276659e-30 16 550 925 0 ?552 553 547 548 0 0 1 31 551 929 0 553 548 55
4 0 +0 .0131043 .175 -1 0 0 0 0 1 .00265 16 553 928 0 ?174 555 550 551 0 0 1 30
 554 932 0 555 551 556 0 +0 .0131043 .17765 0 1 -517827903276659e-30 16 555 931
 0 ?557 558 553 554 0 0 1 31 556 935 0 558 554 559 0 +0 .0064043 .175 -1 0 0 0 0
 1 .00265 16 558 934 0 ?560 561 555 556 0 0 1 30 559 938 0 561 556 562 0 +0 .013
1043 .17235 0 -1 517827903276659e-30 16 561 937 0 ?563 564 558 559 0 0 1 30 562
 941 0 564 559 565 0 +.004751 .0131043 .17765 -1 0 0 16 564 940 0 ?566 567 561 5
62 0 0 1 30 565 943 0 567 562 568 0 +.004751 .0131043 .17235 -1 0 0 16 567 942 0
 ?569 570 564 565 0 0 1 30 568 945 0 570 565 571 0 +.004751 .0064043 .17765 -1 0
 0 16 570 944 0 ?572 573 567 568 0 0 1 30 571 947 0 573 568 574 0 +.004751 .0064
043 .17235 -1 0 0 16 573 946 0 ?575 576 570 571 0 0 1 31 574 996 0 576 571 577 0
 -.002375 .0131043 .225 -1 888276201144348e-31 0 -888276201144348e-31 -1 0 .0026
5 16 576 995 0 ?162 578 573 574 0 0 1 30 577 999 0 578 574 579 0 +.002375 .01310
43 .22235 888276201144348e-31 1 -517827903276659e-30 16 578 998 0 ?580 581 576 5
77 0 0 1 31 579 1002 0 581 577 582 0 -.002375 .0064043 .225 -1 888276201144348e-
31 0 -888276201144348e-31 -1 0 .00265 16 581 1001 0 ?583 584 578 579 0 0 1 30 58
2 1005 0 584 579 585 0 +.002375 .0131043 .22765 -888276201144348e-31 -1 51782790
3276659e-30 16 584 1004 0 ?586 587 581 582 0 0 1 31 585 1008 0 587 582 588 0 +0
 .0131043 .225 -1 0 0 0 0 1 .00265 16 587 1007 0 ?150 589 584 585 0 0 1 30 588 1
011 0 589 585 590 0 +0 .0131043 .22765 0 1 -517827903276659e-30 16 589 1010 0 ?5
91 592 587 588 0 0 1 31 590 1014 0 592 588 593 0 +0 .0064043 .225 -1 0 0 0 0 1 .
00265 16 592 1013 0 ?594 595 589 590 0 0 1 30 593 1017 0 595 590 596 0 +0 .01310
43 .22235 0 -1 517827903276659e-30 16 595 1016 0 ?597 598 592 593 0 0 1 30 596 1
020 0 598 593 599 0 +.004751 .0131043 .22765 -1 0 0 16 598 1019 0 ?600 601 595 5
96 0 0 1 30 599 1022 0 601 596 602 0 +.004751 .0131043 .22235 -1 0 0 16 601 1021
 0 ?603 604 598 599 0 0 1 30 602 1024 0 604 599 605 0 +.004751 .0064043 .22765 -
1 0 0 16 604 1023 0 ?606 607 601 602 0 0 1 30 605 1026 0 607 602 608 0 +.004751
 .0064043 .22235 -1 0 0 16 607 1025 0 ?609 610 604 605 0 0 1 31 608 1075 0 610 6
05 611 0 -.002375 .0131043 .275 -1 888276201144348e-31 0 -888276201144348e-31 -1
 0 .00265 16 610 1074 0 ?138 612 607 608 0 0 1 30 611 1078 0 612 608 613 0 +.002
375 .0131043 .27235 888276201144348e-31 1 -517827903276659e-30 16 612 1077 0 ?61
4 615 610 611 0 0 1 31 613 1081 0 615 611 616 0 -.002375 .0064043 .275 -1 888276
201144348e-31 0 -888276201144348e-31 -1 0 .00265 16 615 1080 0 ?617 618 612 613
 0 0 1 30 616 1084 0 618 613 619 0 +.002375 .0131043 .27765 -888276201144348e-31
 -1 517827903276659e-30 16 618 1083 0 ?620 621 615 616 0 0 1 31 619 1087 0 621 6
16 622 0 +0 .0131043 .275 -1 0 0 0 0 1 .00265 16 621 1086 0 ?126 623 618 619 0 0
 1 30 622 1090 0 623 619 624 0 +0 .0131043 .27765 0 1 -517827903276659e-30 16 62
3 1089 0 ?625 626 621 622 0 0 1 31 624 1093 0 626 622 627 0 +0 .0064043 .275 -1
 0 0 0 0 1 .00265 16 626 1092 0 ?628 629 623 624 0 0 1 30 627 1096 0 629 624 630
 0 +0 .0131043 .27235 0 -1 517827903276659e-30 16 629 1095 0 ?631 632 626 627 0
 0 1 30 630 1099 0 632 627 633 0 +.004751 .0131043 .27765 -1 0 0 16 632 1098 0 ?
634 635 629 630 0 0 1 30 633 1101 0 635 630 636 0 +.004751 .0131043 .27235 -1 0
 0 16 635 1100 0 ?637 638 632 633 0 0 1 30 636 1103 0 638 633 639 0 +.004751 .00
64043 .27765 -1 0 0 16 638 1102 0 ?640 641 635 636 0 0 1 30 639 1105 0 641 636 6
42 0 +.004751 .0064043 .27235 -1 0 0 16 641 1104 0 ?643 644 638 639 0 0 1 31 642
 1154 0 644 639 645 0 -.002375 .0131043 .325 -1 888276201144348e-31 0 -888276201
144348e-31 -1 0 .00265 16 644 1153 0 ?114 646 641 642 0 0 1 30 645 1157 0 646 64
2 647 0 +.002375 .0131043 .32235 888276201144348e-31 1 -517827903276659e-30 16 6
46 1156 0 ?648 649 644 645 0 0 1 31 647 1160 0 649 645 650 0 -.002375 .0064043 .
325 -1 888276201144348e-31 0 -888276201144348e-31 -1 0 .00265 16 649 1159 0 ?651
 652 646 647 0 0 1 30 650 1163 0 652 647 653 0 +.002375 .0131043 .32765 -8882762
01144348e-31 -1 517827903276659e-30 16 652 1162 0 ?654 655 649 650 0 0 1 31 653
 1166 0 655 650 656 0 +0 .0131043 .325 -1 0 0 0 0 1 .00265 16 655 1165 0 ?102 65
7 652 653 0 0 1 30 656 1169 0 657 653 658 0 +0 .0131043 .32765 0 1 -517827903276
659e-30 16 657 1168 0 ?659 660 655 656 0 0 1 31 658 1172 0 660 656 661 0 +0 .006
4043 .325 -1 0 0 0 0 1 .00265 16 660 1171 0 ?662 663 657 658 0 0 1 30 661 1175 0
 663 658 664 0 +0 .0131043 .32235 0 -1 517827903276659e-30 16 663 1174 0 ?665 66
6 660 661 0 0 1 30 664 1178 0 666 661 667 0 +.004751 .0131043 .32765 -1 0 0 16 6
66 1177 0 ?668 669 663 664 0 0 1 30 667 1180 0 669 664 670 0 +.004751 .0131043 .
32235 -1 0 0 16 669 1179 0 ?671 672 666 667 0 0 1 30 670 1182 0 672 667 673 0 +.
004751 .0064043 .32765 -1 0 0 16 672 1181 0 ?674 675 669 670 0 0 1 30 673 1184 0
 675 670 676 0 +.004751 .0064043 .32235 -1 0 0 16 675 1183 0 ?677 678 672 673 0
 0 1 31 676 1233 0 678 673 679 0 -.002375 .0131043 .375 -1 888276201144348e-31 0
 -888276201144348e-31 -1 0 .00265 16 678 1232 0 ?90 680 675 676 0 0 1 30 679 123
6 0 680 676 681 0 +.002375 .0131043 .37235 888276201144348e-31 1 -51782790327665
9e-30 16 680 1235 0 ?682 683 678 679 0 0 1 31 681 1239 0 683 679 684 0 -.002375
 .0064043 .375 -1 888276201144348e-31 0 -888276201144348e-31 -1 0 .00265 16 683
 1238 0 ?685 686 680 681 0 0 1 30 684 1242 0 686 681 687 0 +.002375 .0131043 .37
765 -888276201144348e-31 -1 517827903276659e-30 16 686 1241 0 ?688 689 683 684 0
 0 1 31 687 1245 0 689 684 690 0 +0 .0131043 .375 -1 0 0 0 0 1 .00265 16 689 124
4 0 ?78 691 686 687 0 0 1 30 690 1248 0 691 687 692 0 +0 .0131043 .37765 0 1 -51
7827903276659e-30 16 691 1247 0 ?693 694 689 690 0 0 1 31 692 1251 0 694 690 695
 0 +0 .0064043 .375 -1 0 0 0 0 1 .00265 16 694 1250 0 ?696 697 691 692 0 0 1 30
 695 1254 0 697 692 698 0 +0 .0131043 .37235 0 -1 517827903276659e-30 16 697 125
3 0 ?699 700 694 695 0 0 1 30 698 1257 0 700 695 701 0 +.004751 .0131043 .37765
 -1 0 0 16 700 1256 0 ?702 703 697 698 0 0 1 30 701 1259 0 703 698 704 0 +.00475
1 .0131043 .37235 -1 0 0 16 703 1258 0 ?705 706 700 701 0 0 1 30 704 1261 0 706
 701 707 0 +.004751 .0064043 .37765 -1 0 0 16 706 1260 0 ?708 709 703 704 0 0 1
 30 707 1263 0 709 704 710 0 +.004751 .0064043 .37235 -1 0 0 16 709 1262 0 ?711
 712 706 707 0 0 1 31 710 1312 0 712 707 713 0 -.002375 .0131043 .425 -1 8882762
01144348e-31 0 -888276201144348e-31 -1 0 .00265 16 712 1311 0 ?66 714 709 710 0
 0 1 30 713 1315 0 714 710 715 0 +.002375 .0131043 .42235 888276201144348e-31 1
 -517827903276659e-30 16 714 1314 0 ?716 717 712 713 0 0 1 31 715 1318 0 717 713
 718 0 -.002375 .0064043 .425 -1 888276201144348e-31 0 -888276201144348e-31 -1 0
 .00265 16 717 1317 0 ?719 720 714 715 0 0 1 30 718 1321 0 720 715 721 0 +.00237
5 .0131043 .42765 -888276201144348e-31 -1 517827903276659e-30 16 720 1320 0 ?722
 723 717 718 0 0 1 31 721 1324 0 723 718 724 0 +0 .0131043 .425 -1 0 0 0 0 1 .00
265 16 723 1323 0 ?54 725 720 721 0 0 1 30 724 1327 0 725 721 726 0 +0 .0131043
 .42765 0 1 -517827903276659e-30 16 725 1326 0 ?727 728 723 724 0 0 1 31 726 133
0 0 728 724 729 0 +0 .0064043 .425 -1 0 0 0 0 1 .00265 16 728 1329 0 ?730 731 72
5 726 0 0 1 30 729 1333 0 731 726 732 0 +0 .0131043 .42235 0 -1 517827903276659e
-30 16 731 1332 0 ?733 734 728 729 0 0 1 30 732 1336 0 734 729 735 0 +.004751 .0
131043 .42765 -1 0 0 16 734 1335 0 ?736 737 731 732 0 0 1 30 735 1338 0 737 732
 738 0 +.004751 .0131043 .42235 -1 0 0 16 737 1337 0 ?739 740 734 735 0 0 1 30 7
38 1340 0 740 735 741 0 +.004751 .0064043 .42765 -1 0 0 16 740 1339 0 ?742 743 7
37 738 0 0 1 30 741 1342 0 743 738 744 0 +.004751 .0064043 .42235 -1 0 0 16 743
 1341 0 ?745 746 740 741 0 0 1 31 744 1391 0 746 741 747 0 -.002375 .0131043 .47
5 -1 888276201144348e-31 0 -888276201144348e-31 -1 0 .00265 16 746 1390 0 ?42 74
8 743 744 0 0 1 30 747 1394 0 748 744 749 0 +.002375 .0131043 .47235 88827620114
4348e-31 1 -517827903276659e-30 16 748 1393 0 ?750 751 746 747 0 0 1 31 749 1397
 0 751 747 752 0 -.002375 .0064043 .475 -1 888276201144348e-31 0 -88827620114434
8e-31 -1 0 .00265 16 751 1396 0 ?753 754 748 749 0 0 1 30 752 1400 0 754 749 755
 0 +.002375 .0131043 .47765 -888276201144348e-31 -1 517827903276659e-30 16 754 1
399 0 ?756 27 751 752 0 0 1 31 755 1403 0 27 752 757 0 +0 .0131043 .475 -1 0 0 0
 0 1 .00265 16 27 1402 0 ?21 758 754 755 0 0 1 30 757 1406 0 758 755 759 0 +0 .0
131043 .47765 0 1 -517827903276659e-30 16 758 1405 0 ?760 34 27 757 0 0 1 31 759
 1409 0 34 757 761 0 +0 .0064043 .475 -1 0 0 0 0 1 .00265 16 34 1408 0 ?33 762 7
58 759 0 0 1 30 761 1412 0 762 759 763 0 +0 .0131043 .47235 0 -1 517827903276659
e-30 16 762 1411 0 ?35 764 34 761 0 0 1 30 763 1415 0 764 761 765 0 +.004751 .01
31043 .47765 -1 0 0 16 764 1414 0 ?25 766 762 763 0 0 1 30 765 1417 0 766 763 16
 0 +.004751 .0131043 .47235 -1 0 0 16 766 1416 0 ?767 20 764 765 0 0 1 30 16 141
9 0 20 765 6 0 +.004751 .0064043 .47765 -1 0 0 16 20 1418 0 ?768 9 766 16 0 0 1
 17 768 0 769 760 756 30 770 20 0 0 +15 769 1381 0 756 771 0 17 760 0 769 772 76
8 36 32 758 0 25 +17 756 0 769 768 772 43 773 754 0 770 +17 770 0 774 753 33 43
 768 20 0 0 -15 774 1385 0 753 775 0 17 753 0 774 19 770 46 45 751 0 776 +17 33
 0 774 770 19 30 29 34 0 768 +17 19 0 774 33 753 22 776 9 0 0 +17 776 0 777 750
 35 46 19 9 0 0 -15 777 1389 0 750 14 0 17 750 0 777 767 776 49 48 748 0 24 +17
 35 0 777 776 767 22 28 762 0 19 +17 767 0 777 35 750 10 24 766 0 0 +17 28 0 31
 26 29 10 35 762 0 767 -15 31 1373 0 26 12 0 17 26 0 31 32 28 36 21 27 0 760 -17
 32 0 31 29 26 30 760 758 0 33 -14 255 12 157 778 ?779 0 780 4 781 -0 0 779 0 18
 81 255 1 778 2098 782 12 783 0 0 784 785 14 779 155 784 ?370 12 786 4 787 -0 0
 370 12 18 15 780 725 0 353 12 788 50 781 173 0 12 787 789 0 +0 .020330194911930
65 .5 1 0 0 0 0 -1 13 18 53 0 0 0 0 0 0 8 12 50 787 172 0 779 790 781 0 +0 0 .5
 0 1 0 0 0 1 51 255 789 282 0 791 781 792 0 +.00050329666 .02012172260946155 .5
 0 0 -1 .00050329666 -1 0 0 14 791 270 793 ?794 795 796 4 789 +0 0 794 795 18 51
 792 347 0 794 789 797 0 +.00424601698 .0201214383098409 .5 0 0 -1 .00050398302
 -1 0 0 14 794 335 798 ?799 791 800 4 792 +0 0 799 791 18 51 797 412 0 799 792 8
01 0 +.00444842381 .01983067619 .5 0 0 -1 .00030157619 -1 0 0 14 799 400 802 ?80
3 794 804 4 797 +0 0 803 794 18 51 801 513 0 803 797 805 0 +.00207342449 .000301
57551 .5 0 0 -1 .00030157551 -1 0 0 14 803 501 806 ?807 799 808 4 801 +0 0 807 7
99 18 51 805 534 0 807 801 809 0 +.00030157551 .00030157551 .5 0 0 -1 .000301575
51 -1 0 0 14 807 522 810 ?811 803 812 4 805 +0 0 811 803 18 51 809 822 0 813 805
 814 0 +.004751 .0131043 .125 -1 0 0 .00265 0 0 1 14 813 821 815 ?816 817 818 4
 809 -0 0 816 817 18 50 814 826 0 817 809 819 0 +.004751 .0131043 .12765 0 51782
7903276659e-30 1 0 -1 517827903276659e-30 14 817 825 820 ?813 821 822 4 814 -0 0
 813 821 18 51 819 830 0 821 814 823 0 +.004751 .0064043 .125 -1 0 0 .00265 0 0
 1 14 821 829 824 ?817 825 826 4 819 -0 0 817 825 18 50 823 834 0 825 819 827 0
 +.004751 .0131043 .12235 0 -517827903276659e-30 -1 0 1 -517827903276659e-30 14
 825 833 828 ?821 351 829 4 823 -0 0 821 351 18 51 827 901 0 830 823 831 0 +.004
751 .0131043 .175 -1 0 0 .00265 0 0 1 14 830 900 832 ?833 834 835 4 827 -0 0 833
 834 18 50 831 905 0 834 827 836 0 +.004751 .0131043 .17765 0 517827903276659e-3
0 1 0 -1 517827903276659e-30 14 834 904 837 ?830 838 839 4 831 -0 0 830 838 18 5
1 836 909 0 838 831 840 0 +.004751 .0064043 .175 -1 0 0 .00265 0 0 1 14 838 908
 841 ?834 816 842 4 836 -0 0 834 816 18 50 840 913 0 816 836 843 0 +.004751 .013
1043 .17235 0 -517827903276659e-30 -1 0 1 -517827903276659e-30 14 816 912 844 ?8
38 813 845 4 840 -0 0 838 813 18 51 843 980 0 846 840 847 0 +.004751 .0131043 .2
25 -1 0 0 .00265 0 0 1 14 846 979 848 ?849 850 851 4 843 -0 0 849 850 18 50 847
 984 0 850 843 852 0 +.004751 .0131043 .22765 0 517827903276659e-30 1 0 -1 51782
7903276659e-30 14 850 983 853 ?846 854 855 4 847 -0 0 846 854 18 51 852 988 0 85
4 847 856 0 +.004751 .0064043 .225 -1 0 0 .00265 0 0 1 14 854 987 857 ?850 833 8
58 4 852 -0 0 850 833 18 50 856 992 0 833 852 859 0 +.004751 .0131043 .22235 0 -
517827903276659e-30 -1 0 1 -517827903276659e-30 14 833 991 860 ?854 830 861 4 85
6 -0 0 854 830 18 51 859 1059 0 862 856 863 0 +.004751 .0131043 .275 -1 0 0 .002
65 0 0 1 14 862 1058 864 ?865 866 867 4 859 -0 0 865 866 18 50 863 1063 0 866 85
9 868 0 +.004751 .0131043 .27765 0 517827903276659e-30 1 0 -1 517827903276659e-3
0 14 866 1062 869 ?862 870 871 4 863 -0 0 862 870 18 51 868 1067 0 870 863 872 0
 +.004751 .0064043 .275 -1 0 0 .00265 0 0 1 14 870 1066 873 ?866 849 874 4 868 -
0 0 866 849 18 50 872 1071 0 849 868 875 0 +.004751 .0131043 .27235 0 -517827903
276659e-30 -1 0 1 -517827903276659e-30 14 849 1070 876 ?870 846 877 4 872 -0 0 8
70 846 18 51 875 1138 0 878 872 879 0 +.004751 .0131043 .325 -1 0 0 .00265 0 0 1
 14 878 1137 880 ?881 882 883 4 875 -0 0 881 882 18 50 879 1142 0 882 875 884 0
 +.004751 .0131043 .32765 0 517827903276659e-30 1 0 -1 517827903276659e-30 14 88
2 1141 885 ?878 886 887 4 879 -0 0 878 886 18 51 884 1146 0 886 879 888 0 +.0047
51 .0064043 .325 -1 0 0 .00265 0 0 1 14 886 1145 889 ?882 865 890 4 884 -0 0 882
 865 18 50 888 1150 0 865 884 891 0 +.004751 .0131043 .32235 0 -517827903276659e
-30 -1 0 1 -517827903276659e-30 14 865 1149 892 ?886 862 893 4 888 -0 0 886 862
 18 51 891 1217 0 894 888 895 0 +.004751 .0131043 .375 -1 0 0 .00265 0 0 1 14 89
4 1216 896 ?897 898 899 4 891 -0 0 897 898 18 50 895 1221 0 898 891 900 0 +.0047
51 .0131043 .37765 0 517827903276659e-30 1 0 -1 517827903276659e-30 14 898 1220
 901 ?894 902 903 4 895 -0 0 894 902 18 51 900 1225 0 902 895 904 0 +.004751 .00
64043 .375 -1 0 0 .00265 0 0 1 14 902 1224 905 ?898 881 906 4 900 -0 0 898 881 1
8 50 904 1229 0 881 900 907 0 +.004751 .0131043 .37235 0 -517827903276659e-30 -1
 0 1 -517827903276659e-30 14 881 1228 908 ?902 878 909 4 904 -0 0 902 878 18 51
 907 1296 0 910 904 911 0 +.004751 .0131043 .425 -1 0 0 .00265 0 0 1 14 910 1295
 912 ?14 913 914 4 907 -0 0 14 913 18 50 911 1300 0 913 907 915 0 +.004751 .0131
043 .42765 0 517827903276659e-30 1 0 -1 517827903276659e-30 14 913 1299 916 ?910
 917 918 4 911 -0 0 910 917 18 51 915 1304 0 917 911 919 0 +.004751 .0064043 .42
5 -1 0 0 .00265 0 0 1 14 917 1303 920 ?913 897 921 4 915 -0 0 913 897 18 50 919
 1308 0 897 915 922 0 +.004751 .0131043 .42235 0 -517827903276659e-30 -1 0 1 -51
7827903276659e-30 14 897 1307 923 ?917 894 924 4 919 -0 0 917 894 18 51 922 1375
 0 925 919 926 0 +.004751 .0131043 .475 -1 0 0 .00265 0 0 1 14 925 1374 927 ?0 7
71 23 4 922 -0 0 0 771 18 50 926 1379 0 771 922 15 0 +.004751 .0131043 .47765 0
 517827903276659e-30 1 0 -1 517827903276659e-30 14 771 1378 928 ?925 775 769 4 9
26 -0 0 925 775 18 51 15 1383 0 775 926 5 0 +.004751 .0064043 .475 -1 0 0 .00265
 0 0 1 14 775 1382 929 ?771 14 774 4 15 -0 0 771 14 18 81 1 929 2135 782 775 930
 0 928 931 932 14 14 1386 931 ?775 910 777 4 5 -0 0 775 910 18 81 1 931 2136 782
 14 933 0 929 934 935 80 255 1 782 936 937 9000 1 1 1 1 1 1 1 1 0 FFFFTFTFFFFFFF
1 81 1 933 1982 938 14 0 931 939 930 940 81 1 934 2137 782 351 941 0 931 942 943
 82 255 1 935 1168572631 14 351 786 934 ?825 944 345 4 945 -0 0 825 944 18 81 1
 941 1953 938 351 0 934 946 947 948 81 1 942 2138 782 944 946 0 934 949 950 82 1
 943 1116078295 14 944 783 942 ?351 951 952 4 953 -0 0 351 951 18 81 1 946 1952
 938 944 0 942 954 941 955 81 1 949 2139 782 951 954 0 942 956 957 82 1 950 1117
847767 14 951 780 949 ?944 363 958 4 959 -0 0 944 363 18 81 1 954 1951 938 951 0
 949 960 946 961 81 1 956 2140 782 363 960 0 949 962 963 82 1 957 1117913303 14
 363 777 956 ?951 964 361 4 965 -0 0 951 964 18 81 1 960 1950 938 363 0 956 966
 954 967 81 1 962 2141 782 964 966 0 956 968 969 82 1 963 1116405975 14 964 637
 962 ?363 970 971 4 972 -0 0 363 970 18 81 1 966 1949 938 964 0 962 973 960 974
 81 1 968 2142 782 970 973 0 962 975 976 82 1 969 -506658605 14 970 633 968 ?964
 977 978 4 979 -0 0 964 977 18 81 1 973 1948 938 970 0 968 980 966 981 81 1 975
 2143 782 977 980 0 968 982 983 82 1 976 -502398765 14 977 629 975 ?970 811 984
 4 985 -0 0 970 811 18 81 1 980 1947 938 977 0 975 986 973 987 81 1 982 2144 782
 811 986 0 975 988 989 82 1 983 -501612333 14 811 625 982 ?977 807 990 4 991 -0
 0 977 807 18 81 1 986 1946 938 811 0 982 992 980 993 81 1 988 2145 782 795 994
 0 982 995 996 82 1 989 -501153581 14 795 75 988 ?791 997 998 4 999 -0 0 791 997
 18 81 1 994 1940 938 795 0 988 1000 1001 1002 81 1 995 2146 782 997 1000 0 988
 1003 1004 82 1 996 -622657327 14 997 1 995 ?795 1005 1006 4 1007 +0 0 795 1005
 18 81 1 1000 1939 938 997 0 995 1008 994 1009 81 1 1003 2147 782 1005 1008 0 99
5 1010 1011 82 1 1004 -628490031 14 1005 143 1003 ?997 1012 1013 4 1014 -0 0 997
 1012 18 81 1 1008 1938 938 1005 0 1003 1015 1000 1016 81 1 1010 2148 782 1012 1
015 0 1003 1017 1018 82 1 1011 -616431410 14 1012 145 1010 ?1005 1019 1020 4 102
1 -0 0 1005 1019 18 81 1 1015 1937 938 1012 0 1010 1022 1008 1023 81 1 1017 2149
 782 1019 1022 0 1010 1024 1025 82 1 1018 -616169267 14 1019 147 1017 ?1012 1026
 1027 4 1028 -0 0 1012 1026 18 81 1 1022 1936 938 1019 0 1017 1029 1015 1030 81
 1 1024 2150 782 1026 1029 0 1017 1031 1032 82 1 1025 -615907121 14 1026 149 102
4 ?1019 1033 1034 4 1035 -0 0 1019 1033 18 81 1 1029 1935 938 1026 0 1024 1036 1
022 1037 81 1 1031 2151 782 1033 1036 0 1024 1038 1039 82 1 1032 -615644976 14 1
033 151 1031 ?1026 370 1040 4 1041 -0 0 1026 370 18 81 1 1036 1934 938 1033 0 10
31 1042 1029 1043 81 1 1038 2152 782 370 1042 0 1031 0 1044 82 1 1039 -615382832
 14 370 153 1038 ?1033 779 356 4 790 -0 0 1033 779 18 81 1 1042 1933 938 370 0 1
038 1045 1036 1046 82 1 1044 -615120681 80 1 938 0 1047 8001 0 0 0 0 3 5 0 0 0 F
FFFTFTFFFFFFF2 81 1 1045 1932 938 779 0 784 783 1042 1048 83 255 3 1046 .8666666
66666667 .909803921568627 1 81 1 784 2099 782 779 1045 0 778 793 1049 81 1 783 1
931 938 12 0 778 0 1045 1050 83 3 1048 .866666666666667 .909803921568627 1 83 3
 1050 .866666666666667 .909803921568627 1 81 1 793 2100 782 791 1001 0 784 798 1
051 82 1 1049 -614858543 81 1 1001 1941 938 791 0 793 994 1052 1053 81 1 798 210
1 782 794 1052 0 793 802 1054 82 1 1051 -606732082 81 1 1052 1942 938 794 0 798
 1001 1055 1056 81 1 802 2102 782 799 1055 0 798 806 1057 82 1 1054 -598081329 8
1 1 1055 1943 938 799 0 802 1052 1058 1059 81 1 806 2103 782 803 1058 0 802 810
 1060 82 1 1057 -589430576 81 1 1058 1944 938 803 0 806 1055 992 1061 81 1 810 2
104 782 807 992 0 806 815 1062 82 1 1060 -580517679 81 1 992 1945 938 807 0 810
 1058 986 1063 81 1 815 2105 782 813 1064 0 810 820 1065 82 1 1062 -578551599 81
 1 1064 1957 938 813 0 815 1066 1067 1068 81 1 820 2106 782 817 1066 0 815 824 1
069 82 1 1065 1123418327 81 1 1066 1956 938 817 0 820 1070 1064 1071 81 1 824 21
07 782 821 1070 0 820 828 1072 82 1 1069 1123942615 81 1 1070 1955 938 821 0 824
 947 1066 1073 81 1 828 2108 782 825 947 0 824 832 1074 82 1 1072 1124466903 81
 1 947 1954 938 825 0 828 941 1070 1075 81 1 832 2109 782 830 1076 0 828 837 107
7 82 1 1074 1124991191 81 1 1076 1961 938 830 0 832 1078 1079 1080 81 1 837 2110
 782 834 1078 0 832 841 1081 82 1 1077 1129644247 81 1 1078 1960 938 834 0 837 1
082 1076 1083 81 1 841 2111 782 838 1082 0 837 844 1084 82 1 1081 1130168535 81
 1 1082 1959 938 838 0 841 1067 1078 1085 81 1 844 2112 782 816 1067 0 841 848 1
086 82 1 1084 1130692823 81 1 1067 1958 938 816 0 844 1064 1082 1087 81 1 848 21
13 782 846 1088 0 844 853 1089 82 1 1086 1131217111 81 1 1088 1965 938 846 0 848
 1090 1091 1092 81 1 853 2114 782 850 1090 0 848 857 1093 82 1 1089 1135870167 8
1 1 1090 1964 938 850 0 853 1094 1088 1095 81 1 857 2115 782 854 1094 0 853 860
 1096 82 1 1093 1136394455 81 1 1094 1963 938 854 0 857 1079 1090 1097 81 1 860
 2116 782 833 1079 0 857 864 1098 82 1 1096 1136918743 81 1 1079 1962 938 833 0
 860 1076 1094 1099 81 1 864 2117 782 862 1100 0 860 869 1101 82 1 1098 11374430
31 81 1 1100 1969 938 862 0 864 1102 1103 1104 81 1 869 2118 782 866 1102 0 864
 873 1105 82 1 1101 1142096087 81 1 1102 1968 938 866 0 869 1106 1100 1107 81 1
 873 2119 782 870 1106 0 869 876 1108 82 1 1105 1142620375 81 1 1106 1967 938 87
0 0 873 1091 1102 1109 81 1 876 2120 782 849 1091 0 873 880 1110 82 1 1108 11431
44663 81 1 1091 1966 938 849 0 876 1088 1106 1111 81 1 880 2121 782 878 1112 0 8
76 885 1113 82 1 1110 1143668951 81 1 1112 1973 938 878 0 880 1114 1115 1116 81
 1 885 2122 782 882 1114 0 880 889 1117 82 1 1113 1148322007 81 1 1114 1972 938
 882 0 885 1118 1112 1119 81 1 889 2123 782 886 1118 0 885 892 1120 82 1 1117 11
48846295 81 1 1118 1971 938 886 0 889 1103 1114 1121 81 1 892 2124 782 865 1103
 0 889 896 1122 82 1 1120 1149370583 81 1 1103 1970 938 865 0 892 1100 1118 1123
 81 1 896 2125 782 894 1124 0 892 901 1125 82 1 1122 1149894871 81 1 1124 1977 9
38 894 0 896 1126 1127 1128 81 1 901 2126 782 898 1126 0 896 905 1129 82 1 1125
 1154547927 81 1 1126 1976 938 898 0 901 1130 1124 1131 81 1 905 2127 782 902 11
30 0 901 908 1132 82 1 1129 1155072215 81 1 1130 1975 938 902 0 905 1115 1126 11
33 81 1 908 2128 782 881 1115 0 905 912 1134 82 1 1132 1155596503 81 1 1115 1974
 938 881 0 908 1112 1130 1135 81 1 912 2129 782 910 939 0 908 916 1136 82 1 1134
 1156120791 81 1 939 1981 938 910 0 912 1137 933 1138 81 1 916 2130 782 913 1137
 0 912 920 1139 82 1 1136 1160773847 81 1 1137 1980 938 913 0 916 1140 939 1141
 81 1 920 2131 782 917 1140 0 916 923 1142 82 1 1139 1161298135 81 1 1140 1979 9
38 917 0 920 1127 1137 1143 81 1 923 2132 782 897 1127 0 920 927 1144 82 1 1142
 1161822423 81 1 1127 1978 938 897 0 923 1124 1140 1145 81 1 927 2133 782 925 11
46 0 923 928 1147 82 1 1144 1162346711 81 1 1146 1985 938 925 0 927 1148 0 1149
 81 1 928 2134 782 771 1148 0 927 929 1150 82 1 1147 1166999767 81 1 1148 1984 9
38 771 0 928 930 1146 1151 82 1 1150 1167524055 81 1 930 1983 938 775 0 929 933
 1148 1152 83 3 1151 .866666666666667 .909803921568627 1 83 3 1152 .866666666666
667 .909803921568627 1 83 3 1149 .866666666666667 .909803921568627 1 83 3 1145 .
866666666666667 .909803921568627 1 83 3 1143 .866666666666667 .909803921568627 1
 83 3 1141 .866666666666667 .909803921568627 1 83 3 1138 .866666666666667 .90980
3921568627 1 83 3 1135 .866666666666667 .909803921568627 1 83 3 1133 .8666666666
66667 .909803921568627 1 83 3 1131 .866666666666667 .909803921568627 1 83 3 1128
 .866666666666667 .909803921568627 1 83 3 1123 .866666666666667 .909803921568627
 1 83 3 1121 .866666666666667 .909803921568627 1 83 3 1119 .866666666666667 .909
803921568627 1 83 3 1116 .866666666666667 .909803921568627 1 83 3 1111 .86666666
6666667 .909803921568627 1 83 3 1109 .866666666666667 .909803921568627 1 83 3 11
07 .866666666666667 .909803921568627 1 83 3 1104 .866666666666667 .9098039215686
27 1 83 3 1099 .866666666666667 .909803921568627 1 83 3 1097 .866666666666667 .9
09803921568627 1 83 3 1095 .866666666666667 .909803921568627 1 83 3 1092 .866666
666666667 .909803921568627 1 83 3 1087 .866666666666667 .909803921568627 1 83 3
 1085 .866666666666667 .909803921568627 1 83 3 1083 .866666666666667 .9098039215
68627 1 83 3 1080 .866666666666667 .909803921568627 1 83 3 1075 .866666666666667
 .909803921568627 1 83 3 1073 .866666666666667 .909803921568627 1 83 3 1071 .866
666666666667 .909803921568627 1 83 3 1068 .866666666666667 .909803921568627 1 83
 3 1063 .866666666666667 .909803921568627 1 83 3 1061 .866666666666667 .90980392
1568627 1 83 3 1059 .866666666666667 .909803921568627 1 83 3 1056 .8666666666666
67 .909803921568627 1 83 3 1053 .866666666666667 .909803921568627 1 79 255 15 10
47 SDL/TYSA_COLOUR50 790 171 0 370 1041 787 0 +.002375 0 .5 -1 888276201144348e-
31 0 -888276201144348e-31 -1 0 50 1041 170 0 1033 1035 790 0 +.002375 .0195291 .
5 -2921639538487255e-30 1 0 -1 -2921639538487255e-30 0 50 1035 169 0 1026 1028 1
041 0 +.00475 .0195291 .5 -1 0 0 0 0 1 50 1028 168 0 1019 1021 1035 0 +.00273041
094596531 .0223497839659653 .5 -.707106781186547 -.707106781186548 0 .7071067811
86548 -.707106781186547 0 51 1021 167 0 1012 1014 1028 0 -.002375 .02199437302 .
5 0 0 -1 .00050262698 -1 0 0 50 1014 166 0 1005 999 1021 0 +0 .02033019491193065
 .5 .707106781186548 -.707106781186547 0 .707106781186547 .707106781186548 0 50
 999 117 0 795 1007 1014 0 +.002375 .02199437302 0 0 0 1 1 0 0 50 1007 2 0 997 9
91 999 0 +.002375 .02199437302 .5 0 0 1 1 0 0 51 991 649 0 811 972 1007 0 +.0047
51 .0131043 .025 -1 0 0 .00265 0 0 1 50 972 650 0 964 979 991 0 +.004751 .013104
3 .02235 0 -517827903276659e-30 -1 0 1 -517827903276659e-30 51 979 651 0 970 985
 972 0 +.004751 .0064043 .025 -1 0 0 .00265 0 0 1 50 985 652 0 977 965 979 0 +.0
04751 .0131043 .02765 0 517827903276659e-30 1 0 -1 517827903276659e-30 51 965 79
3 0 363 959 985 0 +.004751 .0131043 .075 -1 0 0 .00265 0 0 1 50 959 794 0 951 95
3 965 0 +.004751 .0131043 .07765 0 517827903276659e-30 1 0 -1 517827903276659e-3
0 51 953 795 0 944 945 959 0 +.004751 .0064043 .075 -1 0 0 .00265 0 0 1 50 945 7
96 0 351 0 953 0 +.004751 .0131043 .07235 0 -517827903276659e-30 -1 0 1 -5178279
03276659e-30 83 3 1043 .866666666666667 .909803921568627 1 15 1040 150 0 444 103
3 0 17 444 0 1040 258 460 259 1153 442 0 1154 +17 258 0 1040 1155 444 256 1154 4
86 0 424 +17 460 0 1040 444 1155 300 1156 458 0 1153 +17 1153 0 998 1157 261 300
 444 442 0 0 -17 1154 0 804 267 1158 259 258 486 0 0 -15 804 401 0 1158 799 0 17
 267 0 804 1159 1154 265 261 484 0 483 -17 1158 0 804 1154 1159 256 264 488 0 0
 -17 1159 0 804 1158 267 262 483 481 0 0 -17 264 0 1006 270 424 262 1158 488 0 1
160 +15 1006 3 0 419 997 0 17 270 0 1006 276 264 268 1160 425 0 478 +17 424 0 10
06 264 310 256 1155 422 0 1158 +17 1160 0 1034 483 478 262 270 425 0 1159 -15 10
34 148 0 1160 1026 0 17 483 0 1034 273 1160 265 1159 481 0 1161 +17 478 0 1034 1
160 273 268 1162 476 0 1163 +17 273 0 1034 478 483 271 1161 445 0 475 +17 1162 0
 800 279 1163 271 478 476 0 0 -17 1163 0 800 1162 1164 268 276 479 0 0 -15 800 3
36 0 1163 794 0 17 1164 0 800 1163 279 274 472 470 0 0 -17 276 0 1006 308 270 27
4 1163 479 0 1165 +17 308 0 1006 305 276 306 1165 427 0 1166 +17 1165 0 1027 472
 1166 274 308 427 0 1164 -15 1027 146 0 1165 1019 0 17 472 0 1027 299 1165 277 1
164 470 0 1167 +17 1166 0 1027 1165 299 306 457 455 0 1168 -17 299 0 1027 1166 4
72 297 1167 447 0 457 +17 457 0 1020 295 1168 297 1166 455 0 1169 +17 1168 0 102
0 457 1170 306 305 429 0 0 -15 1020 144 0 295 1012 0 17 1170 0 1020 1168 295 292
 454 434 0 1171 -17 305 0 1006 433 308 292 1168 429 0 1170 +17 433 0 1006 288 30
5 280 1171 431 0 1172 +17 288 0 1006 415 433 286 1172 468 0 1173 +17 1171 0 1013
 454 282 292 433 431 0 0 -17 1172 0 796 1174 1175 280 288 468 0 0 -15 796 271 0
 1172 791 0 17 1174 0 796 291 1172 283 282 466 0 0 -17 1175 0 796 1172 291 286 4
63 461 0 0 -17 291 0 796 1175 1174 289 285 464 0 463 -17 463 0 1176 436 1173 289
 1175 461 0 1177 +15 1176 156 0 436 12 1178 17 436 0 1176 234 463 241 1177 412 0
 1179 +17 1173 0 1176 463 234 286 415 413 0 1175 -17 1177 0 998 285 243 289 436
 412 0 0 -15 998 76 0 1157 795 0 17 285 0 998 1180 1177 283 291 464 0 452 +17 24
3 0 998 1177 1181 241 249 493 0 436 +17 1181 0 998 243 246 247 439 437 0 0 -17 2
49 0 812 1182 1179 247 243 493 0 499 -15 812 523 0 1183 807 0 17 1182 0 812 1183
 249 238 499 497 0 0 -17 1179 0 812 249 1183 241 234 506 0 0 -17 499 0 786 439 1
184 247 1182 497 0 1181 +15 786 154 0 439 779 0 17 439 0 786 237 499 244 1181 43
7 0 1185 +17 1184 0 786 499 237 238 419 416 0 1182 -17 237 0 786 1184 439 235 11
85 500 0 419 +17 419 0 1006 252 240 235 1184 416 0 1186 +17 252 0 1006 310 419 2
50 1186 504 0 1187 +17 240 0 1006 419 415 238 1183 502 0 1184 +17 1186 0 808 118
5 1188 235 252 504 0 0 -15 808 502 0 1186 803 0 17 1185 0 808 255 1186 244 237 5
00 0 0 -17 1188 0 808 1186 255 250 492 490 0 0 -17 255 0 808 1188 1185 253 246 4
95 0 492 -17 492 0 1189 302 1187 253 1188 490 0 1157 +15 1189 152 0 1187 370 119
0 17 302 0 1189 1156 492 300 1157 440 0 460 +17 1187 0 1189 492 1156 250 310 420
 0 1188 -17 1157 0 998 246 1153 253 302 440 0 0 -17 246 0 998 1181 1157 244 255
 495 0 439 +17 1156 0 1189 1187 302 296 460 458 0 1155 -17 310 0 1006 424 252 29
6 1187 420 0 1156 +17 1155 0 1040 460 258 296 424 422 0 0 -15 1190 818 0 219 370
 1191 17 219 0 1190 216 1192 217 210 508 0 512 -15 1191 897 0 195 370 1193 17 19
5 0 1191 192 1194 193 186 542 0 546 -15 1193 976 0 171 370 1195 17 171 0 1193 16
8 1196 169 162 576 0 580 -15 1195 1055 0 147 370 1197 17 147 0 1195 144 1198 145
 138 610 0 614 -15 1197 1134 0 123 370 1199 17 123 0 1197 120 1200 121 114 644 0
 648 -15 1199 1213 0 99 370 1201 17 99 0 1199 96 1202 97 90 678 0 682 -15 1201 1
292 0 75 370 1203 17 75 0 1201 72 1204 73 66 712 0 716 -15 1203 1371 0 51 370 0
 17 51 0 1203 48 773 49 42 746 0 750 -17 48 0 1203 45 51 46 750 748 0 753 -17 77
3 0 1203 51 45 40 756 754 0 772 -17 42 0 23 25 24 40 51 746 0 773 +15 23 1377 0
 42 925 0 17 25 0 23 21 42 36 772 764 0 0 +17 24 0 23 42 21 49 767 766 0 0 -17 7
72 0 769 756 760 40 25 764 0 0 -17 45 0 1203 773 48 43 753 751 0 756 -17 72 0 12
01 69 75 70 716 714 0 719 -17 1204 0 1201 75 69 64 722 720 0 1205 -17 66 0 914 7
36 1206 64 75 712 0 1204 +17 716 0 924 739 1207 73 72 714 0 1206 +15 924 1310 0
 716 897 0 17 739 0 924 733 716 52 1206 737 0 0 +17 1207 0 924 716 733 70 745 74
3 0 0 -17 1206 0 914 66 54 73 739 737 0 0 -15 914 1298 0 66 910 0 17 54 0 914 12
06 736 52 63 723 0 1208 +17 736 0 914 54 66 61 1205 734 0 0 +17 63 0 1209 60 120
8 61 54 723 0 727 -17 1208 0 1209 63 57 52 733 731 0 739 -15 1209 1294 0 63 12 3
1 17 57 0 1209 1208 60 55 730 728 0 733 -17 733 0 924 1207 739 55 1208 731 0 745
 +17 745 0 921 730 719 55 1207 743 0 0 +15 921 1306 0 719 917 0 17 730 0 921 121
0 745 58 57 728 0 742 +17 719 0 921 745 1210 70 69 717 0 1207 +17 1210 0 921 719
 730 67 742 740 0 0 -17 69 0 1201 1204 72 67 719 717 0 722 -17 722 0 918 742 120
5 67 1204 720 0 1210 +15 918 1302 0 722 913 0 17 742 0 918 727 722 58 1210 740 0
 0 +17 1205 0 918 722 727 64 736 734 0 0 -17 727 0 918 1205 742 61 60 725 0 736
 +17 60 0 1209 57 63 58 727 725 0 730 -17 96 0 1199 93 99 94 682 680 0 685 -17 1
202 0 1199 99 93 88 688 686 0 1211 -17 90 0 899 702 1212 88 99 678 0 1202 +17 68
2 0 909 705 1213 97 96 680 0 1212 +15 909 1231 0 682 881 0 17 705 0 909 699 682
 76 1212 703 0 0 +17 1213 0 909 682 699 94 711 709 0 0 -17 1212 0 899 90 78 97 7
05 703 0 0 -15 899 1219 0 90 894 0 17 78 0 899 1212 702 76 87 689 0 1214 +17 702
 0 899 78 90 85 1211 700 0 0 +17 87 0 1215 84 1214 85 78 689 0 693 -17 1214 0 12
15 87 81 76 699 697 0 705 -15 1215 1215 0 87 12 1209 17 81 0 1215 1214 84 79 696
 694 0 699 -17 699 0 909 1213 705 79 1214 697 0 711 +17 711 0 906 696 685 79 121
3 709 0 0 +15 906 1227 0 685 902 0 17 696 0 906 1216 711 82 81 694 0 708 +17 685
 0 906 711 1216 94 93 683 0 1213 +17 1216 0 906 685 696 91 708 706 0 0 -17 93 0
 1199 1202 96 91 685 683 0 688 -17 688 0 903 708 1211 91 1202 686 0 1216 +15 903
 1223 0 688 898 0 17 708 0 903 693 688 82 1216 706 0 0 +17 1211 0 903 688 693 88
 702 700 0 0 -17 693 0 903 1211 708 85 84 691 0 702 +17 84 0 1215 81 87 82 693 6
91 0 696 -17 120 0 1197 117 123 118 648 646 0 651 -17 1200 0 1197 123 117 112 65
4 652 0 1217 -17 114 0 883 668 1218 112 123 644 0 1200 +17 648 0 893 671 1219 12
1 120 646 0 1218 +15 893 1152 0 648 865 0 17 671 0 893 665 648 100 1218 669 0 0
 +17 1219 0 893 648 665 118 677 675 0 0 -17 1218 0 883 114 102 121 671 669 0 0 -
15 883 1140 0 114 878 0 17 102 0 883 1218 668 100 111 655 0 1220 +17 668 0 883 1
02 114 109 1217 666 0 0 +17 111 0 1221 108 1220 109 102 655 0 659 -17 1220 0 122
1 111 105 100 665 663 0 671 -15 1221 1136 0 111 12 1215 17 105 0 1221 1220 108 1
03 662 660 0 665 -17 665 0 893 1219 671 103 1220 663 0 677 +17 677 0 890 662 651
 103 1219 675 0 0 +15 890 1148 0 651 886 0 17 662 0 890 1222 677 106 105 660 0 6
74 +17 651 0 890 677 1222 118 117 649 0 1219 +17 1222 0 890 651 662 115 674 672
 0 0 -17 117 0 1197 1200 120 115 651 649 0 654 -17 654 0 887 674 1217 115 1200 6
52 0 1222 +15 887 1144 0 654 882 0 17 674 0 887 659 654 106 1222 672 0 0 +17 121
7 0 887 654 659 112 668 666 0 0 -17 659 0 887 1217 674 109 108 657 0 668 +17 108
 0 1221 105 111 106 659 657 0 662 -17 144 0 1195 141 147 142 614 612 0 617 -17 1
198 0 1195 147 141 136 620 618 0 1223 -17 138 0 867 634 1224 136 147 610 0 1198
 +17 614 0 877 637 1225 145 144 612 0 1224 +15 877 1073 0 614 849 0 17 637 0 877
 631 614 124 1224 635 0 0 +17 1225 0 877 614 631 142 643 641 0 0 -17 1224 0 867
 138 126 145 637 635 0 0 -15 867 1061 0 138 862 0 17 126 0 867 1224 634 124 135
 621 0 1226 +17 634 0 867 126 138 133 1223 632 0 0 +17 135 0 1227 132 1226 133 1
26 621 0 625 -17 1226 0 1227 135 129 124 631 629 0 637 -15 1227 1057 0 135 12 12
21 17 129 0 1227 1226 132 127 628 626 0 631 -17 631 0 877 1225 637 127 1226 629
 0 643 +17 643 0 874 628 617 127 1225 641 0 0 +15 874 1069 0 617 870 0 17 628 0
 874 1228 643 130 129 626 0 640 +17 617 0 874 643 1228 142 141 615 0 1225 +17 12
28 0 874 617 628 139 640 638 0 0 -17 141 0 1195 1198 144 139 617 615 0 620 -17 6
20 0 871 640 1223 139 1198 618 0 1228 +15 871 1065 0 620 866 0 17 640 0 871 625
 620 130 1228 638 0 0 +17 1223 0 871 620 625 136 634 632 0 0 -17 625 0 871 1223
 640 133 132 623 0 634 +17 132 0 1227 129 135 130 625 623 0 628 -17 168 0 1193 1
65 171 166 580 578 0 583 -17 1196 0 1193 171 165 160 586 584 0 1229 -17 162 0 85
1 600 1230 160 171 576 0 1196 +17 580 0 861 603 1231 169 168 578 0 1230 +15 861
 994 0 580 833 0 17 603 0 861 597 580 148 1230 601 0 0 +17 1231 0 861 580 597 16
6 609 607 0 0 -17 1230 0 851 162 150 169 603 601 0 0 -15 851 982 0 162 846 0 17
 150 0 851 1230 600 148 159 587 0 1232 +17 600 0 851 150 162 157 1229 598 0 0 +1
7 159 0 1233 156 1232 157 150 587 0 591 -17 1232 0 1233 159 153 148 597 595 0 60
3 -15 1233 978 0 159 12 1227 17 153 0 1233 1232 156 151 594 592 0 597 -17 597 0
 861 1231 603 151 1232 595 0 609 +17 609 0 858 594 583 151 1231 607 0 0 +15 858
 990 0 583 854 0 17 594 0 858 1234 609 154 153 592 0 606 +17 583 0 858 609 1234
 166 165 581 0 1231 +17 1234 0 858 583 594 163 606 604 0 0 -17 165 0 1193 1196 1
68 163 583 581 0 586 -17 586 0 855 606 1229 163 1196 584 0 1234 +15 855 986 0 58
6 850 0 17 606 0 855 591 586 154 1234 604 0 0 +17 1229 0 855 586 591 160 600 598
 0 0 -17 591 0 855 1229 606 157 156 589 0 600 +17 156 0 1233 153 159 154 591 589
 0 594 -17 192 0 1191 189 195 190 546 544 0 549 -17 1194 0 1191 195 189 184 552
 550 0 1235 -17 186 0 835 566 1236 184 195 542 0 1194 +17 546 0 845 569 1237 193
 192 544 0 1236 +15 845 915 0 546 816 0 17 569 0 845 563 546 172 1236 567 0 0 +1
7 1237 0 845 546 563 190 575 573 0 0 -17 1236 0 835 186 174 193 569 567 0 0 -15
 835 903 0 186 830 0 17 174 0 835 1236 566 172 183 553 0 1238 +17 566 0 835 174
 186 181 1235 564 0 0 +17 183 0 1239 180 1238 181 174 553 0 557 -17 1238 0 1239
 183 177 172 563 561 0 569 -15 1239 899 0 183 12 1233 17 177 0 1239 1238 180 175
 560 558 0 563 -17 563 0 845 1237 569 175 1238 561 0 575 +17 575 0 842 560 549 1
75 1237 573 0 0 +15 842 911 0 549 838 0 17 560 0 842 1240 575 178 177 558 0 572
 +17 549 0 842 575 1240 190 189 547 0 1237 +17 1240 0 842 549 560 187 572 570 0
 0 -17 189 0 1191 1194 192 187 549 547 0 552 -17 552 0 839 572 1235 187 1194 550
 0 1240 +15 839 907 0 552 834 0 17 572 0 839 557 552 178 1240 570 0 0 +17 1235 0
 839 552 557 184 566 564 0 0 -17 557 0 839 1235 572 181 180 555 0 566 +17 180 0
 1239 177 183 178 557 555 0 560 -17 216 0 1190 213 219 214 512 510 0 515 -17 119
2 0 1190 219 213 208 518 516 0 1241 -17 210 0 818 532 1242 208 219 508 0 1192 +1
7 512 0 829 535 1243 217 216 510 0 1242 +15 829 836 0 512 825 0 17 535 0 829 529
 512 196 1242 533 0 0 +17 1243 0 829 512 529 214 541 539 0 0 -17 1242 0 818 210
 198 217 535 533 0 0 -15 818 824 0 210 813 0 17 198 0 818 1242 532 196 207 519 0
 1244 +17 532 0 818 198 210 205 1241 530 0 0 +17 207 0 1178 204 1244 205 198 519
 0 523 -17 1244 0 1178 207 201 196 529 527 0 535 -15 1178 820 0 207 12 1239 17 2
01 0 1178 1244 204 199 526 524 0 529 -17 529 0 829 1243 535 199 1244 527 0 541 +
17 541 0 826 526 515 199 1243 539 0 0 +15 826 832 0 515 821 0 17 526 0 826 1245
 541 202 201 524 0 538 +17 515 0 826 541 1245 214 213 513 0 1243 +17 1245 0 826
 515 526 211 538 536 0 0 -17 213 0 1190 1192 216 211 515 513 0 518 -17 518 0 822
 538 1241 211 1192 516 0 1245 +15 822 828 0 518 817 0 17 538 0 822 523 518 202 1
245 536 0 0 +17 1241 0 822 518 523 208 532 530 0 0 -17 523 0 822 1241 538 205 20
4 521 0 532 +17 204 0 1178 201 207 202 523 521 0 526 -17 415 0 1006 240 288 232
 1173 413 0 1183 +17 1183 0 812 1179 1182 232 240 502 0 0 -17 234 0 1176 1173 43
6 232 1179 506 0 415 +17 1180 0 998 1169 285 293 452 417 0 0 -17 452 0 1013 282
 454 283 1180 417 0 1174 +15 1013 142 0 452 1005 0 17 282 0 1013 1171 452 280 11
74 466 0 433 +17 454 0 1013 452 1171 293 1170 434 0 1180 +17 1169 0 998 1167 118
0 297 295 449 0 0 -17 1167 0 998 475 1169 277 299 447 0 0 -17 295 0 1020 1170 45
7 293 1169 449 0 454 +17 475 0 998 1161 1167 271 279 473 0 1162 +17 1161 0 998 2
61 475 265 273 445 0 0 -17 279 0 800 1164 1162 277 475 473 0 472 -17 261 0 998 1
153 1161 259 267 484 0 444 +83 3 1037 .866666666666667 .909803921568627 1 83 3 1
030 .866666666666667 .909803921568627 1 83 3 1023 .866666666666667 .909803921568
627 1 83 3 1016 .866666666666667 .909803921568627 1 83 3 1009 .866666666666667 .
909803921568627 1 83 3 1002 .866666666666667 .909803921568627 1 83 3 993 .866666
666666667 .909803921568627 1 15 990 628 0 388 811 0 17 388 0 990 318 327 303 124
6 386 0 1247 +17 318 0 990 228 388 316 312 401 0 399 +17 327 0 990 388 228 325 4
09 400 0 411 -17 1246 0 371 1248 1247 325 388 386 0 0 -17 1247 0 371 1246 1249 3
03 385 383 0 0 -15 371 557 0 1247 370 1189 17 1249 0 371 1247 1248 313 231 376 0
 0 -17 385 0 984 321 312 313 1247 383 0 1249 +15 984 632 0 385 977 0 17 321 0 98
4 399 385 319 315 404 0 396 +17 312 0 984 385 399 303 318 401 0 388 -17 399 0 98
4 312 321 316 1250 397 0 1251 +17 1250 0 788 1252 1251 319 399 397 0 0 -17 1251
 0 788 1250 1253 316 228 389 0 0 -15 788 577 0 1253 12 1176 17 1253 0 788 1251 1
252 226 393 391 0 0 -17 228 0 990 327 318 226 1251 389 0 409 +17 409 0 971 393 4
11 226 327 400 0 1253 +15 971 640 0 411 964 0 17 393 0 971 1254 409 322 1253 391
 0 1252 +17 411 0 971 409 1254 325 1248 403 0 1246 +17 1254 0 971 411 393 229 32
4 406 0 1248 -17 1248 0 371 1249 1246 229 411 403 0 0 -17 324 0 978 396 231 322
 1254 406 0 393 +15 978 636 0 231 970 0 17 396 0 978 315 324 319 1252 394 0 1250
 +17 231 0 978 324 315 229 1249 376 0 1254 +17 315 0 978 231 396 313 321 404 0 3
85 -17 1252 0 788 1253 1250 322 396 394 0 0 -83 3 987 .866666666666667 .90980392
1568627 1 83 3 981 .866666666666667 .909803921568627 1 83 3 974 .866666666666667
 .909803921568627 1 83 3 967 .866666666666667 .909803921568627 1 83 3 961 .86666
6666666667 .909803921568627 1 15 958 782 0 372 951 0 17 372 0 958 1255 330 334 3
66 373 0 357 +17 1255 0 958 333 372 337 336 1256 0 1257 +17 330 0 958 372 333 32
8 364 374 0 362 -16 373 747 0 ?372 378 1256 1258 0 0 1 17 357 0 356 366 348 334
 225 1259 0 0 -17 225 0 952 354 336 223 357 1259 0 347 +16 1259 749 0 ?225 1260
 355 1261 0 0 1 16 1260 757 0 ?339 1256 1259 1262 0 0 1 16 355 764 0 ?354 1259 3
52 1263 0 0 1 31 1261 804 0 1259 1263 1262 0 -.002375 .0064043 .075 -1 888276201
144348e-31 0 -888276201144348e-31 -1 0 .00265 30 1263 805 0 355 369 1261 0 +.004
751 .0064043 .07235 -1 0 0 31 1262 803 0 1260 1261 1264 0 +0 .0064043 .075 -1 0
 0 0 0 1 .00265 30 1264 802 0 1256 1262 1258 0 +.004751 .0064043 .07765 -1 0 0 1
6 1256 763 0 ?1255 373 1260 1264 0 0 1 30 1258 801 0 373 1264 380 0 +.002375 .01
31043 .07765 -888276201144348e-31 -1 517827903276659e-30 30 380 800 0 378 1258 3
79 0 +0 .0131043 .07765 0 1 -517827903276659e-30 16 378 759 0 ?333 374 373 380 0
 0 1 17 333 0 958 330 1255 331 1257 378 0 364 +17 1257 0 780 1265 367 337 333 37
8 0 0 -17 364 0 361 222 362 331 330 374 0 367 +17 367 0 780 1257 353 331 222 368
 0 0 -17 353 0 780 367 1265 220 342 359 0 0 -17 1265 0 780 353 1257 340 339 1260
 0 0 -17 342 0 345 347 346 340 353 359 0 354 +16 359 755 0 ?342 352 349 1266 0 0
 1 30 1266 807 0 359 360 369 0 +0 .0131043 .07235 0 -1 517827903276659e-30 30 36
0 808 0 349 0 1266 0 +.002375 .0131043 .07235 888276201144348e-31 1 -51782790327
6659e-30 30 369 806 0 352 1266 1263 0 +.004751 .0131043 .07235 -1 0 0 17 354 0 9
52 339 225 340 347 355 0 1265 +15 952 785 0 225 944 0 17 339 0 952 336 354 337 1
265 1260 0 1255 +17 336 0 952 225 339 334 1255 1256 0 372 -83 3 955 .86666666666
6667 .909803921568627 1 83 3 948 .866666666666667 .909803921568627 1 83 3 940 .8
66666666666667 .909803921568627 1 79 14 937 SWEntUnchanged82 1 932 1168048343 82
 1 785 -614596393 19 13 175 0 1 0 8 4 S74 4 CI16 index_map_offset0 0 1 dCCZ20 11
 2 0 0 1038 1146 0 0 0 0 0 0 0 0 0 0 0 0 0 0 0 0 0 0 1 0 
